<mxfile host="app.diagrams.net" modified="2022-12-16T02:22:53.233Z" agent="5.0 (Windows NT 10.0; WOW64) AppleWebKit/537.36 (KHTML, like Gecko) Chrome/108.0.0.0 Safari/537.36" etag="Wq_TEaHTk1fjkb-I0A5R" version="20.6.2" type="github">
  <diagram id="0S6d21IqHZWEtC0Xsx9p" name="第 1 页">
    <mxGraphModel dx="3373" dy="896" grid="1" gridSize="10" guides="1" tooltips="1" connect="1" arrows="1" fold="1" page="1" pageScale="1" pageWidth="850" pageHeight="1100" math="0" shadow="0">
      <root>
        <mxCell id="0" />
        <mxCell id="1" parent="0" />
        <mxCell id="oGBta0RcwHTypOkyzDNI-1" style="edgeStyle=none;curved=1;sketch=1;orthogonalLoop=1;jettySize=auto;html=1;exitX=0;exitY=0.5;exitDx=0;exitDy=0;entryX=0;entryY=0.5;entryDx=0;entryDy=0;shadow=1;dashed=1;strokeColor=#000000;strokeWidth=1;fontFamily=Helvetica;fontSize=16;fontColor=#000000;startArrow=halfCircle;startFill=0;endArrow=block;endFill=1;elbow=vertical;" parent="1" source="oGBta0RcwHTypOkyzDNI-44" target="oGBta0RcwHTypOkyzDNI-111" edge="1">
          <mxGeometry relative="1" as="geometry">
            <Array as="points">
              <mxPoint x="-331" y="1180" />
              <mxPoint x="-350" y="1260" />
              <mxPoint x="-350" y="1360" />
            </Array>
          </mxGeometry>
        </mxCell>
        <mxCell id="oGBta0RcwHTypOkyzDNI-2" value="&lt;b&gt;&lt;i&gt;http_router&lt;/i&gt;&lt;/b&gt;" style="shape=table;startSize=30;container=1;collapsible=0;childLayout=tableLayout;rounded=1;shadow=0;dashed=0;labelBackgroundColor=none;sketch=1;fillStyle=auto;strokeColor=#BD7000;fontFamily=Helvetica;fontSize=14;fontColor=#000000;fillColor=#f0a30a;html=1;swimlaneFillColor=#CCFFCC;gradientDirection=west;align=left;swimlaneLine=1;" parent="1" vertex="1">
          <mxGeometry x="42.99999999999999" y="1162" width="140" height="70" as="geometry" />
        </mxCell>
        <mxCell id="oGBta0RcwHTypOkyzDNI-3" value="" style="shape=tableRow;horizontal=0;startSize=0;swimlaneHead=0;swimlaneBody=0;top=0;left=0;bottom=0;right=0;collapsible=0;dropTarget=0;fillColor=none;points=[[0,0.5],[1,0.5]];portConstraint=eastwest;rounded=1;shadow=0;dashed=0;labelBackgroundColor=none;sketch=0;fillStyle=cross-hatch;strokeColor=#ffffff;fontFamily=Helvetica;fontSize=14;fontColor=#3333FF;html=1;" parent="oGBta0RcwHTypOkyzDNI-2" vertex="1">
          <mxGeometry y="30" width="140" height="20" as="geometry" />
        </mxCell>
        <mxCell id="oGBta0RcwHTypOkyzDNI-4" value="&lt;font color=&quot;#000000&quot;&gt;R3Node*&amp;nbsp; &amp;nbsp;&lt;i&gt;&lt;b&gt;root&lt;/b&gt;&lt;/i&gt;&lt;/font&gt;" style="shape=partialRectangle;html=1;whiteSpace=wrap;connectable=0;overflow=hidden;fillColor=none;top=0;left=0;bottom=0;right=0;pointerEvents=1;rounded=1;shadow=0;dashed=0;labelBackgroundColor=none;sketch=0;fillStyle=cross-hatch;strokeColor=#ffffff;fontFamily=Helvetica;fontSize=14;fontColor=#3333FF;align=left;" parent="oGBta0RcwHTypOkyzDNI-3" vertex="1">
          <mxGeometry width="140" height="20" as="geometry">
            <mxRectangle width="140" height="20" as="alternateBounds" />
          </mxGeometry>
        </mxCell>
        <mxCell id="oGBta0RcwHTypOkyzDNI-5" value="" style="shape=tableRow;horizontal=0;startSize=0;swimlaneHead=0;swimlaneBody=0;top=0;left=0;bottom=0;right=0;collapsible=0;dropTarget=0;fillColor=none;points=[[0,0.5],[1,0.5]];portConstraint=eastwest;rounded=1;shadow=0;dashed=0;labelBackgroundColor=none;sketch=0;fillStyle=cross-hatch;strokeColor=#ffffff;fontFamily=Helvetica;fontSize=14;fontColor=#3333FF;html=1;" parent="oGBta0RcwHTypOkyzDNI-2" vertex="1">
          <mxGeometry y="50" width="140" height="20" as="geometry" />
        </mxCell>
        <mxCell id="oGBta0RcwHTypOkyzDNI-6" value="&lt;font color=&quot;#000000&quot;&gt;list_t*&amp;nbsp; &amp;nbsp; &amp;nbsp; &amp;nbsp; &lt;b&gt;&lt;i&gt;routes&lt;/i&gt;&lt;/b&gt;&lt;/font&gt;" style="shape=partialRectangle;html=1;whiteSpace=wrap;connectable=0;overflow=hidden;fillColor=none;top=0;left=0;bottom=0;right=0;pointerEvents=1;rounded=1;shadow=0;dashed=0;labelBackgroundColor=none;sketch=0;fillStyle=cross-hatch;strokeColor=#ffffff;fontFamily=Helvetica;fontSize=14;fontColor=#3333FF;align=left;" parent="oGBta0RcwHTypOkyzDNI-5" vertex="1">
          <mxGeometry width="140" height="20" as="geometry">
            <mxRectangle width="140" height="20" as="alternateBounds" />
          </mxGeometry>
        </mxCell>
        <mxCell id="oGBta0RcwHTypOkyzDNI-7" value="" style="group" parent="1" vertex="1" connectable="0">
          <mxGeometry x="66.35" y="1250" width="146.5" height="130" as="geometry" />
        </mxCell>
        <mxCell id="oGBta0RcwHTypOkyzDNI-8" value="" style="group;rounded=1;glass=0;sketch=1;shadow=0;" parent="oGBta0RcwHTypOkyzDNI-7" vertex="1" connectable="0">
          <mxGeometry width="100" height="30" as="geometry" />
        </mxCell>
        <mxCell id="oGBta0RcwHTypOkyzDNI-9" value="&lt;font color=&quot;#ea6b66&quot; style=&quot;font-size: 10px;&quot;&gt;*datum&lt;/font&gt;" style="shape=process;whiteSpace=wrap;html=1;backgroundOutline=1;rounded=1;shadow=0;dashed=0;labelBackgroundColor=none;sketch=1;fillStyle=auto;strokeColor=#B09500;fontFamily=Helvetica;fontSize=14;fontColor=#000000;fillColor=#e3c800;arcSize=50;size=0.3;" parent="oGBta0RcwHTypOkyzDNI-8" vertex="1">
          <mxGeometry width="100" height="30" as="geometry" />
        </mxCell>
        <mxCell id="oGBta0RcwHTypOkyzDNI-10" value="&lt;font color=&quot;#ea6b66&quot; style=&quot;font-size: 10px;&quot;&gt;prev&lt;/font&gt;" style="text;html=1;strokeColor=none;fillColor=none;align=center;verticalAlign=middle;whiteSpace=wrap;rounded=0;shadow=0;dashed=0;labelBackgroundColor=none;sketch=0;fillStyle=cross-hatch;fontFamily=Helvetica;fontSize=14;fontColor=#3333FF;" parent="oGBta0RcwHTypOkyzDNI-8" vertex="1">
          <mxGeometry x="6" y="10" width="20" height="10" as="geometry" />
        </mxCell>
        <mxCell id="oGBta0RcwHTypOkyzDNI-11" value="&lt;font color=&quot;#ea6b66&quot; style=&quot;font-size: 10px;&quot;&gt;next&lt;/font&gt;" style="text;html=1;strokeColor=none;fillColor=none;align=center;verticalAlign=middle;whiteSpace=wrap;rounded=0;shadow=0;dashed=0;labelBackgroundColor=none;sketch=0;fillStyle=cross-hatch;fontFamily=Helvetica;fontSize=14;fontColor=#3333FF;" parent="oGBta0RcwHTypOkyzDNI-8" vertex="1">
          <mxGeometry x="75" y="10" width="20" height="10" as="geometry" />
        </mxCell>
        <mxCell id="oGBta0RcwHTypOkyzDNI-12" value="" style="group" parent="oGBta0RcwHTypOkyzDNI-7" vertex="1" connectable="0">
          <mxGeometry x="20" y="50" width="100" height="30" as="geometry" />
        </mxCell>
        <mxCell id="oGBta0RcwHTypOkyzDNI-13" value="&lt;font color=&quot;#ea6b66&quot; style=&quot;font-size: 10px;&quot;&gt;*datum&lt;/font&gt;" style="shape=process;whiteSpace=wrap;html=1;backgroundOutline=1;rounded=1;shadow=0;dashed=0;labelBackgroundColor=none;sketch=1;fillStyle=auto;strokeColor=#B09500;fontFamily=Helvetica;fontSize=14;fontColor=#000000;fillColor=#e3c800;arcSize=50;size=0.3;" parent="oGBta0RcwHTypOkyzDNI-12" vertex="1">
          <mxGeometry width="100" height="30" as="geometry" />
        </mxCell>
        <mxCell id="oGBta0RcwHTypOkyzDNI-14" value="&lt;font color=&quot;#ea6b66&quot; style=&quot;font-size: 10px;&quot;&gt;prev&lt;/font&gt;" style="text;html=1;strokeColor=none;fillColor=none;align=center;verticalAlign=middle;whiteSpace=wrap;rounded=0;shadow=0;dashed=0;labelBackgroundColor=none;sketch=0;fillStyle=cross-hatch;fontFamily=Helvetica;fontSize=14;fontColor=#3333FF;" parent="oGBta0RcwHTypOkyzDNI-12" vertex="1">
          <mxGeometry x="6" y="10" width="20" height="10" as="geometry" />
        </mxCell>
        <mxCell id="oGBta0RcwHTypOkyzDNI-15" value="&lt;font color=&quot;#ea6b66&quot; style=&quot;font-size: 10px;&quot;&gt;next&lt;/font&gt;" style="text;html=1;strokeColor=none;fillColor=none;align=center;verticalAlign=middle;whiteSpace=wrap;rounded=0;shadow=0;dashed=0;labelBackgroundColor=none;sketch=0;fillStyle=cross-hatch;fontFamily=Helvetica;fontSize=14;fontColor=#3333FF;" parent="oGBta0RcwHTypOkyzDNI-12" vertex="1">
          <mxGeometry x="75" y="10" width="20" height="10" as="geometry" />
        </mxCell>
        <mxCell id="oGBta0RcwHTypOkyzDNI-16" value="" style="group" parent="oGBta0RcwHTypOkyzDNI-7" vertex="1" connectable="0">
          <mxGeometry x="46.5" y="100" width="100" height="30" as="geometry" />
        </mxCell>
        <mxCell id="oGBta0RcwHTypOkyzDNI-17" value="&lt;font color=&quot;#ea6b66&quot; style=&quot;font-size: 10px;&quot;&gt;*datum&lt;/font&gt;" style="shape=process;whiteSpace=wrap;html=1;backgroundOutline=1;rounded=1;shadow=0;dashed=0;labelBackgroundColor=none;sketch=1;fillStyle=auto;strokeColor=#B09500;fontFamily=Helvetica;fontSize=14;fontColor=#000000;fillColor=#e3c800;arcSize=50;size=0.3;" parent="oGBta0RcwHTypOkyzDNI-16" vertex="1">
          <mxGeometry width="100" height="30" as="geometry" />
        </mxCell>
        <mxCell id="oGBta0RcwHTypOkyzDNI-18" value="&lt;font color=&quot;#ea6b66&quot; style=&quot;font-size: 10px;&quot;&gt;prev&lt;/font&gt;" style="text;html=1;strokeColor=none;fillColor=none;align=center;verticalAlign=middle;whiteSpace=wrap;rounded=0;shadow=0;dashed=0;labelBackgroundColor=none;sketch=0;fillStyle=cross-hatch;fontFamily=Helvetica;fontSize=14;fontColor=#3333FF;" parent="oGBta0RcwHTypOkyzDNI-16" vertex="1">
          <mxGeometry x="6" y="10" width="20" height="10" as="geometry" />
        </mxCell>
        <mxCell id="oGBta0RcwHTypOkyzDNI-19" value="&lt;font color=&quot;#ea6b66&quot; style=&quot;font-size: 10px;&quot;&gt;next&lt;/font&gt;" style="text;html=1;strokeColor=none;fillColor=none;align=center;verticalAlign=middle;whiteSpace=wrap;rounded=0;shadow=0;dashed=0;labelBackgroundColor=none;sketch=0;fillStyle=cross-hatch;fontFamily=Helvetica;fontSize=14;fontColor=#3333FF;" parent="oGBta0RcwHTypOkyzDNI-16" vertex="1">
          <mxGeometry x="75" y="10" width="20" height="10" as="geometry" />
        </mxCell>
        <mxCell id="oGBta0RcwHTypOkyzDNI-20" style="edgeStyle=orthogonalEdgeStyle;orthogonalLoop=1;jettySize=auto;html=1;exitX=1;exitY=0.5;exitDx=0;exitDy=0;entryX=0;entryY=0.5;entryDx=0;entryDy=0;fontFamily=Helvetica;fontSize=10;fontColor=#EA6B66;curved=1;startArrow=classic;startFill=1;" parent="oGBta0RcwHTypOkyzDNI-7" source="oGBta0RcwHTypOkyzDNI-9" target="oGBta0RcwHTypOkyzDNI-13" edge="1">
          <mxGeometry relative="1" as="geometry">
            <Array as="points">
              <mxPoint x="120" y="15" />
              <mxPoint x="120" y="40" />
              <mxPoint y="40" />
              <mxPoint y="65" />
            </Array>
          </mxGeometry>
        </mxCell>
        <mxCell id="oGBta0RcwHTypOkyzDNI-21" style="edgeStyle=orthogonalEdgeStyle;curved=1;orthogonalLoop=1;jettySize=auto;html=1;exitX=1;exitY=0.5;exitDx=0;exitDy=0;entryX=0;entryY=0.5;entryDx=0;entryDy=0;fontFamily=Helvetica;fontSize=10;fontColor=#EA6B66;startArrow=classic;startFill=1;" parent="oGBta0RcwHTypOkyzDNI-7" source="oGBta0RcwHTypOkyzDNI-13" target="oGBta0RcwHTypOkyzDNI-17" edge="1">
          <mxGeometry relative="1" as="geometry">
            <Array as="points">
              <mxPoint x="140" y="65" />
              <mxPoint x="140" y="90" />
              <mxPoint x="27" y="90" />
              <mxPoint x="27" y="115" />
            </Array>
          </mxGeometry>
        </mxCell>
        <mxCell id="oGBta0RcwHTypOkyzDNI-22" style="edgeStyle=orthogonalEdgeStyle;curved=1;orthogonalLoop=1;jettySize=auto;html=1;exitX=0;exitY=0.5;exitDx=0;exitDy=0;entryX=0;entryY=0.5;entryDx=0;entryDy=0;fontFamily=Helvetica;fontSize=10;fontColor=#EA6B66;startArrow=classic;startFill=1;endArrow=classic;endFill=1;" parent="1" source="oGBta0RcwHTypOkyzDNI-5" target="oGBta0RcwHTypOkyzDNI-9" edge="1">
          <mxGeometry relative="1" as="geometry">
            <Array as="points">
              <mxPoint x="30" y="1222" />
              <mxPoint x="30" y="1265" />
            </Array>
          </mxGeometry>
        </mxCell>
        <mxCell id="oGBta0RcwHTypOkyzDNI-23" value="&lt;b&gt;&lt;i&gt;http_route&lt;/i&gt;&lt;/b&gt;" style="shape=table;startSize=30;container=1;collapsible=0;childLayout=tableLayout;rounded=1;shadow=0;dashed=0;labelBackgroundColor=none;sketch=1;fillStyle=auto;strokeColor=#36393d;fontFamily=Helvetica;fontSize=16;fillColor=#ffff88;html=1;swimlaneFillColor=#FFE6CC;align=left;" parent="1" vertex="1">
          <mxGeometry x="250" y="1260" width="180" height="110" as="geometry" />
        </mxCell>
        <mxCell id="oGBta0RcwHTypOkyzDNI-24" value="" style="shape=tableRow;horizontal=0;startSize=0;swimlaneHead=0;swimlaneBody=0;top=0;left=0;bottom=0;right=0;collapsible=0;dropTarget=0;fillColor=none;points=[[0,0.5],[1,0.5]];portConstraint=eastwest;rounded=1;shadow=0;dashed=0;labelBackgroundColor=none;sketch=0;fillStyle=cross-hatch;strokeColor=#ffffff;fontFamily=Helvetica;fontSize=16;fontColor=#4C0099;html=1;" parent="oGBta0RcwHTypOkyzDNI-23" vertex="1">
          <mxGeometry y="30" width="180" height="32" as="geometry" />
        </mxCell>
        <mxCell id="oGBta0RcwHTypOkyzDNI-25" value="&lt;font style=&quot;font-size: 12px;&quot;&gt;http_on_request_t&amp;nbsp;&amp;nbsp;&lt;b&gt;&lt;i&gt;on_request&lt;/i&gt;&lt;/b&gt;&lt;/font&gt;" style="shape=partialRectangle;html=1;whiteSpace=wrap;connectable=0;overflow=hidden;fillColor=none;top=0;left=0;bottom=0;right=0;pointerEvents=1;rounded=1;shadow=0;dashed=0;labelBackgroundColor=none;sketch=0;fillStyle=cross-hatch;strokeColor=#ffffff;fontFamily=Helvetica;fontSize=16;fontColor=#4C0099;align=left;" parent="oGBta0RcwHTypOkyzDNI-24" vertex="1">
          <mxGeometry width="180" height="32" as="geometry">
            <mxRectangle width="180" height="32" as="alternateBounds" />
          </mxGeometry>
        </mxCell>
        <mxCell id="oGBta0RcwHTypOkyzDNI-26" value="" style="shape=tableRow;horizontal=0;startSize=0;swimlaneHead=0;swimlaneBody=0;top=0;left=0;bottom=0;right=0;collapsible=0;dropTarget=0;fillColor=none;points=[[0,0.5],[1,0.5]];portConstraint=eastwest;rounded=1;shadow=0;dashed=0;labelBackgroundColor=none;sketch=0;fillStyle=cross-hatch;strokeColor=#ffffff;fontFamily=Helvetica;fontSize=16;fontColor=#4C0099;html=1;" parent="oGBta0RcwHTypOkyzDNI-23" vertex="1">
          <mxGeometry y="62" width="180" height="22" as="geometry" />
        </mxCell>
        <mxCell id="oGBta0RcwHTypOkyzDNI-27" value="&lt;font style=&quot;font-size: 12px;&quot;&gt;char*&amp;nbsp; &amp;nbsp; &amp;nbsp; &amp;nbsp; &amp;nbsp; &amp;nbsp; &amp;nbsp;&lt;span style=&quot;white-space: pre;&quot;&gt; &lt;/span&gt;&lt;span style=&quot;white-space: pre;&quot;&gt; &lt;/span&gt;&lt;b&gt;&lt;i&gt;path&lt;/i&gt;&lt;/b&gt;&lt;/font&gt;" style="shape=partialRectangle;html=1;whiteSpace=wrap;connectable=0;overflow=hidden;fillColor=none;top=0;left=0;bottom=0;right=0;pointerEvents=1;rounded=1;shadow=0;dashed=0;labelBackgroundColor=none;sketch=0;fillStyle=cross-hatch;strokeColor=#ffffff;fontFamily=Helvetica;fontSize=16;fontColor=#4C0099;align=left;" parent="oGBta0RcwHTypOkyzDNI-26" vertex="1">
          <mxGeometry width="180" height="22" as="geometry">
            <mxRectangle width="180" height="22" as="alternateBounds" />
          </mxGeometry>
        </mxCell>
        <mxCell id="oGBta0RcwHTypOkyzDNI-28" value="" style="shape=tableRow;horizontal=0;startSize=0;swimlaneHead=0;swimlaneBody=0;top=0;left=0;bottom=0;right=0;collapsible=0;dropTarget=0;fillColor=none;points=[[0,0.5],[1,0.5]];portConstraint=eastwest;rounded=1;shadow=0;dashed=0;labelBackgroundColor=none;sketch=0;fillStyle=cross-hatch;strokeColor=#ffffff;fontFamily=Helvetica;fontSize=16;fontColor=#4C0099;html=1;" parent="oGBta0RcwHTypOkyzDNI-23" vertex="1">
          <mxGeometry y="84" width="180" height="26" as="geometry" />
        </mxCell>
        <mxCell id="oGBta0RcwHTypOkyzDNI-29" value="&lt;font style=&quot;font-size: 12px;&quot;&gt;void*&amp;nbsp; &amp;nbsp; &amp;nbsp; &amp;nbsp; &amp;nbsp; &amp;nbsp; &lt;b&gt;&lt;i&gt;&lt;font style=&quot;font-size: 12px;&quot;&gt;&amp;nbsp;&lt;span style=&quot;white-space: pre;&quot;&gt; &lt;/span&gt;&lt;span style=&quot;white-space: pre;&quot;&gt; &lt;/span&gt;data&lt;/font&gt;&lt;/i&gt;&lt;/b&gt;&lt;/font&gt;" style="shape=partialRectangle;html=1;whiteSpace=wrap;connectable=0;overflow=hidden;fillColor=none;top=0;left=0;bottom=0;right=0;pointerEvents=1;rounded=1;shadow=0;dashed=0;labelBackgroundColor=none;sketch=0;fillStyle=cross-hatch;strokeColor=#ffffff;fontFamily=Helvetica;fontSize=16;fontColor=#4C0099;align=left;" parent="oGBta0RcwHTypOkyzDNI-28" vertex="1">
          <mxGeometry width="180" height="26" as="geometry">
            <mxRectangle width="180" height="26" as="alternateBounds" />
          </mxGeometry>
        </mxCell>
        <mxCell id="oGBta0RcwHTypOkyzDNI-30" style="edgeStyle=elbowEdgeStyle;curved=1;sketch=1;orthogonalLoop=1;jettySize=auto;elbow=vertical;html=1;exitX=0.5;exitY=1;exitDx=0;exitDy=0;entryX=0.003;entryY=0.838;entryDx=0;entryDy=0;shadow=1;dashed=1;strokeColor=#000000;strokeWidth=1;fontFamily=Helvetica;fontSize=12;fontColor=#4C0099;startArrow=halfCircle;startFill=0;endArrow=block;endFill=1;entryPerimeter=0;" parent="1" source="oGBta0RcwHTypOkyzDNI-17" target="oGBta0RcwHTypOkyzDNI-28" edge="1">
          <mxGeometry relative="1" as="geometry">
            <Array as="points">
              <mxPoint x="210" y="1400" />
            </Array>
          </mxGeometry>
        </mxCell>
        <mxCell id="oGBta0RcwHTypOkyzDNI-31" value="&lt;i&gt;&lt;b&gt;Callback function for handling incoming HTTP requests&lt;/b&gt;&lt;/i&gt;" style="text;whiteSpace=wrap;html=1;fontSize=12;fontFamily=Helvetica;align=center;fillColor=default;strokeColor=#36393d;sketch=1;glass=0;rounded=1;fillStyle=cross-hatch;" parent="1" vertex="1">
          <mxGeometry x="212.85" y="1225" width="330" height="25" as="geometry" />
        </mxCell>
        <mxCell id="oGBta0RcwHTypOkyzDNI-32" style="edgeStyle=elbowEdgeStyle;curved=1;sketch=1;orthogonalLoop=1;jettySize=auto;elbow=vertical;html=1;exitX=1;exitY=0.5;exitDx=0;exitDy=0;entryX=0.75;entryY=1;entryDx=0;entryDy=0;shadow=1;dashed=1;strokeColor=#000000;strokeWidth=1;fontFamily=Helvetica;fontSize=12;fontColor=#4C0099;startArrow=halfCircle;startFill=0;endArrow=block;endFill=1;" parent="1" source="oGBta0RcwHTypOkyzDNI-24" target="oGBta0RcwHTypOkyzDNI-31" edge="1">
          <mxGeometry relative="1" as="geometry">
            <Array as="points">
              <mxPoint x="460" y="1306" />
            </Array>
          </mxGeometry>
        </mxCell>
        <mxCell id="oGBta0RcwHTypOkyzDNI-33" value="&lt;b&gt;&lt;i&gt;&lt;font style=&quot;font-size: 14px;&quot;&gt;http_server_t&lt;/font&gt;&lt;/i&gt;&lt;/b&gt;" style="shape=table;startSize=30;container=1;collapsible=0;childLayout=tableLayout;rounded=1;shadow=0;dashed=0;labelBackgroundColor=none;sketch=1;fillStyle=auto;strokeColor=#36393d;fontFamily=Helvetica;fontSize=12;fillColor=#cce5ff;html=1;align=left;swimlaneFillColor=#E1D5E7;" parent="1" vertex="1">
          <mxGeometry x="-297" y="980" width="300" height="335" as="geometry" />
        </mxCell>
        <mxCell id="oGBta0RcwHTypOkyzDNI-34" value="" style="shape=tableRow;horizontal=0;startSize=0;swimlaneHead=0;swimlaneBody=0;top=0;left=0;bottom=0;right=0;collapsible=0;dropTarget=0;fillColor=none;points=[[0,0.5],[1,0.5]];portConstraint=eastwest;rounded=1;shadow=0;dashed=0;labelBackgroundColor=none;sketch=0;fillStyle=cross-hatch;strokeColor=#ffffff;fontFamily=Helvetica;fontSize=12;fontColor=#4C0099;html=1;" parent="oGBta0RcwHTypOkyzDNI-33" vertex="1">
          <mxGeometry y="30" width="300" height="25" as="geometry" />
        </mxCell>
        <mxCell id="oGBta0RcwHTypOkyzDNI-35" value="&lt;span style=&quot;font-size: 14px;&quot;&gt;http_server_start_t&amp;nbsp; &amp;nbsp; &amp;nbsp; &amp;nbsp; &amp;nbsp; &amp;nbsp; &amp;nbsp; &amp;nbsp;&amp;nbsp;&lt;b&gt;&lt;i&gt;start&lt;/i&gt;&lt;/b&gt;&lt;/span&gt;" style="shape=partialRectangle;html=1;whiteSpace=wrap;connectable=0;overflow=hidden;fillColor=none;top=0;left=0;bottom=0;right=0;pointerEvents=1;rounded=1;shadow=0;dashed=0;labelBackgroundColor=none;sketch=0;fillStyle=cross-hatch;strokeColor=#ffffff;fontFamily=Helvetica;fontSize=12;fontColor=#000000;align=left;" parent="oGBta0RcwHTypOkyzDNI-34" vertex="1">
          <mxGeometry width="300" height="25" as="geometry">
            <mxRectangle width="300" height="25" as="alternateBounds" />
          </mxGeometry>
        </mxCell>
        <mxCell id="oGBta0RcwHTypOkyzDNI-36" value="" style="shape=tableRow;horizontal=0;startSize=0;swimlaneHead=0;swimlaneBody=0;top=0;left=0;bottom=0;right=0;collapsible=0;dropTarget=0;fillColor=none;points=[[0,0.5],[1,0.5]];portConstraint=eastwest;rounded=1;shadow=0;dashed=0;labelBackgroundColor=none;sketch=0;fillStyle=cross-hatch;strokeColor=#ffffff;fontFamily=Helvetica;fontSize=14;fontColor=#000000;html=1;" parent="oGBta0RcwHTypOkyzDNI-33" vertex="1">
          <mxGeometry y="55" width="300" height="27" as="geometry" />
        </mxCell>
        <mxCell id="oGBta0RcwHTypOkyzDNI-37" value="http_server_stop_t&amp;nbsp; &amp;nbsp; &amp;nbsp; &amp;nbsp; &amp;nbsp; &amp;nbsp; &amp;nbsp; &amp;nbsp;&amp;nbsp;&lt;b&gt;&lt;i&gt;stop&lt;/i&gt;&lt;/b&gt;" style="shape=partialRectangle;html=1;whiteSpace=wrap;connectable=0;overflow=hidden;fillColor=none;top=0;left=0;bottom=0;right=0;pointerEvents=1;rounded=1;shadow=0;dashed=0;labelBackgroundColor=none;sketch=0;fillStyle=cross-hatch;strokeColor=#ffffff;fontFamily=Helvetica;fontSize=14;fontColor=#000000;align=left;" parent="oGBta0RcwHTypOkyzDNI-36" vertex="1">
          <mxGeometry width="300" height="27" as="geometry">
            <mxRectangle width="300" height="27" as="alternateBounds" />
          </mxGeometry>
        </mxCell>
        <mxCell id="oGBta0RcwHTypOkyzDNI-38" value="" style="shape=tableRow;horizontal=0;startSize=0;swimlaneHead=0;swimlaneBody=0;top=0;left=0;bottom=0;right=0;collapsible=0;dropTarget=0;fillColor=none;points=[[0,0.5],[1,0.5]];portConstraint=eastwest;rounded=1;shadow=0;dashed=0;labelBackgroundColor=none;sketch=0;fillStyle=cross-hatch;strokeColor=#ffffff;fontFamily=Helvetica;fontSize=14;fontColor=#000000;html=1;" parent="oGBta0RcwHTypOkyzDNI-33" vertex="1">
          <mxGeometry y="82" width="300" height="25" as="geometry" />
        </mxCell>
        <mxCell id="oGBta0RcwHTypOkyzDNI-39" value="http_server_destroy_t&amp;nbsp; &amp;nbsp; &amp;nbsp; &amp;nbsp; &amp;nbsp; &amp;nbsp;&lt;b&gt;&lt;i&gt;destroy&lt;/i&gt;&lt;/b&gt;" style="shape=partialRectangle;html=1;whiteSpace=wrap;connectable=0;overflow=hidden;fillColor=none;top=0;left=0;bottom=0;right=0;pointerEvents=1;rounded=1;shadow=0;dashed=0;labelBackgroundColor=none;sketch=0;fillStyle=cross-hatch;strokeColor=#ffffff;fontFamily=Helvetica;fontSize=14;fontColor=#000000;align=left;" parent="oGBta0RcwHTypOkyzDNI-38" vertex="1">
          <mxGeometry width="300" height="25" as="geometry">
            <mxRectangle width="300" height="25" as="alternateBounds" />
          </mxGeometry>
        </mxCell>
        <mxCell id="oGBta0RcwHTypOkyzDNI-40" style="shape=tableRow;horizontal=0;startSize=0;swimlaneHead=0;swimlaneBody=0;top=0;left=0;bottom=0;right=0;collapsible=0;dropTarget=0;fillColor=none;points=[[0,0.5],[1,0.5]];portConstraint=eastwest;rounded=1;shadow=0;dashed=0;labelBackgroundColor=none;sketch=0;fillStyle=cross-hatch;strokeColor=#ffffff;fontFamily=Helvetica;fontSize=14;fontColor=#000000;html=1;" parent="oGBta0RcwHTypOkyzDNI-33" vertex="1">
          <mxGeometry y="107" width="300" height="25" as="geometry" />
        </mxCell>
        <mxCell id="oGBta0RcwHTypOkyzDNI-41" value="http_server_instance_t&amp;nbsp; &amp;nbsp; &amp;nbsp; &amp;nbsp; &amp;nbsp;&lt;b&gt;&lt;i&gt;instance&lt;/i&gt;&lt;/b&gt;" style="shape=partialRectangle;html=1;whiteSpace=wrap;connectable=0;overflow=hidden;fillColor=none;top=0;left=0;bottom=0;right=0;pointerEvents=1;rounded=1;shadow=0;dashed=0;labelBackgroundColor=none;sketch=0;fillStyle=cross-hatch;strokeColor=#ffffff;fontFamily=Helvetica;fontSize=14;fontColor=#000000;align=left;" parent="oGBta0RcwHTypOkyzDNI-40" vertex="1">
          <mxGeometry width="300" height="25" as="geometry">
            <mxRectangle width="300" height="25" as="alternateBounds" />
          </mxGeometry>
        </mxCell>
        <mxCell id="oGBta0RcwHTypOkyzDNI-42" style="shape=tableRow;horizontal=0;startSize=0;swimlaneHead=0;swimlaneBody=0;top=0;left=0;bottom=0;right=0;collapsible=0;dropTarget=0;fillColor=none;points=[[0,0.5],[1,0.5]];portConstraint=eastwest;rounded=1;shadow=0;dashed=0;labelBackgroundColor=none;sketch=0;fillStyle=cross-hatch;strokeColor=#ffffff;fontFamily=Helvetica;fontSize=14;fontColor=#000000;html=1;" parent="oGBta0RcwHTypOkyzDNI-33" vertex="1">
          <mxGeometry y="132" width="300" height="25" as="geometry" />
        </mxCell>
        <mxCell id="oGBta0RcwHTypOkyzDNI-43" value="evl_t*&amp;nbsp; &amp;nbsp; &amp;nbsp; &amp;nbsp; &amp;nbsp;&lt;span style=&quot;white-space: pre;&quot;&gt; &lt;/span&gt;&amp;nbsp; &amp;nbsp; &amp;nbsp; &amp;nbsp; &amp;nbsp; &amp;nbsp; &amp;nbsp; &amp;nbsp; &amp;nbsp; &amp;nbsp; &amp;nbsp;&lt;b&gt;&lt;i&gt;evl&lt;/i&gt;&lt;/b&gt;" style="shape=partialRectangle;html=1;whiteSpace=wrap;connectable=0;overflow=hidden;fillColor=none;top=0;left=0;bottom=0;right=0;pointerEvents=1;rounded=1;shadow=0;dashed=0;labelBackgroundColor=none;sketch=0;fillStyle=cross-hatch;strokeColor=#ffffff;fontFamily=Helvetica;fontSize=14;fontColor=#000000;align=left;" parent="oGBta0RcwHTypOkyzDNI-42" vertex="1">
          <mxGeometry width="300" height="25" as="geometry">
            <mxRectangle width="300" height="25" as="alternateBounds" />
          </mxGeometry>
        </mxCell>
        <mxCell id="oGBta0RcwHTypOkyzDNI-44" style="shape=tableRow;horizontal=0;startSize=0;swimlaneHead=0;swimlaneBody=0;top=0;left=0;bottom=0;right=0;collapsible=0;dropTarget=0;fillColor=none;points=[[0,0.5],[1,0.5]];portConstraint=eastwest;rounded=1;shadow=0;dashed=0;labelBackgroundColor=none;sketch=0;fillStyle=cross-hatch;strokeColor=#ffffff;fontFamily=Helvetica;fontSize=14;fontColor=#000000;html=1;" parent="oGBta0RcwHTypOkyzDNI-33" vertex="1">
          <mxGeometry y="157" width="300" height="25" as="geometry" />
        </mxCell>
        <mxCell id="oGBta0RcwHTypOkyzDNI-45" value="intrusive_dlist_t&amp;nbsp; &amp;nbsp; &amp;nbsp; &amp;nbsp; &amp;nbsp; &amp;nbsp; &amp;nbsp; &amp;nbsp; &amp;nbsp; &amp;nbsp;&amp;nbsp;&lt;b&gt;&lt;i&gt;connection_list&lt;/i&gt;&lt;/b&gt;" style="shape=partialRectangle;html=1;whiteSpace=wrap;connectable=0;overflow=hidden;fillColor=none;top=0;left=0;bottom=0;right=0;pointerEvents=1;rounded=1;shadow=0;dashed=0;labelBackgroundColor=none;sketch=0;fillStyle=cross-hatch;strokeColor=#ffffff;fontFamily=Helvetica;fontSize=14;fontColor=#000000;align=left;" parent="oGBta0RcwHTypOkyzDNI-44" vertex="1">
          <mxGeometry width="300" height="25" as="geometry">
            <mxRectangle width="300" height="25" as="alternateBounds" />
          </mxGeometry>
        </mxCell>
        <mxCell id="oGBta0RcwHTypOkyzDNI-46" value="" style="shape=tableRow;horizontal=0;startSize=0;swimlaneHead=0;swimlaneBody=0;top=0;left=0;bottom=0;right=0;collapsible=0;dropTarget=0;fillColor=none;points=[[0,0.5],[1,0.5]];portConstraint=eastwest;rounded=1;shadow=0;dashed=0;labelBackgroundColor=none;sketch=0;fillStyle=cross-hatch;strokeColor=#ffffff;fontFamily=Helvetica;fontSize=14;fontColor=#000000;html=1;" parent="oGBta0RcwHTypOkyzDNI-33" vertex="1">
          <mxGeometry y="182" width="300" height="26" as="geometry" />
        </mxCell>
        <mxCell id="oGBta0RcwHTypOkyzDNI-47" value="http_router_t*&amp;nbsp; &amp;nbsp; &amp;nbsp; &amp;nbsp; &lt;span style=&quot;white-space: pre;&quot;&gt; &lt;/span&gt;&lt;span style=&quot;white-space: pre;&quot;&gt; &lt;/span&gt;&amp;nbsp; &amp;nbsp; &amp;nbsp;&lt;b style=&quot;font-size: 14px;&quot;&gt;&lt;i style=&quot;font-size: 14px;&quot;&gt;router&lt;/i&gt;&lt;/b&gt;" style="shape=partialRectangle;html=1;whiteSpace=wrap;connectable=0;overflow=hidden;fillColor=none;top=0;left=0;bottom=0;right=0;pointerEvents=1;rounded=1;shadow=0;dashed=0;labelBackgroundColor=none;sketch=0;fillStyle=cross-hatch;strokeColor=#ffffff;fontFamily=Helvetica;fontSize=14;fontColor=#000000;align=left;" parent="oGBta0RcwHTypOkyzDNI-46" vertex="1">
          <mxGeometry width="300" height="26" as="geometry">
            <mxRectangle width="300" height="26" as="alternateBounds" />
          </mxGeometry>
        </mxCell>
        <mxCell id="oGBta0RcwHTypOkyzDNI-48" value="" style="shape=tableRow;horizontal=0;startSize=0;swimlaneHead=0;swimlaneBody=0;top=0;left=0;bottom=0;right=0;collapsible=0;dropTarget=0;fillColor=none;points=[[0,0.5],[1,0.5]];portConstraint=eastwest;rounded=1;shadow=0;dashed=0;labelBackgroundColor=none;sketch=0;fillStyle=cross-hatch;strokeColor=#ffffff;fontFamily=Helvetica;fontSize=14;fontColor=#000000;html=1;" parent="oGBta0RcwHTypOkyzDNI-33" vertex="1">
          <mxGeometry y="208" width="300" height="25" as="geometry" />
        </mxCell>
        <mxCell id="oGBta0RcwHTypOkyzDNI-49" value="avl_tree_t*&amp;nbsp; &lt;span style=&quot;white-space: pre;&quot;&gt; &lt;/span&gt;&lt;span style=&quot;white-space: pre;&quot;&gt; &lt;/span&gt;&lt;span style=&quot;white-space: pre;&quot;&gt; &lt;/span&gt;&amp;nbsp; &amp;nbsp; &amp;nbsp;&lt;b&gt;&lt;i&gt;stats&lt;/i&gt;&lt;/b&gt;" style="shape=partialRectangle;html=1;whiteSpace=wrap;connectable=0;overflow=hidden;fillColor=none;top=0;left=0;bottom=0;right=0;pointerEvents=1;rounded=1;shadow=0;dashed=0;labelBackgroundColor=none;sketch=0;fillStyle=cross-hatch;strokeColor=#ffffff;fontFamily=Helvetica;fontSize=14;fontColor=#000000;align=left;" parent="oGBta0RcwHTypOkyzDNI-48" vertex="1">
          <mxGeometry width="300" height="25" as="geometry">
            <mxRectangle width="300" height="25" as="alternateBounds" />
          </mxGeometry>
        </mxCell>
        <mxCell id="oGBta0RcwHTypOkyzDNI-50" value="" style="shape=tableRow;horizontal=0;startSize=0;swimlaneHead=0;swimlaneBody=0;top=0;left=0;bottom=0;right=0;collapsible=0;dropTarget=0;fillColor=none;points=[[0,0.5],[1,0.5]];portConstraint=eastwest;rounded=1;shadow=0;dashed=0;labelBackgroundColor=none;sketch=0;fillStyle=cross-hatch;strokeColor=#ffffff;fontFamily=Helvetica;fontSize=14;fontColor=#000000;html=1;" parent="oGBta0RcwHTypOkyzDNI-33" vertex="1">
          <mxGeometry y="233" width="300" height="27" as="geometry" />
        </mxCell>
        <mxCell id="oGBta0RcwHTypOkyzDNI-51" value="size_t&amp;nbsp; &amp;nbsp; &amp;nbsp; &amp;nbsp; &amp;nbsp;&lt;span style=&quot;white-space: pre;&quot;&gt; &lt;/span&gt;&lt;span style=&quot;white-space: pre;&quot;&gt; &lt;/span&gt;&lt;span style=&quot;white-space: pre;&quot;&gt; &lt;/span&gt;&amp;nbsp; &amp;nbsp; &amp;nbsp;&lt;b&gt;&lt;i&gt;connections&lt;/i&gt;&lt;/b&gt;" style="shape=partialRectangle;html=1;whiteSpace=wrap;connectable=0;overflow=hidden;fillColor=none;top=0;left=0;bottom=0;right=0;pointerEvents=1;rounded=1;shadow=0;dashed=0;labelBackgroundColor=none;sketch=0;fillStyle=cross-hatch;strokeColor=#ffffff;fontFamily=Helvetica;fontSize=14;fontColor=#000000;align=left;" parent="oGBta0RcwHTypOkyzDNI-50" vertex="1">
          <mxGeometry width="300" height="27" as="geometry">
            <mxRectangle width="300" height="27" as="alternateBounds" />
          </mxGeometry>
        </mxCell>
        <mxCell id="oGBta0RcwHTypOkyzDNI-52" value="" style="shape=tableRow;horizontal=0;startSize=0;swimlaneHead=0;swimlaneBody=0;top=0;left=0;bottom=0;right=0;collapsible=0;dropTarget=0;fillColor=none;points=[[0,0.5],[1,0.5]];portConstraint=eastwest;rounded=1;shadow=0;dashed=0;labelBackgroundColor=none;sketch=0;fillStyle=cross-hatch;strokeColor=#ffffff;fontFamily=Helvetica;fontSize=14;fontColor=#000000;html=1;" parent="oGBta0RcwHTypOkyzDNI-33" vertex="1">
          <mxGeometry y="260" width="300" height="25" as="geometry" />
        </mxCell>
        <mxCell id="oGBta0RcwHTypOkyzDNI-53" value="evl_defer_t&amp;nbsp; &amp;nbsp; &amp;nbsp;&lt;span style=&quot;white-space: pre;&quot;&gt; &lt;/span&gt;&lt;span style=&quot;white-space: pre;&quot;&gt; &lt;/span&gt;&lt;span style=&quot;white-space: pre;&quot;&gt; &lt;/span&gt;&amp;nbsp; &amp;nbsp; &amp;nbsp;&lt;b&gt;&lt;i&gt;defer&lt;/i&gt;&lt;/b&gt;" style="shape=partialRectangle;html=1;whiteSpace=wrap;connectable=0;overflow=hidden;fillColor=none;top=0;left=0;bottom=0;right=0;pointerEvents=1;rounded=1;shadow=0;dashed=0;labelBackgroundColor=none;sketch=0;fillStyle=cross-hatch;strokeColor=#ffffff;fontFamily=Helvetica;fontSize=14;fontColor=#000000;align=left;" parent="oGBta0RcwHTypOkyzDNI-52" vertex="1">
          <mxGeometry width="300" height="25" as="geometry">
            <mxRectangle width="300" height="25" as="alternateBounds" />
          </mxGeometry>
        </mxCell>
        <mxCell id="oGBta0RcwHTypOkyzDNI-54" style="shape=tableRow;horizontal=0;startSize=0;swimlaneHead=0;swimlaneBody=0;top=0;left=0;bottom=0;right=0;collapsible=0;dropTarget=0;fillColor=none;points=[[0,0.5],[1,0.5]];portConstraint=eastwest;rounded=1;shadow=0;dashed=0;labelBackgroundColor=none;sketch=0;fillStyle=cross-hatch;strokeColor=#ffffff;fontFamily=Helvetica;fontSize=14;fontColor=#000000;html=1;" parent="oGBta0RcwHTypOkyzDNI-33" vertex="1">
          <mxGeometry y="285" width="300" height="25" as="geometry" />
        </mxCell>
        <mxCell id="oGBta0RcwHTypOkyzDNI-55" value="http_server_on_stopped_t&amp;nbsp; &amp;nbsp;&lt;b&gt;&lt;i&gt;on_stopped&lt;/i&gt;&lt;/b&gt;" style="shape=partialRectangle;html=1;whiteSpace=wrap;connectable=0;overflow=hidden;fillColor=none;top=0;left=0;bottom=0;right=0;pointerEvents=1;rounded=1;shadow=0;dashed=0;labelBackgroundColor=none;sketch=0;fillStyle=cross-hatch;strokeColor=#ffffff;fontFamily=Helvetica;fontSize=14;fontColor=#000000;align=left;" parent="oGBta0RcwHTypOkyzDNI-54" vertex="1">
          <mxGeometry width="300" height="25" as="geometry">
            <mxRectangle width="300" height="25" as="alternateBounds" />
          </mxGeometry>
        </mxCell>
        <mxCell id="oGBta0RcwHTypOkyzDNI-56" style="shape=tableRow;horizontal=0;startSize=0;swimlaneHead=0;swimlaneBody=0;top=0;left=0;bottom=0;right=0;collapsible=0;dropTarget=0;fillColor=none;points=[[0,0.5],[1,0.5]];portConstraint=eastwest;rounded=1;shadow=0;dashed=0;labelBackgroundColor=none;sketch=0;fillStyle=cross-hatch;strokeColor=#ffffff;fontFamily=Helvetica;fontSize=14;fontColor=#000000;html=1;" parent="oGBta0RcwHTypOkyzDNI-33" vertex="1">
          <mxGeometry y="310" width="300" height="25" as="geometry" />
        </mxCell>
        <mxCell id="oGBta0RcwHTypOkyzDNI-57" value="void*&amp;nbsp; &amp;nbsp; &amp;nbsp; &amp;nbsp; &amp;nbsp; &amp;nbsp; &amp;nbsp; &amp;nbsp; &amp;nbsp; &amp;nbsp; &lt;span style=&quot;white-space: pre;&quot;&gt; &lt;/span&gt;&lt;span style=&quot;white-space: pre;&quot;&gt; &lt;/span&gt;&amp;nbsp; &amp;nbsp; &amp;nbsp;&lt;b&gt;&lt;i&gt;on_stopped_data&lt;/i&gt;&lt;/b&gt;" style="shape=partialRectangle;html=1;whiteSpace=wrap;connectable=0;overflow=hidden;fillColor=none;top=0;left=0;bottom=0;right=0;pointerEvents=1;rounded=1;shadow=0;dashed=0;labelBackgroundColor=none;sketch=0;fillStyle=cross-hatch;strokeColor=#ffffff;fontFamily=Helvetica;fontSize=14;fontColor=#000000;align=left;" parent="oGBta0RcwHTypOkyzDNI-56" vertex="1">
          <mxGeometry width="300" height="25" as="geometry">
            <mxRectangle width="300" height="25" as="alternateBounds" />
          </mxGeometry>
        </mxCell>
        <mxCell id="oGBta0RcwHTypOkyzDNI-58" value="&lt;b&gt;&lt;i&gt;&lt;font style=&quot;font-size: 16px;&quot;&gt;http_server_stream_t&lt;/font&gt;&lt;/i&gt;&lt;/b&gt;" style="shape=table;startSize=50;container=1;collapsible=0;childLayout=tableLayout;rounded=1;shadow=0;dashed=0;labelBackgroundColor=none;sketch=1;fillStyle=zigzag;strokeColor=#d79b00;fontFamily=Helvetica;fontSize=14;fillColor=#ffcd28;html=1;align=left;swimlaneFillColor=#D5E8D4;gradientColor=#ffa500;" parent="1" vertex="1">
          <mxGeometry x="-560" y="940" width="230" height="190" as="geometry" />
        </mxCell>
        <mxCell id="oGBta0RcwHTypOkyzDNI-59" value="" style="shape=tableRow;horizontal=0;startSize=0;swimlaneHead=0;swimlaneBody=0;top=0;left=0;bottom=0;right=0;collapsible=0;dropTarget=0;fillColor=none;points=[[0,0.5],[1,0.5]];portConstraint=eastwest;rounded=1;shadow=0;dashed=0;labelBackgroundColor=none;sketch=0;fillStyle=cross-hatch;strokeColor=#ffffff;fontFamily=Helvetica;fontSize=14;fontColor=#000000;html=1;" parent="oGBta0RcwHTypOkyzDNI-58" vertex="1">
          <mxGeometry y="50" width="230" height="28" as="geometry" />
        </mxCell>
        <mxCell id="oGBta0RcwHTypOkyzDNI-60" value="http_server_t&amp;nbsp; &amp;nbsp; &amp;nbsp;&lt;span style=&quot;white-space: pre;&quot;&gt; &lt;/span&gt;&lt;span style=&quot;white-space: pre;&quot;&gt; &lt;/span&gt;&amp;nbsp; &amp;nbsp; &amp;nbsp;&amp;nbsp;&lt;b&gt;&lt;i&gt;server&lt;/i&gt;&lt;/b&gt;" style="shape=partialRectangle;html=1;whiteSpace=wrap;connectable=0;overflow=hidden;fillColor=none;top=0;left=0;bottom=0;right=0;pointerEvents=1;rounded=1;shadow=0;dashed=0;labelBackgroundColor=none;sketch=0;fillStyle=cross-hatch;strokeColor=#ffffff;fontFamily=Helvetica;fontSize=14;fontColor=#000000;align=left;" parent="oGBta0RcwHTypOkyzDNI-59" vertex="1">
          <mxGeometry width="230" height="28" as="geometry">
            <mxRectangle width="230" height="28" as="alternateBounds" />
          </mxGeometry>
        </mxCell>
        <mxCell id="oGBta0RcwHTypOkyzDNI-61" value="" style="shape=tableRow;horizontal=0;startSize=0;swimlaneHead=0;swimlaneBody=0;top=0;left=0;bottom=0;right=0;collapsible=0;dropTarget=0;fillColor=none;points=[[0,0.5],[1,0.5]];portConstraint=eastwest;rounded=1;shadow=0;dashed=0;labelBackgroundColor=none;sketch=0;fillStyle=cross-hatch;strokeColor=#ffffff;fontFamily=Helvetica;fontSize=14;fontColor=#000000;html=1;" parent="oGBta0RcwHTypOkyzDNI-58" vertex="1">
          <mxGeometry y="78" width="230" height="28" as="geometry" />
        </mxCell>
        <mxCell id="oGBta0RcwHTypOkyzDNI-62" value="evlsock_stream_socket_t*&amp;nbsp; &amp;nbsp;&amp;nbsp;&lt;b&gt;&lt;i&gt;stream&lt;/i&gt;&lt;/b&gt;" style="shape=partialRectangle;html=1;whiteSpace=wrap;connectable=0;overflow=hidden;fillColor=none;top=0;left=0;bottom=0;right=0;pointerEvents=1;rounded=1;shadow=0;dashed=0;labelBackgroundColor=none;sketch=0;fillStyle=cross-hatch;strokeColor=#ffffff;fontFamily=Helvetica;fontSize=14;fontColor=#000000;align=left;" parent="oGBta0RcwHTypOkyzDNI-61" vertex="1">
          <mxGeometry width="230" height="28" as="geometry">
            <mxRectangle width="230" height="28" as="alternateBounds" />
          </mxGeometry>
        </mxCell>
        <mxCell id="oGBta0RcwHTypOkyzDNI-63" value="" style="shape=tableRow;horizontal=0;startSize=0;swimlaneHead=0;swimlaneBody=0;top=0;left=0;bottom=0;right=0;collapsible=0;dropTarget=0;fillColor=none;points=[[0,0.5],[1,0.5]];portConstraint=eastwest;rounded=1;shadow=0;dashed=0;labelBackgroundColor=none;sketch=0;fillStyle=cross-hatch;strokeColor=#ffffff;fontFamily=Helvetica;fontSize=14;fontColor=#000000;html=1;" parent="oGBta0RcwHTypOkyzDNI-58" vertex="1">
          <mxGeometry y="106" width="230" height="28" as="geometry" />
        </mxCell>
        <mxCell id="oGBta0RcwHTypOkyzDNI-64" value="http_listener_t*&amp;nbsp; &lt;span style=&quot;white-space: pre;&quot;&gt; &lt;/span&gt;&lt;b&gt;&lt;i&gt;listener&lt;/i&gt;&lt;/b&gt;" style="shape=partialRectangle;html=1;whiteSpace=wrap;connectable=0;overflow=hidden;fillColor=none;top=0;left=0;bottom=0;right=0;pointerEvents=1;rounded=1;shadow=0;dashed=0;labelBackgroundColor=none;sketch=0;fillStyle=cross-hatch;strokeColor=#ffffff;fontFamily=Helvetica;fontSize=14;fontColor=#000000;align=left;" parent="oGBta0RcwHTypOkyzDNI-63" vertex="1">
          <mxGeometry width="230" height="28" as="geometry">
            <mxRectangle width="230" height="28" as="alternateBounds" />
          </mxGeometry>
        </mxCell>
        <mxCell id="oGBta0RcwHTypOkyzDNI-65" value="" style="shape=tableRow;horizontal=0;startSize=0;swimlaneHead=0;swimlaneBody=0;top=0;left=0;bottom=0;right=0;collapsible=0;dropTarget=0;fillColor=none;points=[[0,0.5],[1,0.5]];portConstraint=eastwest;rounded=1;shadow=0;dashed=0;labelBackgroundColor=none;sketch=0;fillStyle=cross-hatch;strokeColor=#ffffff;fontFamily=Helvetica;fontSize=14;fontColor=#000000;html=1;" parent="oGBta0RcwHTypOkyzDNI-58" vertex="1">
          <mxGeometry y="134" width="230" height="28" as="geometry" />
        </mxCell>
        <mxCell id="oGBta0RcwHTypOkyzDNI-66" value="int&amp;nbsp; &amp;nbsp;&lt;span style=&quot;white-space: pre;&quot;&gt; &lt;/span&gt;&lt;span style=&quot;white-space: pre;&quot;&gt; &lt;/span&gt;&lt;span style=&quot;white-space: pre;&quot;&gt; &lt;/span&gt;&lt;span style=&quot;white-space: pre;&quot;&gt; &lt;/span&gt;&lt;b&gt;&lt;i&gt;backlog&lt;/i&gt;&lt;/b&gt;" style="shape=partialRectangle;html=1;whiteSpace=wrap;connectable=0;overflow=hidden;fillColor=none;top=0;left=0;bottom=0;right=0;pointerEvents=1;rounded=1;shadow=0;dashed=0;labelBackgroundColor=none;sketch=0;fillStyle=cross-hatch;strokeColor=#ffffff;fontFamily=Helvetica;fontSize=14;fontColor=#000000;align=left;" parent="oGBta0RcwHTypOkyzDNI-65" vertex="1">
          <mxGeometry width="230" height="28" as="geometry">
            <mxRectangle width="230" height="28" as="alternateBounds" />
          </mxGeometry>
        </mxCell>
        <mxCell id="oGBta0RcwHTypOkyzDNI-67" value="" style="shape=tableRow;horizontal=0;startSize=0;swimlaneHead=0;swimlaneBody=0;top=0;left=0;bottom=0;right=0;collapsible=0;dropTarget=0;fillColor=none;points=[[0,0.5],[1,0.5]];portConstraint=eastwest;rounded=1;shadow=0;dashed=0;labelBackgroundColor=none;sketch=0;fillStyle=cross-hatch;strokeColor=#ffffff;fontFamily=Helvetica;fontSize=14;fontColor=#000000;html=1;" parent="oGBta0RcwHTypOkyzDNI-58" vertex="1">
          <mxGeometry y="162" width="230" height="28" as="geometry" />
        </mxCell>
        <mxCell id="oGBta0RcwHTypOkyzDNI-68" value="char*&amp;nbsp; &amp;nbsp; &amp;nbsp; &amp;nbsp; &amp;nbsp; &amp;nbsp; &amp;nbsp;&lt;span style=&quot;white-space: pre;&quot;&gt; &lt;/span&gt;&lt;span style=&quot;white-space: pre;&quot;&gt; &lt;/span&gt;&lt;b&gt;&lt;i&gt;instance&lt;/i&gt;&lt;/b&gt;" style="shape=partialRectangle;html=1;whiteSpace=wrap;connectable=0;overflow=hidden;fillColor=none;top=0;left=0;bottom=0;right=0;pointerEvents=1;rounded=1;shadow=0;dashed=0;labelBackgroundColor=none;sketch=0;fillStyle=cross-hatch;strokeColor=#ffffff;fontFamily=Helvetica;fontSize=14;fontColor=#000000;align=left;" parent="oGBta0RcwHTypOkyzDNI-67" vertex="1">
          <mxGeometry width="230" height="28" as="geometry">
            <mxRectangle width="230" height="28" as="alternateBounds" />
          </mxGeometry>
        </mxCell>
        <mxCell id="oGBta0RcwHTypOkyzDNI-69" style="edgeStyle=elbowEdgeStyle;curved=1;sketch=1;orthogonalLoop=1;jettySize=auto;elbow=vertical;html=1;exitX=1;exitY=0.5;exitDx=0;exitDy=0;entryX=-0.01;entryY=0.075;entryDx=0;entryDy=0;entryPerimeter=0;shadow=1;dashed=1;strokeColor=#000000;strokeWidth=1;fontFamily=Helvetica;fontSize=16;fontColor=#000000;startArrow=oval;startFill=1;endArrow=halfCircle;endFill=0;" parent="1" source="oGBta0RcwHTypOkyzDNI-59" target="oGBta0RcwHTypOkyzDNI-33" edge="1">
          <mxGeometry relative="1" as="geometry" />
        </mxCell>
        <mxCell id="oGBta0RcwHTypOkyzDNI-70" value="&lt;b style=&quot;&quot;&gt;&lt;i style=&quot;&quot;&gt;&lt;font style=&quot;font-size: 16px;&quot;&gt;evlsock_stream_socket_t&lt;/font&gt;&lt;/i&gt;&lt;/b&gt;" style="shape=table;startSize=40;container=1;collapsible=0;childLayout=tableLayout;rounded=1;shadow=0;dashed=0;labelBackgroundColor=none;sketch=1;fillStyle=cross-hatch;strokeColor=#BD7000;fontFamily=Helvetica;fontSize=16;fillColor=#f0a30a;html=1;fontColor=#000000;align=left;" parent="1" vertex="1">
          <mxGeometry x="-1180" y="1084.5" width="280" height="260" as="geometry" />
        </mxCell>
        <mxCell id="oGBta0RcwHTypOkyzDNI-71" value="" style="shape=tableRow;horizontal=0;startSize=0;swimlaneHead=0;swimlaneBody=0;top=0;left=0;bottom=0;right=0;collapsible=0;dropTarget=0;fillColor=none;points=[[0,0.5],[1,0.5]];portConstraint=eastwest;rounded=1;shadow=0;dashed=0;labelBackgroundColor=none;sketch=0;fillStyle=cross-hatch;strokeColor=#ffffff;fontFamily=Helvetica;fontSize=16;fontColor=#000000;html=1;" parent="oGBta0RcwHTypOkyzDNI-70" vertex="1">
          <mxGeometry y="40" width="280" height="25" as="geometry" />
        </mxCell>
        <mxCell id="oGBta0RcwHTypOkyzDNI-72" value="evlsock_socket_t &lt;b&gt;&lt;i&gt;socket&lt;/i&gt;&lt;/b&gt;" style="shape=partialRectangle;html=1;whiteSpace=wrap;connectable=0;overflow=hidden;fillColor=none;top=0;left=0;bottom=0;right=0;pointerEvents=1;rounded=1;shadow=0;dashed=0;labelBackgroundColor=none;sketch=0;fillStyle=cross-hatch;strokeColor=#ffffff;fontFamily=Helvetica;fontSize=16;fontColor=#000000;align=left;" parent="oGBta0RcwHTypOkyzDNI-71" vertex="1">
          <mxGeometry width="280" height="25" as="geometry">
            <mxRectangle width="280" height="25" as="alternateBounds" />
          </mxGeometry>
        </mxCell>
        <mxCell id="oGBta0RcwHTypOkyzDNI-73" value="" style="shape=tableRow;horizontal=0;startSize=0;swimlaneHead=0;swimlaneBody=0;top=0;left=0;bottom=0;right=0;collapsible=0;dropTarget=0;fillColor=none;points=[[0,0.5],[1,0.5]];portConstraint=eastwest;rounded=1;shadow=0;dashed=0;labelBackgroundColor=none;sketch=0;fillStyle=cross-hatch;strokeColor=#ffffff;fontFamily=Helvetica;fontSize=16;fontColor=#000000;html=1;" parent="oGBta0RcwHTypOkyzDNI-70" vertex="1">
          <mxGeometry y="65" width="280" height="24" as="geometry" />
        </mxCell>
        <mxCell id="oGBta0RcwHTypOkyzDNI-74" value="void &lt;span style=&quot;white-space: pre;&quot;&gt; &lt;/span&gt;&lt;span style=&quot;white-space: pre;&quot;&gt; &lt;/span&gt;&lt;b&gt;&lt;i&gt;(*destroy)&lt;/i&gt;&lt;/b&gt;" style="shape=partialRectangle;html=1;whiteSpace=wrap;connectable=0;overflow=hidden;fillColor=none;top=0;left=0;bottom=0;right=0;pointerEvents=1;rounded=1;shadow=0;dashed=0;labelBackgroundColor=none;sketch=0;fillStyle=cross-hatch;strokeColor=#ffffff;fontFamily=Helvetica;fontSize=16;fontColor=#000000;align=left;" parent="oGBta0RcwHTypOkyzDNI-73" vertex="1">
          <mxGeometry width="280" height="24" as="geometry">
            <mxRectangle width="280" height="24" as="alternateBounds" />
          </mxGeometry>
        </mxCell>
        <mxCell id="oGBta0RcwHTypOkyzDNI-75" value="" style="shape=tableRow;horizontal=0;startSize=0;swimlaneHead=0;swimlaneBody=0;top=0;left=0;bottom=0;right=0;collapsible=0;dropTarget=0;fillColor=none;points=[[0,0.5],[1,0.5]];portConstraint=eastwest;rounded=1;shadow=0;dashed=0;labelBackgroundColor=none;sketch=0;fillStyle=cross-hatch;strokeColor=#ffffff;fontFamily=Helvetica;fontSize=16;fontColor=#000000;html=1;" parent="oGBta0RcwHTypOkyzDNI-70" vertex="1">
          <mxGeometry y="89" width="280" height="25" as="geometry" />
        </mxCell>
        <mxCell id="oGBta0RcwHTypOkyzDNI-76" value="bool &lt;span style=&quot;white-space: pre;&quot;&gt; &lt;/span&gt;&lt;span style=&quot;white-space: pre;&quot;&gt; &lt;/span&gt;&lt;b&gt;&lt;i&gt;(*notify)&lt;/i&gt;&lt;/b&gt;" style="shape=partialRectangle;html=1;whiteSpace=wrap;connectable=0;overflow=hidden;fillColor=none;top=0;left=0;bottom=0;right=0;pointerEvents=1;rounded=1;shadow=0;dashed=0;labelBackgroundColor=none;sketch=0;fillStyle=cross-hatch;strokeColor=#ffffff;fontFamily=Helvetica;fontSize=16;fontColor=#000000;align=left;" parent="oGBta0RcwHTypOkyzDNI-75" vertex="1">
          <mxGeometry width="280" height="25" as="geometry">
            <mxRectangle width="280" height="25" as="alternateBounds" />
          </mxGeometry>
        </mxCell>
        <mxCell id="oGBta0RcwHTypOkyzDNI-77" value="" style="shape=tableRow;horizontal=0;startSize=0;swimlaneHead=0;swimlaneBody=0;top=0;left=0;bottom=0;right=0;collapsible=0;dropTarget=0;fillColor=none;points=[[0,0.5],[1,0.5]];portConstraint=eastwest;rounded=1;shadow=0;dashed=0;labelBackgroundColor=none;sketch=0;fillStyle=cross-hatch;strokeColor=#ffffff;fontFamily=Helvetica;fontSize=16;fontColor=#000000;html=1;" parent="oGBta0RcwHTypOkyzDNI-70" vertex="1">
          <mxGeometry y="114" width="280" height="24" as="geometry" />
        </mxCell>
        <mxCell id="oGBta0RcwHTypOkyzDNI-78" value="void &lt;span style=&quot;white-space: pre;&quot;&gt; &lt;/span&gt;&lt;span style=&quot;white-space: pre;&quot;&gt; &lt;/span&gt;&lt;b&gt;&lt;i&gt;(*cancel_notify)&lt;/i&gt;&lt;/b&gt;" style="shape=partialRectangle;html=1;whiteSpace=wrap;connectable=0;overflow=hidden;fillColor=none;top=0;left=0;bottom=0;right=0;pointerEvents=1;rounded=1;shadow=0;dashed=0;labelBackgroundColor=none;sketch=0;fillStyle=cross-hatch;strokeColor=#ffffff;fontFamily=Helvetica;fontSize=16;fontColor=#000000;align=left;" parent="oGBta0RcwHTypOkyzDNI-77" vertex="1">
          <mxGeometry width="280" height="24" as="geometry">
            <mxRectangle width="280" height="24" as="alternateBounds" />
          </mxGeometry>
        </mxCell>
        <mxCell id="oGBta0RcwHTypOkyzDNI-79" value="" style="shape=tableRow;horizontal=0;startSize=0;swimlaneHead=0;swimlaneBody=0;top=0;left=0;bottom=0;right=0;collapsible=0;dropTarget=0;fillColor=none;points=[[0,0.5],[1,0.5]];portConstraint=eastwest;rounded=1;shadow=0;dashed=0;labelBackgroundColor=none;sketch=0;fillStyle=cross-hatch;strokeColor=#ffffff;fontFamily=Helvetica;fontSize=16;fontColor=#000000;html=1;" parent="oGBta0RcwHTypOkyzDNI-70" vertex="1">
          <mxGeometry y="138" width="280" height="24" as="geometry" />
        </mxCell>
        <mxCell id="oGBta0RcwHTypOkyzDNI-80" value="bool &lt;span style=&quot;white-space: pre;&quot;&gt; &lt;/span&gt;&lt;span style=&quot;white-space: pre;&quot;&gt; &lt;/span&gt;&lt;b&gt;&lt;i&gt;(*listen)&lt;/i&gt;&lt;/b&gt;" style="shape=partialRectangle;html=1;whiteSpace=wrap;connectable=0;overflow=hidden;fillColor=none;top=0;left=0;bottom=0;right=0;pointerEvents=1;rounded=1;shadow=0;dashed=0;labelBackgroundColor=none;sketch=0;fillStyle=cross-hatch;strokeColor=#ffffff;fontFamily=Helvetica;fontSize=16;fontColor=#000000;align=left;" parent="oGBta0RcwHTypOkyzDNI-79" vertex="1">
          <mxGeometry width="280" height="24" as="geometry">
            <mxRectangle width="280" height="24" as="alternateBounds" />
          </mxGeometry>
        </mxCell>
        <mxCell id="oGBta0RcwHTypOkyzDNI-81" value="" style="shape=tableRow;horizontal=0;startSize=0;swimlaneHead=0;swimlaneBody=0;top=0;left=0;bottom=0;right=0;collapsible=0;dropTarget=0;fillColor=none;points=[[0,0.5],[1,0.5]];portConstraint=eastwest;rounded=1;shadow=0;dashed=0;labelBackgroundColor=none;sketch=0;fillStyle=cross-hatch;strokeColor=#ffffff;fontFamily=Helvetica;fontSize=16;fontColor=#000000;html=1;" parent="oGBta0RcwHTypOkyzDNI-70" vertex="1">
          <mxGeometry y="162" width="280" height="24" as="geometry" />
        </mxCell>
        <mxCell id="oGBta0RcwHTypOkyzDNI-82" value="evlsock_stream_socket_t*&amp;nbsp; &amp;nbsp;&lt;b&gt;&lt;i&gt;(*accept)&lt;/i&gt;&lt;/b&gt;" style="shape=partialRectangle;html=1;whiteSpace=wrap;connectable=0;overflow=hidden;fillColor=none;top=0;left=0;bottom=0;right=0;pointerEvents=1;rounded=1;shadow=0;dashed=0;labelBackgroundColor=none;sketch=0;fillStyle=cross-hatch;strokeColor=#ffffff;fontFamily=Helvetica;fontSize=16;fontColor=#000000;align=left;" parent="oGBta0RcwHTypOkyzDNI-81" vertex="1">
          <mxGeometry width="280" height="24" as="geometry">
            <mxRectangle width="280" height="24" as="alternateBounds" />
          </mxGeometry>
        </mxCell>
        <mxCell id="oGBta0RcwHTypOkyzDNI-83" value="" style="shape=tableRow;horizontal=0;startSize=0;swimlaneHead=0;swimlaneBody=0;top=0;left=0;bottom=0;right=0;collapsible=0;dropTarget=0;fillColor=none;points=[[0,0.5],[1,0.5]];portConstraint=eastwest;rounded=1;shadow=0;dashed=0;labelBackgroundColor=none;sketch=0;fillStyle=cross-hatch;strokeColor=#ffffff;fontFamily=Helvetica;fontSize=16;fontColor=#000000;html=1;" parent="oGBta0RcwHTypOkyzDNI-70" vertex="1">
          <mxGeometry y="186" width="280" height="25" as="geometry" />
        </mxCell>
        <mxCell id="oGBta0RcwHTypOkyzDNI-84" value="str_token_t &lt;span style=&quot;white-space: pre;&quot;&gt; &lt;/span&gt;&lt;b&gt;&lt;i&gt;(*protocol)&lt;/i&gt;&lt;/b&gt;" style="shape=partialRectangle;html=1;whiteSpace=wrap;connectable=0;overflow=hidden;fillColor=none;top=0;left=0;bottom=0;right=0;pointerEvents=1;rounded=1;shadow=0;dashed=0;labelBackgroundColor=none;sketch=0;fillStyle=cross-hatch;strokeColor=#ffffff;fontFamily=Helvetica;fontSize=16;fontColor=#000000;align=left;" parent="oGBta0RcwHTypOkyzDNI-83" vertex="1">
          <mxGeometry width="280" height="25" as="geometry">
            <mxRectangle width="280" height="25" as="alternateBounds" />
          </mxGeometry>
        </mxCell>
        <mxCell id="oGBta0RcwHTypOkyzDNI-85" value="" style="shape=tableRow;horizontal=0;startSize=0;swimlaneHead=0;swimlaneBody=0;top=0;left=0;bottom=0;right=0;collapsible=0;dropTarget=0;fillColor=none;points=[[0,0.5],[1,0.5]];portConstraint=eastwest;rounded=1;shadow=0;dashed=0;labelBackgroundColor=none;sketch=0;fillStyle=cross-hatch;strokeColor=#ffffff;fontFamily=Helvetica;fontSize=16;fontColor=#000000;html=1;" parent="oGBta0RcwHTypOkyzDNI-70" vertex="1">
          <mxGeometry y="211" width="280" height="24" as="geometry" />
        </mxCell>
        <mxCell id="oGBta0RcwHTypOkyzDNI-86" value="int &lt;span style=&quot;white-space: pre;&quot;&gt; &lt;/span&gt;&lt;span style=&quot;white-space: pre;&quot;&gt; &lt;/span&gt;&lt;span style=&quot;white-space: pre;&quot;&gt; &lt;/span&gt;&lt;b&gt;&lt;i&gt;(*read)&lt;/i&gt;&lt;/b&gt;" style="shape=partialRectangle;html=1;whiteSpace=wrap;connectable=0;overflow=hidden;fillColor=none;top=0;left=0;bottom=0;right=0;pointerEvents=1;rounded=1;shadow=0;dashed=0;labelBackgroundColor=none;sketch=0;fillStyle=cross-hatch;strokeColor=#ffffff;fontFamily=Helvetica;fontSize=16;fontColor=#000000;align=left;" parent="oGBta0RcwHTypOkyzDNI-85" vertex="1">
          <mxGeometry width="280" height="24" as="geometry">
            <mxRectangle width="280" height="24" as="alternateBounds" />
          </mxGeometry>
        </mxCell>
        <mxCell id="oGBta0RcwHTypOkyzDNI-87" value="" style="shape=tableRow;horizontal=0;startSize=0;swimlaneHead=0;swimlaneBody=0;top=0;left=0;bottom=0;right=0;collapsible=0;dropTarget=0;fillColor=none;points=[[0,0.5],[1,0.5]];portConstraint=eastwest;rounded=1;shadow=0;dashed=0;labelBackgroundColor=none;sketch=0;fillStyle=cross-hatch;strokeColor=#ffffff;fontFamily=Helvetica;fontSize=16;fontColor=#000000;html=1;" parent="oGBta0RcwHTypOkyzDNI-70" vertex="1">
          <mxGeometry y="235" width="280" height="25" as="geometry" />
        </mxCell>
        <mxCell id="oGBta0RcwHTypOkyzDNI-88" value="int &lt;span style=&quot;white-space: pre;&quot;&gt; &lt;/span&gt;&lt;span style=&quot;white-space: pre;&quot;&gt; &lt;/span&gt;&lt;span style=&quot;white-space: pre;&quot;&gt; &lt;/span&gt;&lt;b&gt;&lt;i&gt;(*write)&lt;/i&gt;&lt;/b&gt;" style="shape=partialRectangle;html=1;whiteSpace=wrap;connectable=0;overflow=hidden;fillColor=none;top=0;left=0;bottom=0;right=0;pointerEvents=1;rounded=1;shadow=0;dashed=0;labelBackgroundColor=none;sketch=0;fillStyle=cross-hatch;strokeColor=#ffffff;fontFamily=Helvetica;fontSize=16;fontColor=#000000;align=left;" parent="oGBta0RcwHTypOkyzDNI-87" vertex="1">
          <mxGeometry width="280" height="25" as="geometry">
            <mxRectangle width="280" height="25" as="alternateBounds" />
          </mxGeometry>
        </mxCell>
        <mxCell id="oGBta0RcwHTypOkyzDNI-89" style="edgeStyle=elbowEdgeStyle;curved=1;sketch=1;orthogonalLoop=1;jettySize=auto;elbow=vertical;html=1;exitX=1;exitY=0.5;exitDx=0;exitDy=0;entryX=-0.009;entryY=0.17;entryDx=0;entryDy=0;entryPerimeter=0;shadow=1;dashed=1;strokeColor=#000000;strokeWidth=1;fontFamily=Helvetica;fontSize=16;fontColor=#000000;startArrow=halfCircle;startFill=0;endArrow=block;endFill=1;" parent="1" source="oGBta0RcwHTypOkyzDNI-46" target="oGBta0RcwHTypOkyzDNI-2" edge="1">
          <mxGeometry relative="1" as="geometry" />
        </mxCell>
        <mxCell id="oGBta0RcwHTypOkyzDNI-90" value="&lt;b&gt;&lt;i&gt;http_listener_t&lt;/i&gt;&lt;/b&gt;" style="shape=table;startSize=30;container=1;collapsible=0;childLayout=tableLayout;rounded=1;shadow=0;dashed=0;labelBackgroundColor=none;sketch=1;fillStyle=cross-hatch;strokeColor=#C73500;fontFamily=Helvetica;fontSize=16;fontColor=#000000;fillColor=#fa6800;html=1;swimlaneFillColor=default;align=left;" parent="1" vertex="1">
          <mxGeometry x="-870" y="1152.5" width="350" height="170" as="geometry" />
        </mxCell>
        <mxCell id="oGBta0RcwHTypOkyzDNI-91" value="" style="shape=tableRow;horizontal=0;startSize=0;swimlaneHead=0;swimlaneBody=0;top=0;left=0;bottom=0;right=0;collapsible=0;dropTarget=0;fillColor=none;points=[[0,0.5],[1,0.5]];portConstraint=eastwest;rounded=1;shadow=0;dashed=0;labelBackgroundColor=none;sketch=0;fillStyle=cross-hatch;strokeColor=#ffffff;fontFamily=Helvetica;fontSize=16;fontColor=#000000;html=1;" parent="oGBta0RcwHTypOkyzDNI-90" vertex="1">
          <mxGeometry y="30" width="350" height="23" as="geometry" />
        </mxCell>
        <mxCell id="oGBta0RcwHTypOkyzDNI-92" value="evl_t*&amp;nbsp; &amp;nbsp; &amp;nbsp; &amp;nbsp; &amp;nbsp; &amp;nbsp; &amp;nbsp;&lt;span style=&quot;white-space: pre;&quot;&gt; &lt;/span&gt;&lt;span style=&quot;white-space: pre;&quot;&gt; &lt;/span&gt;&lt;span style=&quot;white-space: pre;&quot;&gt; &lt;/span&gt;&lt;span style=&quot;white-space: pre;&quot;&gt; &lt;/span&gt;&lt;span style=&quot;white-space: pre;&quot;&gt; &lt;/span&gt;&amp;nbsp;&lt;b&gt;&lt;i&gt;evl&lt;/i&gt;&lt;/b&gt;" style="shape=partialRectangle;html=1;whiteSpace=wrap;connectable=0;overflow=hidden;fillColor=none;top=0;left=0;bottom=0;right=0;pointerEvents=1;rounded=1;shadow=0;dashed=0;labelBackgroundColor=none;sketch=0;fillStyle=cross-hatch;strokeColor=#ffffff;fontFamily=Helvetica;fontSize=16;fontColor=#000000;align=left;" parent="oGBta0RcwHTypOkyzDNI-91" vertex="1">
          <mxGeometry width="350" height="23" as="geometry">
            <mxRectangle width="350" height="23" as="alternateBounds" />
          </mxGeometry>
        </mxCell>
        <mxCell id="oGBta0RcwHTypOkyzDNI-93" value="" style="shape=tableRow;horizontal=0;startSize=0;swimlaneHead=0;swimlaneBody=0;top=0;left=0;bottom=0;right=0;collapsible=0;dropTarget=0;fillColor=none;points=[[0,0.5],[1,0.5]];portConstraint=eastwest;rounded=1;shadow=0;dashed=0;labelBackgroundColor=none;sketch=0;fillStyle=cross-hatch;strokeColor=#ffffff;fontFamily=Helvetica;fontSize=16;fontColor=#000000;html=1;" parent="oGBta0RcwHTypOkyzDNI-90" vertex="1">
          <mxGeometry y="53" width="350" height="24" as="geometry" />
        </mxCell>
        <mxCell id="oGBta0RcwHTypOkyzDNI-94" value="evlsock_stream_socket_t*&lt;span style=&quot;white-space: pre;&quot;&gt; &lt;span style=&quot;white-space: pre;&quot;&gt; &lt;/span&gt; &lt;/span&gt;&lt;b&gt;&lt;i&gt;stream&lt;/i&gt;&lt;/b&gt;" style="shape=partialRectangle;html=1;whiteSpace=wrap;connectable=0;overflow=hidden;fillColor=none;top=0;left=0;bottom=0;right=0;pointerEvents=1;rounded=1;shadow=0;dashed=0;labelBackgroundColor=none;sketch=0;fillStyle=cross-hatch;strokeColor=#ffffff;fontFamily=Helvetica;fontSize=16;fontColor=#000000;align=left;" parent="oGBta0RcwHTypOkyzDNI-93" vertex="1">
          <mxGeometry width="350" height="24" as="geometry">
            <mxRectangle width="350" height="24" as="alternateBounds" />
          </mxGeometry>
        </mxCell>
        <mxCell id="oGBta0RcwHTypOkyzDNI-95" value="" style="shape=tableRow;horizontal=0;startSize=0;swimlaneHead=0;swimlaneBody=0;top=0;left=0;bottom=0;right=0;collapsible=0;dropTarget=0;fillColor=none;points=[[0,0.5],[1,0.5]];portConstraint=eastwest;rounded=1;shadow=0;dashed=0;labelBackgroundColor=none;sketch=0;fillStyle=cross-hatch;strokeColor=#ffffff;fontFamily=Helvetica;fontSize=16;fontColor=#000000;html=1;" parent="oGBta0RcwHTypOkyzDNI-90" vertex="1">
          <mxGeometry y="77" width="350" height="23" as="geometry" />
        </mxCell>
        <mxCell id="oGBta0RcwHTypOkyzDNI-96" value="http_server_session_on_accept_t&amp;nbsp; &amp;nbsp;&lt;b&gt;&lt;i&gt;on_accept&lt;/i&gt;&lt;/b&gt;" style="shape=partialRectangle;html=1;whiteSpace=wrap;connectable=0;overflow=hidden;fillColor=none;top=0;left=0;bottom=0;right=0;pointerEvents=1;rounded=1;shadow=0;dashed=0;labelBackgroundColor=none;sketch=0;fillStyle=cross-hatch;strokeColor=#ffffff;fontFamily=Helvetica;fontSize=16;fontColor=#000000;align=left;" parent="oGBta0RcwHTypOkyzDNI-95" vertex="1">
          <mxGeometry width="350" height="23" as="geometry">
            <mxRectangle width="350" height="23" as="alternateBounds" />
          </mxGeometry>
        </mxCell>
        <mxCell id="oGBta0RcwHTypOkyzDNI-97" value="" style="shape=tableRow;horizontal=0;startSize=0;swimlaneHead=0;swimlaneBody=0;top=0;left=0;bottom=0;right=0;collapsible=0;dropTarget=0;fillColor=none;points=[[0,0.5],[1,0.5]];portConstraint=eastwest;rounded=1;shadow=0;dashed=0;labelBackgroundColor=none;sketch=0;fillStyle=cross-hatch;strokeColor=#ffffff;fontFamily=Helvetica;fontSize=16;fontColor=#000000;html=1;" parent="oGBta0RcwHTypOkyzDNI-90" vertex="1">
          <mxGeometry y="100" width="350" height="23" as="geometry" />
        </mxCell>
        <mxCell id="oGBta0RcwHTypOkyzDNI-98" value="http_stream_on_request_t&amp;nbsp; &amp;nbsp; &amp;nbsp; &amp;nbsp; &amp;nbsp; &amp;nbsp; &amp;nbsp; &amp;nbsp;&lt;b&gt;&lt;i&gt;on_request&lt;/i&gt;&lt;/b&gt;" style="shape=partialRectangle;html=1;whiteSpace=wrap;connectable=0;overflow=hidden;fillColor=none;top=0;left=0;bottom=0;right=0;pointerEvents=1;rounded=1;shadow=0;dashed=0;labelBackgroundColor=none;sketch=0;fillStyle=cross-hatch;strokeColor=#ffffff;fontFamily=Helvetica;fontSize=16;fontColor=#000000;align=left;" parent="oGBta0RcwHTypOkyzDNI-97" vertex="1">
          <mxGeometry width="350" height="23" as="geometry">
            <mxRectangle width="350" height="23" as="alternateBounds" />
          </mxGeometry>
        </mxCell>
        <mxCell id="oGBta0RcwHTypOkyzDNI-99" value="" style="shape=tableRow;horizontal=0;startSize=0;swimlaneHead=0;swimlaneBody=0;top=0;left=0;bottom=0;right=0;collapsible=0;dropTarget=0;fillColor=none;points=[[0,0.5],[1,0.5]];portConstraint=eastwest;rounded=1;shadow=0;dashed=0;labelBackgroundColor=none;sketch=0;fillStyle=cross-hatch;strokeColor=#ffffff;fontFamily=Helvetica;fontSize=16;fontColor=#000000;html=1;" parent="oGBta0RcwHTypOkyzDNI-90" vertex="1">
          <mxGeometry y="123" width="350" height="24" as="geometry" />
        </mxCell>
        <mxCell id="oGBta0RcwHTypOkyzDNI-100" value="http_server_session_on_close_t&amp;nbsp; &lt;span style=&quot;white-space: pre;&quot;&gt; &lt;/span&gt;&amp;nbsp;&lt;b&gt;&lt;i&gt;on_close&lt;/i&gt;&lt;/b&gt;" style="shape=partialRectangle;html=1;whiteSpace=wrap;connectable=0;overflow=hidden;fillColor=none;top=0;left=0;bottom=0;right=0;pointerEvents=1;rounded=1;shadow=0;dashed=0;labelBackgroundColor=none;sketch=0;fillStyle=cross-hatch;strokeColor=#ffffff;fontFamily=Helvetica;fontSize=16;fontColor=#000000;align=left;" parent="oGBta0RcwHTypOkyzDNI-99" vertex="1">
          <mxGeometry width="350" height="24" as="geometry">
            <mxRectangle width="350" height="24" as="alternateBounds" />
          </mxGeometry>
        </mxCell>
        <mxCell id="oGBta0RcwHTypOkyzDNI-101" value="" style="shape=tableRow;horizontal=0;startSize=0;swimlaneHead=0;swimlaneBody=0;top=0;left=0;bottom=0;right=0;collapsible=0;dropTarget=0;fillColor=none;points=[[0,0.5],[1,0.5]];portConstraint=eastwest;rounded=1;shadow=0;dashed=0;labelBackgroundColor=none;sketch=0;fillStyle=cross-hatch;strokeColor=#ffffff;fontFamily=Helvetica;fontSize=16;fontColor=#000000;html=1;" parent="oGBta0RcwHTypOkyzDNI-90" vertex="1">
          <mxGeometry y="147" width="350" height="23" as="geometry" />
        </mxCell>
        <mxCell id="oGBta0RcwHTypOkyzDNI-102" value="void*&amp;nbsp; &amp;nbsp; &amp;nbsp; &amp;nbsp; &amp;nbsp; &amp;nbsp; &amp;nbsp; &amp;nbsp; &amp;nbsp; &amp;nbsp; &amp;nbsp; &amp;nbsp; &amp;nbsp; &amp;nbsp;&lt;span style=&quot;white-space: pre;&quot;&gt; &lt;/span&gt;&lt;span style=&quot;white-space: pre;&quot;&gt; &lt;/span&gt;&lt;span style=&quot;white-space: pre;&quot;&gt; &lt;/span&gt;&amp;nbsp;&lt;b&gt;&lt;i&gt;data&lt;/i&gt;&lt;/b&gt;" style="shape=partialRectangle;html=1;whiteSpace=wrap;connectable=0;overflow=hidden;fillColor=none;top=0;left=0;bottom=0;right=0;pointerEvents=1;rounded=1;shadow=0;dashed=0;labelBackgroundColor=none;sketch=0;fillStyle=cross-hatch;strokeColor=#ffffff;fontFamily=Helvetica;fontSize=16;fontColor=#000000;align=left;" parent="oGBta0RcwHTypOkyzDNI-101" vertex="1">
          <mxGeometry width="350" height="23" as="geometry">
            <mxRectangle width="350" height="23" as="alternateBounds" />
          </mxGeometry>
        </mxCell>
        <mxCell id="oGBta0RcwHTypOkyzDNI-103" style="sketch=1;orthogonalLoop=1;jettySize=auto;elbow=vertical;html=1;exitX=0;exitY=0.5;exitDx=0;exitDy=0;shadow=1;dashed=1;strokeColor=#000000;strokeWidth=1;fontFamily=Helvetica;fontSize=16;fontColor=#000000;startArrow=halfCircle;startFill=0;endArrow=block;endFill=1;entryX=0.5;entryY=0;entryDx=0;entryDy=0;curved=1;" parent="1" source="oGBta0RcwHTypOkyzDNI-63" target="oGBta0RcwHTypOkyzDNI-90" edge="1">
          <mxGeometry relative="1" as="geometry">
            <mxPoint x="-640" y="1059.608695652174" as="targetPoint" />
            <Array as="points">
              <mxPoint x="-620" y="1060" />
            </Array>
          </mxGeometry>
        </mxCell>
        <mxCell id="oGBta0RcwHTypOkyzDNI-104" value="&lt;font color=&quot;#000000&quot;&gt;&lt;b&gt;&lt;i&gt;http_server_on_accept&lt;/i&gt;&lt;/b&gt;&lt;/font&gt;" style="whiteSpace=wrap;html=1;fontSize=14;align=center;fillColor=#00FFFF;strokeColor=#36393d;startSize=30;rounded=1;shadow=0;dashed=0;labelBackgroundColor=none;sketch=1;fillStyle=zigzag;fontFamily=Helvetica;fontColor=#004C99;" parent="1" vertex="1">
          <mxGeometry x="-500" y="1187" width="190" height="20" as="geometry" />
        </mxCell>
        <mxCell id="oGBta0RcwHTypOkyzDNI-105" value="&lt;font color=&quot;#000000&quot;&gt;&lt;b&gt;&lt;i&gt;http_server_on_request&lt;/i&gt;&lt;/b&gt;&lt;/font&gt;" style="whiteSpace=wrap;html=1;fontSize=14;align=center;fillColor=#00FFFF;strokeColor=#36393d;startSize=30;rounded=1;shadow=0;dashed=0;labelBackgroundColor=none;sketch=1;fillStyle=zigzag;fontFamily=Helvetica;fontColor=#004C99;" parent="1" vertex="1">
          <mxGeometry x="-500" y="1225" width="190" height="20" as="geometry" />
        </mxCell>
        <mxCell id="oGBta0RcwHTypOkyzDNI-106" value="&lt;font color=&quot;#000000&quot;&gt;&lt;b&gt;&lt;i&gt;http_server_on_close&lt;/i&gt;&lt;/b&gt;&lt;/font&gt;" style="whiteSpace=wrap;html=1;fontSize=14;align=center;fillColor=#00FFFF;strokeColor=#36393d;startSize=30;rounded=1;shadow=0;dashed=0;labelBackgroundColor=none;sketch=1;fillStyle=zigzag;fontFamily=Helvetica;fontColor=#004C99;" parent="1" vertex="1">
          <mxGeometry x="-500" y="1260" width="190" height="20" as="geometry" />
        </mxCell>
        <mxCell id="oGBta0RcwHTypOkyzDNI-107" style="edgeStyle=none;curved=1;sketch=1;orthogonalLoop=1;jettySize=auto;html=1;exitX=1;exitY=0.5;exitDx=0;exitDy=0;entryX=0;entryY=0.5;entryDx=0;entryDy=0;shadow=1;dashed=1;strokeColor=#000000;strokeWidth=1;fontFamily=Helvetica;fontSize=16;fontColor=#000000;startArrow=halfCircle;startFill=0;endArrow=block;endFill=1;elbow=vertical;" parent="1" source="oGBta0RcwHTypOkyzDNI-95" target="oGBta0RcwHTypOkyzDNI-104" edge="1">
          <mxGeometry relative="1" as="geometry" />
        </mxCell>
        <mxCell id="oGBta0RcwHTypOkyzDNI-108" style="edgeStyle=none;curved=1;sketch=1;orthogonalLoop=1;jettySize=auto;html=1;exitX=1;exitY=0.5;exitDx=0;exitDy=0;entryX=0;entryY=0.5;entryDx=0;entryDy=0;shadow=1;dashed=1;strokeColor=#000000;strokeWidth=1;fontFamily=Helvetica;fontSize=16;fontColor=#000000;startArrow=halfCircle;startFill=0;endArrow=block;endFill=1;elbow=vertical;" parent="1" source="oGBta0RcwHTypOkyzDNI-97" target="oGBta0RcwHTypOkyzDNI-105" edge="1">
          <mxGeometry relative="1" as="geometry" />
        </mxCell>
        <mxCell id="oGBta0RcwHTypOkyzDNI-109" style="edgeStyle=none;curved=1;sketch=1;orthogonalLoop=1;jettySize=auto;html=1;exitX=1;exitY=0.5;exitDx=0;exitDy=0;entryX=0;entryY=0.5;entryDx=0;entryDy=0;shadow=1;dashed=1;strokeColor=#000000;strokeWidth=1;fontFamily=Helvetica;fontSize=16;fontColor=#000000;startArrow=halfCircle;startFill=0;endArrow=block;endFill=1;elbow=vertical;" parent="1" source="oGBta0RcwHTypOkyzDNI-99" target="oGBta0RcwHTypOkyzDNI-106" edge="1">
          <mxGeometry relative="1" as="geometry" />
        </mxCell>
        <mxCell id="oGBta0RcwHTypOkyzDNI-110" value="&lt;b&gt;&lt;i&gt;http_server_session_t&lt;/i&gt;&lt;/b&gt;" style="shape=table;startSize=50;container=1;collapsible=0;childLayout=tableLayout;rounded=1;shadow=0;dashed=0;labelBackgroundColor=none;sketch=1;fillStyle=cross-hatch;fontFamily=Helvetica;fontSize=16;fillColor=#fff2cc;html=1;swimlaneFillColor=default;strokeColor=#d6b656;gradientColor=#ffd966;align=left;" parent="1" vertex="1">
          <mxGeometry x="-331" y="1378.5" width="350" height="170" as="geometry" />
        </mxCell>
        <mxCell id="oGBta0RcwHTypOkyzDNI-111" value="" style="shape=tableRow;horizontal=0;startSize=0;swimlaneHead=0;swimlaneBody=0;top=0;left=0;bottom=0;right=0;collapsible=0;dropTarget=0;fillColor=none;points=[[0,0.5],[1,0.5]];portConstraint=eastwest;rounded=1;shadow=0;dashed=0;labelBackgroundColor=none;sketch=0;fillStyle=cross-hatch;strokeColor=#ffffff;fontFamily=Helvetica;fontSize=16;fontColor=#000000;html=1;" parent="oGBta0RcwHTypOkyzDNI-110" vertex="1">
          <mxGeometry y="50" width="350" height="24" as="geometry" />
        </mxCell>
        <mxCell id="oGBta0RcwHTypOkyzDNI-112" value="intrusive_dlist_t&amp;nbsp; &amp;nbsp; &amp;nbsp; &amp;nbsp; &amp;nbsp; &amp;nbsp; &amp;nbsp; &amp;nbsp; &amp;nbsp; &amp;nbsp; &amp;nbsp;&lt;span style=&quot;white-space: pre;&quot;&gt; &lt;/span&gt;&lt;span style=&quot;white-space: pre;&quot;&gt; &lt;/span&gt;&lt;b&gt;&lt;i&gt;link&lt;/i&gt;&lt;/b&gt;" style="shape=partialRectangle;html=1;whiteSpace=wrap;connectable=0;overflow=hidden;fillColor=none;top=0;left=0;bottom=0;right=0;pointerEvents=1;rounded=1;shadow=0;dashed=0;labelBackgroundColor=none;sketch=0;fillStyle=cross-hatch;strokeColor=#ffffff;fontFamily=Helvetica;fontSize=16;fontColor=#000000;align=left;" parent="oGBta0RcwHTypOkyzDNI-111" vertex="1">
          <mxGeometry width="350" height="24" as="geometry">
            <mxRectangle width="350" height="24" as="alternateBounds" />
          </mxGeometry>
        </mxCell>
        <mxCell id="oGBta0RcwHTypOkyzDNI-113" value="" style="shape=tableRow;horizontal=0;startSize=0;swimlaneHead=0;swimlaneBody=0;top=0;left=0;bottom=0;right=0;collapsible=0;dropTarget=0;fillColor=none;points=[[0,0.5],[1,0.5]];portConstraint=eastwest;rounded=1;shadow=0;dashed=0;labelBackgroundColor=none;sketch=0;fillStyle=cross-hatch;strokeColor=#ffffff;fontFamily=Helvetica;fontSize=16;fontColor=#000000;html=1;" parent="oGBta0RcwHTypOkyzDNI-110" vertex="1">
          <mxGeometry y="74" width="350" height="24" as="geometry" />
        </mxCell>
        <mxCell id="oGBta0RcwHTypOkyzDNI-114" value="http_session_t&amp;nbsp; &amp;nbsp; &amp;nbsp; &amp;nbsp; &amp;nbsp; &amp;nbsp; &amp;nbsp; &amp;nbsp; &amp;nbsp;&lt;span style=&quot;white-space: pre;&quot;&gt; &lt;/span&gt;&lt;span style=&quot;white-space: pre;&quot;&gt; &lt;/span&gt;&lt;b&gt;&lt;i&gt;session&lt;/i&gt;&lt;/b&gt;" style="shape=partialRectangle;html=1;whiteSpace=wrap;connectable=0;overflow=hidden;fillColor=none;top=0;left=0;bottom=0;right=0;pointerEvents=1;rounded=1;shadow=0;dashed=0;labelBackgroundColor=none;sketch=0;fillStyle=cross-hatch;strokeColor=#ffffff;fontFamily=Helvetica;fontSize=16;fontColor=#000000;align=left;" parent="oGBta0RcwHTypOkyzDNI-113" vertex="1">
          <mxGeometry width="350" height="24" as="geometry">
            <mxRectangle width="350" height="24" as="alternateBounds" />
          </mxGeometry>
        </mxCell>
        <mxCell id="oGBta0RcwHTypOkyzDNI-115" value="" style="shape=tableRow;horizontal=0;startSize=0;swimlaneHead=0;swimlaneBody=0;top=0;left=0;bottom=0;right=0;collapsible=0;dropTarget=0;fillColor=none;points=[[0,0.5],[1,0.5]];portConstraint=eastwest;rounded=1;shadow=0;dashed=0;labelBackgroundColor=none;sketch=0;fillStyle=cross-hatch;strokeColor=#ffffff;fontFamily=Helvetica;fontSize=16;fontColor=#000000;html=1;" parent="oGBta0RcwHTypOkyzDNI-110" vertex="1">
          <mxGeometry y="98" width="350" height="24" as="geometry" />
        </mxCell>
        <mxCell id="oGBta0RcwHTypOkyzDNI-116" value="http_stream_on_request_t&amp;nbsp; &amp;nbsp; &amp;nbsp; &lt;b&gt;&lt;i&gt;&amp;nbsp; &amp;nbsp; &amp;nbsp; &amp;nbsp; on_request&lt;/i&gt;&lt;/b&gt;" style="shape=partialRectangle;html=1;whiteSpace=wrap;connectable=0;overflow=hidden;fillColor=none;top=0;left=0;bottom=0;right=0;pointerEvents=1;rounded=1;shadow=0;dashed=0;labelBackgroundColor=none;sketch=0;fillStyle=cross-hatch;strokeColor=#ffffff;fontFamily=Helvetica;fontSize=16;fontColor=#000000;align=left;" parent="oGBta0RcwHTypOkyzDNI-115" vertex="1">
          <mxGeometry width="350" height="24" as="geometry">
            <mxRectangle width="350" height="24" as="alternateBounds" />
          </mxGeometry>
        </mxCell>
        <mxCell id="oGBta0RcwHTypOkyzDNI-117" value="" style="shape=tableRow;horizontal=0;startSize=0;swimlaneHead=0;swimlaneBody=0;top=0;left=0;bottom=0;right=0;collapsible=0;dropTarget=0;fillColor=none;points=[[0,0.5],[1,0.5]];portConstraint=eastwest;rounded=1;shadow=0;dashed=0;labelBackgroundColor=none;sketch=0;fillStyle=cross-hatch;strokeColor=#ffffff;fontFamily=Helvetica;fontSize=16;fontColor=#000000;html=1;" parent="oGBta0RcwHTypOkyzDNI-110" vertex="1">
          <mxGeometry y="122" width="350" height="24" as="geometry" />
        </mxCell>
        <mxCell id="oGBta0RcwHTypOkyzDNI-118" value="http_server_session_on_close_t&amp;nbsp; &amp;nbsp;&amp;nbsp;&lt;b&gt;&lt;i&gt;on_close&lt;/i&gt;&lt;/b&gt;" style="shape=partialRectangle;html=1;whiteSpace=wrap;connectable=0;overflow=hidden;fillColor=none;top=0;left=0;bottom=0;right=0;pointerEvents=1;rounded=1;shadow=0;dashed=0;labelBackgroundColor=none;sketch=0;fillStyle=cross-hatch;strokeColor=#ffffff;fontFamily=Helvetica;fontSize=16;fontColor=#000000;align=left;" parent="oGBta0RcwHTypOkyzDNI-117" vertex="1">
          <mxGeometry width="350" height="24" as="geometry">
            <mxRectangle width="350" height="24" as="alternateBounds" />
          </mxGeometry>
        </mxCell>
        <mxCell id="oGBta0RcwHTypOkyzDNI-119" value="" style="shape=tableRow;horizontal=0;startSize=0;swimlaneHead=0;swimlaneBody=0;top=0;left=0;bottom=0;right=0;collapsible=0;dropTarget=0;fillColor=none;points=[[0,0.5],[1,0.5]];portConstraint=eastwest;rounded=1;shadow=0;dashed=0;labelBackgroundColor=none;sketch=0;fillStyle=cross-hatch;strokeColor=#ffffff;fontFamily=Helvetica;fontSize=16;fontColor=#000000;html=1;" parent="oGBta0RcwHTypOkyzDNI-110" vertex="1">
          <mxGeometry y="146" width="350" height="24" as="geometry" />
        </mxCell>
        <mxCell id="oGBta0RcwHTypOkyzDNI-120" value="void*&amp;nbsp; &amp;nbsp; &amp;nbsp; &amp;nbsp; &amp;nbsp; &amp;nbsp; &amp;nbsp; &amp;nbsp; &amp;nbsp; &amp;nbsp; &amp;nbsp; &amp;nbsp; &amp;nbsp; &lt;span style=&quot;white-space: pre;&quot;&gt; &lt;/span&gt;&lt;span style=&quot;white-space: pre;&quot;&gt; &lt;/span&gt;&lt;span style=&quot;white-space: pre;&quot;&gt; &lt;/span&gt;&lt;b&gt;&lt;i&gt;data&lt;/i&gt;&lt;/b&gt;" style="shape=partialRectangle;html=1;whiteSpace=wrap;connectable=0;overflow=hidden;fillColor=none;top=0;left=0;bottom=0;right=0;pointerEvents=1;rounded=1;shadow=0;dashed=0;labelBackgroundColor=none;sketch=0;fillStyle=cross-hatch;strokeColor=#ffffff;fontFamily=Helvetica;fontSize=16;fontColor=#000000;align=left;" parent="oGBta0RcwHTypOkyzDNI-119" vertex="1">
          <mxGeometry width="350" height="24" as="geometry">
            <mxRectangle width="350" height="24" as="alternateBounds" />
          </mxGeometry>
        </mxCell>
        <mxCell id="oGBta0RcwHTypOkyzDNI-121" value="&lt;b&gt;&lt;i&gt;http_server_session_t&lt;/i&gt;&lt;/b&gt;" style="shape=table;startSize=50;container=1;collapsible=0;childLayout=tableLayout;rounded=1;shadow=0;dashed=0;labelBackgroundColor=none;sketch=1;fillStyle=cross-hatch;fontFamily=Helvetica;fontSize=16;fillColor=#fff2cc;html=1;swimlaneFillColor=default;strokeColor=#d6b656;gradientColor=#ffd966;align=left;" parent="1" vertex="1">
          <mxGeometry x="-331" y="1580" width="350" height="170" as="geometry" />
        </mxCell>
        <mxCell id="oGBta0RcwHTypOkyzDNI-122" value="" style="shape=tableRow;horizontal=0;startSize=0;swimlaneHead=0;swimlaneBody=0;top=0;left=0;bottom=0;right=0;collapsible=0;dropTarget=0;fillColor=none;points=[[0,0.5],[1,0.5]];portConstraint=eastwest;rounded=1;shadow=0;dashed=0;labelBackgroundColor=none;sketch=0;fillStyle=cross-hatch;strokeColor=#ffffff;fontFamily=Helvetica;fontSize=16;fontColor=#000000;html=1;" parent="oGBta0RcwHTypOkyzDNI-121" vertex="1">
          <mxGeometry y="50" width="350" height="24" as="geometry" />
        </mxCell>
        <mxCell id="oGBta0RcwHTypOkyzDNI-123" value="intrusive_dlist_t&amp;nbsp; &amp;nbsp; &amp;nbsp; &amp;nbsp; &amp;nbsp; &amp;nbsp; &amp;nbsp; &amp;nbsp; &amp;nbsp; &amp;nbsp; &amp;nbsp;&lt;span style=&quot;white-space: pre;&quot;&gt; &lt;/span&gt;&lt;span style=&quot;white-space: pre;&quot;&gt; &lt;/span&gt;&lt;b&gt;&lt;i&gt;link&lt;/i&gt;&lt;/b&gt;" style="shape=partialRectangle;html=1;whiteSpace=wrap;connectable=0;overflow=hidden;fillColor=none;top=0;left=0;bottom=0;right=0;pointerEvents=1;rounded=1;shadow=0;dashed=0;labelBackgroundColor=none;sketch=0;fillStyle=cross-hatch;strokeColor=#ffffff;fontFamily=Helvetica;fontSize=16;fontColor=#000000;align=left;" parent="oGBta0RcwHTypOkyzDNI-122" vertex="1">
          <mxGeometry width="350" height="24" as="geometry">
            <mxRectangle width="350" height="24" as="alternateBounds" />
          </mxGeometry>
        </mxCell>
        <mxCell id="oGBta0RcwHTypOkyzDNI-124" value="" style="shape=tableRow;horizontal=0;startSize=0;swimlaneHead=0;swimlaneBody=0;top=0;left=0;bottom=0;right=0;collapsible=0;dropTarget=0;fillColor=none;points=[[0,0.5],[1,0.5]];portConstraint=eastwest;rounded=1;shadow=0;dashed=0;labelBackgroundColor=none;sketch=0;fillStyle=cross-hatch;strokeColor=#ffffff;fontFamily=Helvetica;fontSize=16;fontColor=#000000;html=1;" parent="oGBta0RcwHTypOkyzDNI-121" vertex="1">
          <mxGeometry y="74" width="350" height="24" as="geometry" />
        </mxCell>
        <mxCell id="oGBta0RcwHTypOkyzDNI-125" value="http_session_t&amp;nbsp; &amp;nbsp; &amp;nbsp; &amp;nbsp; &amp;nbsp; &amp;nbsp; &amp;nbsp; &amp;nbsp; &amp;nbsp;&lt;span style=&quot;white-space: pre;&quot;&gt; &lt;/span&gt;&lt;span style=&quot;white-space: pre;&quot;&gt; &lt;/span&gt;&lt;b&gt;&lt;i&gt;session&lt;/i&gt;&lt;/b&gt;" style="shape=partialRectangle;html=1;whiteSpace=wrap;connectable=0;overflow=hidden;fillColor=none;top=0;left=0;bottom=0;right=0;pointerEvents=1;rounded=1;shadow=0;dashed=0;labelBackgroundColor=none;sketch=0;fillStyle=cross-hatch;strokeColor=#ffffff;fontFamily=Helvetica;fontSize=16;fontColor=#000000;align=left;" parent="oGBta0RcwHTypOkyzDNI-124" vertex="1">
          <mxGeometry width="350" height="24" as="geometry">
            <mxRectangle width="350" height="24" as="alternateBounds" />
          </mxGeometry>
        </mxCell>
        <mxCell id="oGBta0RcwHTypOkyzDNI-126" value="" style="shape=tableRow;horizontal=0;startSize=0;swimlaneHead=0;swimlaneBody=0;top=0;left=0;bottom=0;right=0;collapsible=0;dropTarget=0;fillColor=none;points=[[0,0.5],[1,0.5]];portConstraint=eastwest;rounded=1;shadow=0;dashed=0;labelBackgroundColor=none;sketch=0;fillStyle=cross-hatch;strokeColor=#ffffff;fontFamily=Helvetica;fontSize=16;fontColor=#000000;html=1;" parent="oGBta0RcwHTypOkyzDNI-121" vertex="1">
          <mxGeometry y="98" width="350" height="24" as="geometry" />
        </mxCell>
        <mxCell id="oGBta0RcwHTypOkyzDNI-127" value="http_stream_on_request_t&amp;nbsp; &amp;nbsp; &amp;nbsp; &lt;b&gt;&lt;i&gt;&amp;nbsp; &amp;nbsp; &amp;nbsp; &amp;nbsp; on_request&lt;/i&gt;&lt;/b&gt;" style="shape=partialRectangle;html=1;whiteSpace=wrap;connectable=0;overflow=hidden;fillColor=none;top=0;left=0;bottom=0;right=0;pointerEvents=1;rounded=1;shadow=0;dashed=0;labelBackgroundColor=none;sketch=0;fillStyle=cross-hatch;strokeColor=#ffffff;fontFamily=Helvetica;fontSize=16;fontColor=#000000;align=left;" parent="oGBta0RcwHTypOkyzDNI-126" vertex="1">
          <mxGeometry width="350" height="24" as="geometry">
            <mxRectangle width="350" height="24" as="alternateBounds" />
          </mxGeometry>
        </mxCell>
        <mxCell id="oGBta0RcwHTypOkyzDNI-128" value="" style="shape=tableRow;horizontal=0;startSize=0;swimlaneHead=0;swimlaneBody=0;top=0;left=0;bottom=0;right=0;collapsible=0;dropTarget=0;fillColor=none;points=[[0,0.5],[1,0.5]];portConstraint=eastwest;rounded=1;shadow=0;dashed=0;labelBackgroundColor=none;sketch=0;fillStyle=cross-hatch;strokeColor=#ffffff;fontFamily=Helvetica;fontSize=16;fontColor=#000000;html=1;" parent="oGBta0RcwHTypOkyzDNI-121" vertex="1">
          <mxGeometry y="122" width="350" height="24" as="geometry" />
        </mxCell>
        <mxCell id="oGBta0RcwHTypOkyzDNI-129" value="http_server_session_on_close_t&amp;nbsp; &amp;nbsp;&amp;nbsp;&lt;b&gt;&lt;i&gt;on_close&lt;/i&gt;&lt;/b&gt;" style="shape=partialRectangle;html=1;whiteSpace=wrap;connectable=0;overflow=hidden;fillColor=none;top=0;left=0;bottom=0;right=0;pointerEvents=1;rounded=1;shadow=0;dashed=0;labelBackgroundColor=none;sketch=0;fillStyle=cross-hatch;strokeColor=#ffffff;fontFamily=Helvetica;fontSize=16;fontColor=#000000;align=left;" parent="oGBta0RcwHTypOkyzDNI-128" vertex="1">
          <mxGeometry width="350" height="24" as="geometry">
            <mxRectangle width="350" height="24" as="alternateBounds" />
          </mxGeometry>
        </mxCell>
        <mxCell id="oGBta0RcwHTypOkyzDNI-130" value="" style="shape=tableRow;horizontal=0;startSize=0;swimlaneHead=0;swimlaneBody=0;top=0;left=0;bottom=0;right=0;collapsible=0;dropTarget=0;fillColor=none;points=[[0,0.5],[1,0.5]];portConstraint=eastwest;rounded=1;shadow=0;dashed=0;labelBackgroundColor=none;sketch=0;fillStyle=cross-hatch;strokeColor=#ffffff;fontFamily=Helvetica;fontSize=16;fontColor=#000000;html=1;" parent="oGBta0RcwHTypOkyzDNI-121" vertex="1">
          <mxGeometry y="146" width="350" height="24" as="geometry" />
        </mxCell>
        <mxCell id="oGBta0RcwHTypOkyzDNI-131" value="void*&amp;nbsp; &amp;nbsp; &amp;nbsp; &amp;nbsp; &amp;nbsp; &amp;nbsp; &amp;nbsp; &amp;nbsp; &amp;nbsp; &amp;nbsp; &amp;nbsp; &amp;nbsp; &amp;nbsp; &lt;span style=&quot;white-space: pre;&quot;&gt; &lt;/span&gt;&lt;span style=&quot;white-space: pre;&quot;&gt; &lt;/span&gt;&lt;span style=&quot;white-space: pre;&quot;&gt; &lt;/span&gt;&lt;b&gt;&lt;i&gt;data&lt;/i&gt;&lt;/b&gt;" style="shape=partialRectangle;html=1;whiteSpace=wrap;connectable=0;overflow=hidden;fillColor=none;top=0;left=0;bottom=0;right=0;pointerEvents=1;rounded=1;shadow=0;dashed=0;labelBackgroundColor=none;sketch=0;fillStyle=cross-hatch;strokeColor=#ffffff;fontFamily=Helvetica;fontSize=16;fontColor=#000000;align=left;" parent="oGBta0RcwHTypOkyzDNI-130" vertex="1">
          <mxGeometry width="350" height="24" as="geometry">
            <mxRectangle width="350" height="24" as="alternateBounds" />
          </mxGeometry>
        </mxCell>
        <mxCell id="oGBta0RcwHTypOkyzDNI-132" style="edgeStyle=none;curved=1;sketch=1;orthogonalLoop=1;jettySize=auto;html=1;exitX=1;exitY=0.5;exitDx=0;exitDy=0;entryX=1;entryY=0.5;entryDx=0;entryDy=0;shadow=1;dashed=1;strokeColor=#000000;strokeWidth=1;fontFamily=Helvetica;fontSize=16;fontColor=#000000;startArrow=halfCircle;startFill=0;endArrow=block;endFill=1;elbow=vertical;" parent="1" source="oGBta0RcwHTypOkyzDNI-111" target="oGBta0RcwHTypOkyzDNI-122" edge="1">
          <mxGeometry relative="1" as="geometry">
            <Array as="points">
              <mxPoint x="60" y="1540" />
            </Array>
          </mxGeometry>
        </mxCell>
        <mxCell id="oGBta0RcwHTypOkyzDNI-133" value="&lt;span style=&quot;&quot;&gt;&lt;b&gt;&lt;i&gt;Callback function for handling incoming HTTP requests.&lt;/i&gt;&lt;/b&gt;&lt;/span&gt;" style="text;whiteSpace=wrap;html=1;fontSize=12;fontFamily=Helvetica;align=left;fillColor=default;strokeColor=#36393d;sketch=1;glass=0;rounded=1;fillStyle=cross-hatch;" parent="1" vertex="1">
          <mxGeometry x="53" y="1657.5" width="330" height="25" as="geometry" />
        </mxCell>
        <mxCell id="oGBta0RcwHTypOkyzDNI-134" style="edgeStyle=none;curved=1;sketch=1;orthogonalLoop=1;jettySize=auto;html=1;entryX=0;entryY=0.5;entryDx=0;entryDy=0;shadow=1;dashed=1;strokeColor=#000000;strokeWidth=1;fontFamily=Helvetica;fontSize=12;fontColor=#000000;startArrow=halfCircle;startFill=0;endArrow=block;endFill=1;elbow=vertical;" parent="1" target="oGBta0RcwHTypOkyzDNI-133" edge="1">
          <mxGeometry relative="1" as="geometry">
            <mxPoint x="20" y="1690" as="sourcePoint" />
          </mxGeometry>
        </mxCell>
        <mxCell id="oGBta0RcwHTypOkyzDNI-135" value="&lt;span style=&quot;&quot;&gt;&lt;i style=&quot;&quot;&gt;&lt;b&gt;Callback function for handling session closure.&lt;/b&gt;&lt;/i&gt;&lt;/span&gt;" style="text;whiteSpace=wrap;html=1;fontSize=12;fontFamily=Helvetica;align=left;fillColor=default;strokeColor=#36393d;sketch=1;glass=0;rounded=1;fillStyle=cross-hatch;" parent="1" vertex="1">
          <mxGeometry x="53" y="1697.5" width="280" height="25" as="geometry" />
        </mxCell>
        <mxCell id="oGBta0RcwHTypOkyzDNI-136" style="edgeStyle=none;curved=1;sketch=1;orthogonalLoop=1;jettySize=auto;html=1;entryX=0;entryY=0.5;entryDx=0;entryDy=0;shadow=1;dashed=1;strokeColor=#000000;strokeWidth=1;fontFamily=Helvetica;fontSize=12;fontColor=#000000;startArrow=halfCircle;startFill=0;endArrow=block;endFill=1;elbow=vertical;" parent="1" target="oGBta0RcwHTypOkyzDNI-135" edge="1">
          <mxGeometry relative="1" as="geometry">
            <mxPoint x="20" y="1710" as="sourcePoint" />
          </mxGeometry>
        </mxCell>
        <mxCell id="oGBta0RcwHTypOkyzDNI-137" value="&lt;font style=&quot;font-size: 16px;&quot;&gt;&lt;b&gt;&lt;i&gt;http_session_t&lt;/i&gt;&lt;/b&gt;&lt;/font&gt;" style="shape=table;startSize=40;container=1;collapsible=0;childLayout=tableLayout;rounded=1;shadow=0;dashed=0;labelBackgroundColor=none;sketch=1;fillStyle=cross-hatch;strokeColor=#666666;fontFamily=Helvetica;fontSize=12;fillColor=#f5f5f5;gradientColor=#b3b3b3;html=1;swimlaneFillColor=#FFE599;align=left;" parent="1" vertex="1">
          <mxGeometry x="-690" y="1370" width="310" height="445.5" as="geometry" />
        </mxCell>
        <mxCell id="oGBta0RcwHTypOkyzDNI-138" value="" style="shape=tableRow;horizontal=0;startSize=0;swimlaneHead=0;swimlaneBody=0;top=0;left=0;bottom=0;right=0;collapsible=0;dropTarget=0;fillColor=none;points=[[0,0.5],[1,0.5]];portConstraint=eastwest;rounded=1;shadow=0;dashed=0;labelBackgroundColor=none;sketch=0;fillStyle=cross-hatch;strokeColor=#ffffff;fontFamily=Helvetica;fontSize=12;fontColor=#000000;html=1;" parent="oGBta0RcwHTypOkyzDNI-137" vertex="1">
          <mxGeometry y="40" width="310" height="27" as="geometry" />
        </mxCell>
        <mxCell id="oGBta0RcwHTypOkyzDNI-139" value="&lt;font style=&quot;font-size: 14px;&quot;&gt;evl_t*&amp;nbsp; &amp;nbsp; &amp;nbsp; &amp;nbsp; &amp;nbsp; &amp;nbsp; &amp;nbsp; &amp;nbsp; &amp;nbsp; &amp;nbsp; &lt;i&gt;&lt;b&gt;evl&lt;/b&gt;&lt;/i&gt;&lt;/font&gt;" style="shape=partialRectangle;html=1;whiteSpace=wrap;connectable=0;overflow=hidden;fillColor=none;top=0;left=0;bottom=0;right=0;pointerEvents=1;rounded=1;shadow=0;dashed=0;labelBackgroundColor=none;sketch=0;fillStyle=cross-hatch;strokeColor=#ffffff;fontFamily=Helvetica;fontSize=12;fontColor=#000000;align=left;" parent="oGBta0RcwHTypOkyzDNI-138" vertex="1">
          <mxGeometry width="310" height="27" as="geometry">
            <mxRectangle width="310" height="27" as="alternateBounds" />
          </mxGeometry>
        </mxCell>
        <mxCell id="oGBta0RcwHTypOkyzDNI-140" value="" style="shape=tableRow;horizontal=0;startSize=0;swimlaneHead=0;swimlaneBody=0;top=0;left=0;bottom=0;right=0;collapsible=0;dropTarget=0;fillColor=none;points=[[0,0.5],[1,0.5]];portConstraint=eastwest;rounded=1;shadow=0;dashed=0;labelBackgroundColor=none;sketch=0;fillStyle=cross-hatch;strokeColor=#ffffff;fontFamily=Helvetica;fontSize=14;fontColor=#000000;html=1;" parent="oGBta0RcwHTypOkyzDNI-137" vertex="1">
          <mxGeometry y="67" width="310" height="28" as="geometry" />
        </mxCell>
        <mxCell id="oGBta0RcwHTypOkyzDNI-141" value="evlsock_stream_socket_t*&amp;nbsp; &lt;span style=&quot;white-space: pre; font-size: 14px;&quot;&gt; &lt;/span&gt;&lt;b style=&quot;font-size: 14px;&quot;&gt;&lt;i style=&quot;font-size: 14px;&quot;&gt;stream&lt;/i&gt;&lt;/b&gt;" style="shape=partialRectangle;html=1;whiteSpace=wrap;connectable=0;overflow=hidden;fillColor=none;top=0;left=0;bottom=0;right=0;pointerEvents=1;rounded=1;shadow=0;dashed=0;labelBackgroundColor=none;sketch=0;fillStyle=cross-hatch;strokeColor=#ffffff;fontFamily=Helvetica;fontSize=14;fontColor=#000000;align=left;" parent="oGBta0RcwHTypOkyzDNI-140" vertex="1">
          <mxGeometry width="310" height="28" as="geometry">
            <mxRectangle width="310" height="28" as="alternateBounds" />
          </mxGeometry>
        </mxCell>
        <mxCell id="oGBta0RcwHTypOkyzDNI-142" value="" style="shape=tableRow;horizontal=0;startSize=0;swimlaneHead=0;swimlaneBody=0;top=0;left=0;bottom=0;right=0;collapsible=0;dropTarget=0;fillColor=none;points=[[0,0.5],[1,0.5]];portConstraint=eastwest;rounded=1;shadow=0;dashed=0;labelBackgroundColor=none;sketch=0;fillStyle=cross-hatch;strokeColor=#ffffff;fontFamily=Helvetica;fontSize=14;fontColor=#000000;html=1;" parent="oGBta0RcwHTypOkyzDNI-137" vertex="1">
          <mxGeometry y="95" width="310" height="26" as="geometry" />
        </mxCell>
        <mxCell id="oGBta0RcwHTypOkyzDNI-143" value="http_session_on_connect_t &lt;span style=&quot;white-space: pre; font-size: 14px;&quot;&gt; &lt;/span&gt;&lt;b style=&quot;font-size: 14px;&quot;&gt;&lt;i style=&quot;font-size: 14px;&quot;&gt;on_connect&lt;/i&gt;&lt;/b&gt;" style="shape=partialRectangle;html=1;whiteSpace=wrap;connectable=0;overflow=hidden;fillColor=none;top=0;left=0;bottom=0;right=0;pointerEvents=1;rounded=1;shadow=0;dashed=0;labelBackgroundColor=none;sketch=0;fillStyle=cross-hatch;strokeColor=#ffffff;fontFamily=Helvetica;fontSize=14;fontColor=#000000;align=left;" parent="oGBta0RcwHTypOkyzDNI-142" vertex="1">
          <mxGeometry width="310" height="26" as="geometry">
            <mxRectangle width="310" height="26" as="alternateBounds" />
          </mxGeometry>
        </mxCell>
        <mxCell id="oGBta0RcwHTypOkyzDNI-144" value="" style="shape=tableRow;horizontal=0;startSize=0;swimlaneHead=0;swimlaneBody=0;top=0;left=0;bottom=0;right=0;collapsible=0;dropTarget=0;fillColor=none;points=[[0,0.5],[1,0.5]];portConstraint=eastwest;rounded=1;shadow=0;dashed=0;labelBackgroundColor=none;sketch=0;fillStyle=cross-hatch;strokeColor=#ffffff;fontFamily=Helvetica;fontSize=14;fontColor=#000000;html=1;" parent="oGBta0RcwHTypOkyzDNI-137" vertex="1">
          <mxGeometry y="121" width="310" height="26" as="geometry" />
        </mxCell>
        <mxCell id="oGBta0RcwHTypOkyzDNI-145" value="http_session_on_close_t&amp;nbsp; &amp;nbsp;&lt;span style=&quot;white-space: pre; font-size: 14px;&quot;&gt; &lt;/span&gt;&lt;b style=&quot;font-size: 14px;&quot;&gt;&lt;i style=&quot;font-size: 14px;&quot;&gt;on_close&lt;/i&gt;&lt;/b&gt;" style="shape=partialRectangle;html=1;whiteSpace=wrap;connectable=0;overflow=hidden;fillColor=none;top=0;left=0;bottom=0;right=0;pointerEvents=1;rounded=1;shadow=0;dashed=0;labelBackgroundColor=none;sketch=0;fillStyle=cross-hatch;strokeColor=#ffffff;fontFamily=Helvetica;fontSize=14;fontColor=#000000;align=left;" parent="oGBta0RcwHTypOkyzDNI-144" vertex="1">
          <mxGeometry width="310" height="26" as="geometry">
            <mxRectangle width="310" height="26" as="alternateBounds" />
          </mxGeometry>
        </mxCell>
        <mxCell id="oGBta0RcwHTypOkyzDNI-146" value="" style="shape=tableRow;horizontal=0;startSize=0;swimlaneHead=0;swimlaneBody=0;top=0;left=0;bottom=0;right=0;collapsible=0;dropTarget=0;fillColor=none;points=[[0,0.5],[1,0.5]];portConstraint=eastwest;rounded=1;shadow=0;dashed=0;labelBackgroundColor=none;sketch=0;fillStyle=cross-hatch;strokeColor=#ffffff;fontFamily=Helvetica;fontSize=14;fontColor=#000000;html=1;" parent="oGBta0RcwHTypOkyzDNI-137" vertex="1">
          <mxGeometry y="147" width="310" height="30" as="geometry" />
        </mxCell>
        <mxCell id="oGBta0RcwHTypOkyzDNI-147" value="http_stream_on_request_t&amp;nbsp; &lt;span style=&quot;white-space: pre; font-size: 14px;&quot;&gt; &lt;/span&gt;&lt;b style=&quot;font-size: 14px;&quot;&gt;&lt;i style=&quot;font-size: 14px;&quot;&gt;on_request&lt;/i&gt;&lt;/b&gt;" style="shape=partialRectangle;html=1;whiteSpace=wrap;connectable=0;overflow=hidden;fillColor=none;top=0;left=0;bottom=0;right=0;pointerEvents=1;rounded=1;shadow=0;dashed=0;labelBackgroundColor=none;sketch=0;fillStyle=cross-hatch;strokeColor=#ffffff;fontFamily=Helvetica;fontSize=14;fontColor=#000000;align=left;" parent="oGBta0RcwHTypOkyzDNI-146" vertex="1">
          <mxGeometry width="310" height="30" as="geometry">
            <mxRectangle width="310" height="30" as="alternateBounds" />
          </mxGeometry>
        </mxCell>
        <mxCell id="oGBta0RcwHTypOkyzDNI-148" value="" style="shape=tableRow;horizontal=0;startSize=0;swimlaneHead=0;swimlaneBody=0;top=0;left=0;bottom=0;right=0;collapsible=0;dropTarget=0;fillColor=none;points=[[0,0.5],[1,0.5]];portConstraint=eastwest;rounded=1;shadow=0;dashed=0;labelBackgroundColor=none;sketch=0;fillStyle=cross-hatch;strokeColor=#ffffff;fontFamily=Helvetica;fontSize=14;fontColor=#000000;html=1;" parent="oGBta0RcwHTypOkyzDNI-137" vertex="1">
          <mxGeometry y="177" width="310" height="26" as="geometry" />
        </mxCell>
        <mxCell id="oGBta0RcwHTypOkyzDNI-149" value="http_message_factory_t*&amp;nbsp; &amp;nbsp;&lt;span style=&quot;white-space: pre; font-size: 14px;&quot;&gt; &lt;/span&gt;&lt;b style=&quot;font-size: 14px;&quot;&gt;&lt;i style=&quot;font-size: 14px;&quot;&gt;message_factory&lt;/i&gt;&lt;/b&gt;" style="shape=partialRectangle;html=1;whiteSpace=wrap;connectable=0;overflow=hidden;fillColor=none;top=0;left=0;bottom=0;right=0;pointerEvents=1;rounded=1;shadow=0;dashed=0;labelBackgroundColor=none;sketch=0;fillStyle=cross-hatch;strokeColor=#ffffff;fontFamily=Helvetica;fontSize=14;fontColor=#000000;align=left;" parent="oGBta0RcwHTypOkyzDNI-148" vertex="1">
          <mxGeometry width="310" height="26" as="geometry">
            <mxRectangle width="310" height="26" as="alternateBounds" />
          </mxGeometry>
        </mxCell>
        <mxCell id="oGBta0RcwHTypOkyzDNI-150" value="" style="shape=tableRow;horizontal=0;startSize=0;swimlaneHead=0;swimlaneBody=0;top=0;left=0;bottom=0;right=0;collapsible=0;dropTarget=0;fillColor=none;points=[[0,0.5],[1,0.5]];portConstraint=eastwest;rounded=1;shadow=0;dashed=0;labelBackgroundColor=none;sketch=0;fillStyle=cross-hatch;strokeColor=#ffffff;fontFamily=Helvetica;fontSize=14;fontColor=#000000;html=1;" parent="oGBta0RcwHTypOkyzDNI-137" vertex="1">
          <mxGeometry y="203" width="310" height="26" as="geometry" />
        </mxCell>
        <mxCell id="oGBta0RcwHTypOkyzDNI-151" value="http_version_t&amp;nbsp; &amp;nbsp; &amp;nbsp; &amp;nbsp; &amp;nbsp; &amp;nbsp; &lt;span style=&quot;white-space: pre; font-size: 14px;&quot;&gt; &lt;/span&gt;&lt;span style=&quot;white-space: pre; font-size: 14px;&quot;&gt; &lt;/span&gt;&lt;b style=&quot;font-size: 14px;&quot;&gt;&lt;i style=&quot;font-size: 14px;&quot;&gt;version&lt;/i&gt;&lt;/b&gt;" style="shape=partialRectangle;html=1;whiteSpace=wrap;connectable=0;overflow=hidden;fillColor=none;top=0;left=0;bottom=0;right=0;pointerEvents=1;rounded=1;shadow=0;dashed=0;labelBackgroundColor=none;sketch=0;fillStyle=cross-hatch;strokeColor=#ffffff;fontFamily=Helvetica;fontSize=14;fontColor=#000000;align=left;" parent="oGBta0RcwHTypOkyzDNI-150" vertex="1">
          <mxGeometry width="310" height="26" as="geometry">
            <mxRectangle width="310" height="26" as="alternateBounds" />
          </mxGeometry>
        </mxCell>
        <mxCell id="oGBta0RcwHTypOkyzDNI-152" value="" style="shape=tableRow;horizontal=0;startSize=0;swimlaneHead=0;swimlaneBody=0;top=0;left=0;bottom=0;right=0;collapsible=0;dropTarget=0;fillColor=none;points=[[0,0.5],[1,0.5]];portConstraint=eastwest;rounded=1;shadow=0;dashed=0;labelBackgroundColor=none;sketch=0;fillStyle=cross-hatch;strokeColor=#ffffff;fontFamily=Helvetica;fontSize=14;fontColor=#000000;html=1;" parent="oGBta0RcwHTypOkyzDNI-137" vertex="1">
          <mxGeometry y="229" width="310" height="29" as="geometry" />
        </mxCell>
        <mxCell id="oGBta0RcwHTypOkyzDNI-153" value="bool&amp;nbsp; &amp;nbsp; &amp;nbsp; &amp;nbsp; &amp;nbsp; &amp;nbsp; &amp;nbsp; &amp;nbsp; &amp;nbsp; &amp;nbsp; &amp;nbsp; &lt;span style=&quot;white-space: pre; font-size: 14px;&quot;&gt; &lt;/span&gt;&lt;span style=&quot;white-space: pre; font-size: 14px;&quot;&gt; &lt;/span&gt;&lt;span style=&quot;white-space: pre; font-size: 14px;&quot;&gt; &lt;/span&gt;&lt;b style=&quot;font-size: 14px;&quot;&gt;&lt;i style=&quot;font-size: 14px;&quot;&gt;initialized&lt;/i&gt;&lt;/b&gt;" style="shape=partialRectangle;html=1;whiteSpace=wrap;connectable=0;overflow=hidden;fillColor=none;top=0;left=0;bottom=0;right=0;pointerEvents=1;rounded=1;shadow=0;dashed=0;labelBackgroundColor=none;sketch=0;fillStyle=cross-hatch;strokeColor=#ffffff;fontFamily=Helvetica;fontSize=14;fontColor=#000000;align=left;" parent="oGBta0RcwHTypOkyzDNI-152" vertex="1">
          <mxGeometry width="310" height="29" as="geometry">
            <mxRectangle width="310" height="29" as="alternateBounds" />
          </mxGeometry>
        </mxCell>
        <mxCell id="oGBta0RcwHTypOkyzDNI-154" value="" style="shape=tableRow;horizontal=0;startSize=0;swimlaneHead=0;swimlaneBody=0;top=0;left=0;bottom=0;right=0;collapsible=0;dropTarget=0;fillColor=none;points=[[0,0.5],[1,0.5]];portConstraint=eastwest;rounded=1;shadow=0;dashed=0;labelBackgroundColor=none;sketch=0;fillStyle=cross-hatch;strokeColor=#ffffff;fontFamily=Helvetica;fontSize=14;fontColor=#000000;html=1;" parent="oGBta0RcwHTypOkyzDNI-137" vertex="1">
          <mxGeometry y="258" width="310" height="27" as="geometry" />
        </mxCell>
        <mxCell id="oGBta0RcwHTypOkyzDNI-155" value="bool&amp;nbsp; &amp;nbsp; &amp;nbsp; &amp;nbsp; &amp;nbsp; &amp;nbsp; &amp;nbsp; &amp;nbsp; &amp;nbsp; &amp;nbsp; &amp;nbsp; &lt;span style=&quot;white-space: pre; font-size: 14px;&quot;&gt; &lt;/span&gt;&lt;span style=&quot;white-space: pre; font-size: 14px;&quot;&gt; &lt;/span&gt;&lt;span style=&quot;white-space: pre; font-size: 14px;&quot;&gt; &lt;/span&gt;&lt;b style=&quot;font-size: 14px;&quot;&gt;&lt;i style=&quot;font-size: 14px;&quot;&gt;server&lt;/i&gt;&lt;/b&gt;" style="shape=partialRectangle;html=1;whiteSpace=wrap;connectable=0;overflow=hidden;fillColor=none;top=0;left=0;bottom=0;right=0;pointerEvents=1;rounded=1;shadow=0;dashed=0;labelBackgroundColor=none;sketch=0;fillStyle=cross-hatch;strokeColor=#ffffff;fontFamily=Helvetica;fontSize=14;fontColor=#000000;align=left;" parent="oGBta0RcwHTypOkyzDNI-154" vertex="1">
          <mxGeometry width="310" height="27" as="geometry">
            <mxRectangle width="310" height="27" as="alternateBounds" />
          </mxGeometry>
        </mxCell>
        <mxCell id="oGBta0RcwHTypOkyzDNI-156" value="" style="shape=tableRow;horizontal=0;startSize=0;swimlaneHead=0;swimlaneBody=0;top=0;left=0;bottom=0;right=0;collapsible=0;dropTarget=0;fillColor=none;points=[[0,0.5],[1,0.5]];portConstraint=eastwest;rounded=1;shadow=0;dashed=0;labelBackgroundColor=none;sketch=0;fillStyle=cross-hatch;strokeColor=#ffffff;fontFamily=Helvetica;fontSize=14;fontColor=#000000;html=1;" parent="oGBta0RcwHTypOkyzDNI-137" vertex="1">
          <mxGeometry y="285" width="310" height="26" as="geometry" />
        </mxCell>
        <mxCell id="oGBta0RcwHTypOkyzDNI-157" value="avl_tree_t*&amp;nbsp; &amp;nbsp; &amp;nbsp; &amp;nbsp; &amp;nbsp; &amp;nbsp; &amp;nbsp; &amp;nbsp;&lt;span style=&quot;white-space: pre; font-size: 14px;&quot;&gt; &lt;/span&gt;&lt;span style=&quot;white-space: pre; font-size: 14px;&quot;&gt; &lt;/span&gt;&lt;b style=&quot;font-size: 14px;&quot;&gt;&lt;i style=&quot;font-size: 14px;&quot;&gt;http_stream_map&lt;/i&gt;&lt;/b&gt;" style="shape=partialRectangle;html=1;whiteSpace=wrap;connectable=0;overflow=hidden;fillColor=none;top=0;left=0;bottom=0;right=0;pointerEvents=1;rounded=1;shadow=0;dashed=0;labelBackgroundColor=none;sketch=0;fillStyle=cross-hatch;strokeColor=#ffffff;fontFamily=Helvetica;fontSize=14;fontColor=#000000;align=left;" parent="oGBta0RcwHTypOkyzDNI-156" vertex="1">
          <mxGeometry width="310" height="26" as="geometry">
            <mxRectangle width="310" height="26" as="alternateBounds" />
          </mxGeometry>
        </mxCell>
        <mxCell id="oGBta0RcwHTypOkyzDNI-158" value="" style="shape=tableRow;horizontal=0;startSize=0;swimlaneHead=0;swimlaneBody=0;top=0;left=0;bottom=0;right=0;collapsible=0;dropTarget=0;fillColor=none;points=[[0,0.5],[1,0.5]];portConstraint=eastwest;rounded=1;shadow=0;dashed=0;labelBackgroundColor=none;sketch=0;fillStyle=cross-hatch;strokeColor=#ffffff;fontFamily=Helvetica;fontSize=14;fontColor=#000000;html=1;" parent="oGBta0RcwHTypOkyzDNI-137" vertex="1">
          <mxGeometry y="311" width="310" height="28" as="geometry" />
        </mxCell>
        <mxCell id="oGBta0RcwHTypOkyzDNI-159" value="int&amp;nbsp; &amp;nbsp; &amp;nbsp; &amp;nbsp; &amp;nbsp; &amp;nbsp; &amp;nbsp; &amp;nbsp; &amp;nbsp; &amp;nbsp; &amp;nbsp; &amp;nbsp;&lt;span style=&quot;white-space: pre; font-size: 14px;&quot;&gt; &lt;/span&gt;&lt;span style=&quot;white-space: pre; font-size: 14px;&quot;&gt; &lt;/span&gt;&lt;span style=&quot;white-space: pre; font-size: 14px;&quot;&gt; &lt;/span&gt;&lt;b style=&quot;font-size: 14px;&quot;&gt;&lt;i style=&quot;font-size: 14px;&quot;&gt;ref_count&lt;/i&gt;&lt;/b&gt;" style="shape=partialRectangle;html=1;whiteSpace=wrap;connectable=0;overflow=hidden;fillColor=none;top=0;left=0;bottom=0;right=0;pointerEvents=1;rounded=1;shadow=0;dashed=0;labelBackgroundColor=none;sketch=0;fillStyle=cross-hatch;strokeColor=#ffffff;fontFamily=Helvetica;fontSize=14;fontColor=#000000;align=left;" parent="oGBta0RcwHTypOkyzDNI-158" vertex="1">
          <mxGeometry width="310" height="28" as="geometry">
            <mxRectangle width="310" height="28" as="alternateBounds" />
          </mxGeometry>
        </mxCell>
        <mxCell id="oGBta0RcwHTypOkyzDNI-160" value="" style="shape=tableRow;horizontal=0;startSize=0;swimlaneHead=0;swimlaneBody=0;top=0;left=0;bottom=0;right=0;collapsible=0;dropTarget=0;fillColor=none;points=[[0,0.5],[1,0.5]];portConstraint=eastwest;rounded=1;shadow=0;dashed=0;labelBackgroundColor=none;sketch=0;fillStyle=cross-hatch;strokeColor=#ffffff;fontFamily=Helvetica;fontSize=14;fontColor=#000000;html=1;" parent="oGBta0RcwHTypOkyzDNI-137" vertex="1">
          <mxGeometry y="339" width="310" height="26" as="geometry" />
        </mxCell>
        <mxCell id="oGBta0RcwHTypOkyzDNI-161" value="nghttp2_session*&amp;nbsp; &lt;span style=&quot;white-space: pre; font-size: 14px;&quot;&gt; &lt;/span&gt;&lt;span style=&quot;white-space: pre; font-size: 14px;&quot;&gt; &lt;/span&gt;&lt;span style=&quot;white-space: pre; font-size: 14px;&quot;&gt; &lt;/span&gt;&lt;b style=&quot;font-size: 14px;&quot;&gt;&lt;i style=&quot;font-size: 14px;&quot;&gt;nghttp2_session&lt;/i&gt;&lt;/b&gt;" style="shape=partialRectangle;html=1;whiteSpace=wrap;connectable=0;overflow=hidden;fillColor=none;top=0;left=0;bottom=0;right=0;pointerEvents=1;rounded=1;shadow=0;dashed=0;labelBackgroundColor=none;sketch=0;fillStyle=cross-hatch;strokeColor=#ffffff;fontFamily=Helvetica;fontSize=14;fontColor=#000000;align=left;" parent="oGBta0RcwHTypOkyzDNI-160" vertex="1">
          <mxGeometry width="310" height="26" as="geometry">
            <mxRectangle width="310" height="26" as="alternateBounds" />
          </mxGeometry>
        </mxCell>
        <mxCell id="oGBta0RcwHTypOkyzDNI-162" value="" style="shape=tableRow;horizontal=0;startSize=0;swimlaneHead=0;swimlaneBody=0;top=0;left=0;bottom=0;right=0;collapsible=0;dropTarget=0;fillColor=none;points=[[0,0.5],[1,0.5]];portConstraint=eastwest;rounded=1;shadow=0;dashed=0;labelBackgroundColor=none;sketch=0;fillStyle=cross-hatch;strokeColor=#ffffff;fontFamily=Helvetica;fontSize=14;fontColor=#000000;html=1;" parent="oGBta0RcwHTypOkyzDNI-137" vertex="1">
          <mxGeometry y="365" width="310" height="28" as="geometry" />
        </mxCell>
        <mxCell id="oGBta0RcwHTypOkyzDNI-163" value="evl_defer_t&amp;nbsp; &amp;nbsp; &amp;nbsp; &amp;nbsp; &amp;nbsp; &amp;nbsp; &amp;nbsp; &amp;nbsp;&lt;b style=&quot;font-size: 14px;&quot;&gt;&lt;i style=&quot;font-size: 14px;&quot;&gt;defer_close&lt;/i&gt;&lt;/b&gt;" style="shape=partialRectangle;html=1;whiteSpace=wrap;connectable=0;overflow=hidden;fillColor=none;top=0;left=0;bottom=0;right=0;pointerEvents=1;rounded=1;shadow=0;dashed=0;labelBackgroundColor=none;sketch=0;fillStyle=cross-hatch;strokeColor=#ffffff;fontFamily=Helvetica;fontSize=14;fontColor=#000000;align=left;" parent="oGBta0RcwHTypOkyzDNI-162" vertex="1">
          <mxGeometry width="310" height="28" as="geometry">
            <mxRectangle width="310" height="28" as="alternateBounds" />
          </mxGeometry>
        </mxCell>
        <mxCell id="oGBta0RcwHTypOkyzDNI-164" value="" style="shape=tableRow;horizontal=0;startSize=0;swimlaneHead=0;swimlaneBody=0;top=0;left=0;bottom=0;right=0;collapsible=0;dropTarget=0;fillColor=none;points=[[0,0.5],[1,0.5]];portConstraint=eastwest;rounded=1;shadow=0;dashed=0;labelBackgroundColor=none;sketch=0;fillStyle=cross-hatch;strokeColor=#ffffff;fontFamily=Helvetica;fontSize=14;fontColor=#000000;html=1;" parent="oGBta0RcwHTypOkyzDNI-137" vertex="1">
          <mxGeometry y="393" width="310" height="28" as="geometry" />
        </mxCell>
        <mxCell id="oGBta0RcwHTypOkyzDNI-165" value="evl_defer_t&amp;nbsp; &amp;nbsp; &amp;nbsp; &amp;nbsp; &amp;nbsp; &amp;nbsp; &amp;nbsp; &amp;nbsp;&lt;b style=&quot;font-size: 14px;&quot;&gt;&lt;i style=&quot;font-size: 14px;&quot;&gt;defer_on_close&lt;/i&gt;&lt;/b&gt;" style="shape=partialRectangle;html=1;whiteSpace=wrap;connectable=0;overflow=hidden;fillColor=none;top=0;left=0;bottom=0;right=0;pointerEvents=1;rounded=1;shadow=0;dashed=0;labelBackgroundColor=none;sketch=0;fillStyle=cross-hatch;strokeColor=#ffffff;fontFamily=Helvetica;fontSize=14;fontColor=#000000;align=left;" parent="oGBta0RcwHTypOkyzDNI-164" vertex="1">
          <mxGeometry width="310" height="28" as="geometry">
            <mxRectangle width="310" height="28" as="alternateBounds" />
          </mxGeometry>
        </mxCell>
        <mxCell id="oGBta0RcwHTypOkyzDNI-166" value="" style="shape=tableRow;horizontal=0;startSize=0;swimlaneHead=0;swimlaneBody=0;top=0;left=0;bottom=0;right=0;collapsible=0;dropTarget=0;fillColor=none;points=[[0,0.5],[1,0.5]];portConstraint=eastwest;rounded=1;shadow=0;dashed=0;labelBackgroundColor=none;sketch=0;fillStyle=cross-hatch;strokeColor=#ffffff;fontFamily=Helvetica;fontSize=14;fontColor=#000000;html=1;" parent="oGBta0RcwHTypOkyzDNI-137" vertex="1">
          <mxGeometry y="421" width="310" height="25" as="geometry" />
        </mxCell>
        <mxCell id="oGBta0RcwHTypOkyzDNI-167" value="evl_defer_t&amp;nbsp; &amp;nbsp; &amp;nbsp; &amp;nbsp; &amp;nbsp; &amp;nbsp; &amp;nbsp; &amp;nbsp;&lt;b style=&quot;font-size: 14px;&quot;&gt;&lt;i style=&quot;font-size: 14px;&quot;&gt;defer_read&lt;/i&gt;&lt;/b&gt;" style="shape=partialRectangle;html=1;whiteSpace=wrap;connectable=0;overflow=hidden;fillColor=none;top=0;left=0;bottom=0;right=0;pointerEvents=1;rounded=1;shadow=0;dashed=0;labelBackgroundColor=none;sketch=0;fillStyle=cross-hatch;strokeColor=#ffffff;fontFamily=Helvetica;fontSize=14;fontColor=#000000;align=left;" parent="oGBta0RcwHTypOkyzDNI-166" vertex="1">
          <mxGeometry width="310" height="25" as="geometry">
            <mxRectangle width="310" height="25" as="alternateBounds" />
          </mxGeometry>
        </mxCell>
        <mxCell id="oGBta0RcwHTypOkyzDNI-168" style="edgeStyle=none;curved=1;sketch=1;orthogonalLoop=1;jettySize=auto;html=1;exitX=0;exitY=0.5;exitDx=0;exitDy=0;entryX=1.017;entryY=0.058;entryDx=0;entryDy=0;shadow=1;dashed=1;strokeColor=#000000;strokeWidth=1;fontFamily=Helvetica;fontSize=14;fontColor=#000000;startArrow=oval;startFill=1;endArrow=halfCircle;endFill=0;elbow=vertical;entryPerimeter=0;" parent="1" source="oGBta0RcwHTypOkyzDNI-113" target="oGBta0RcwHTypOkyzDNI-137" edge="1">
          <mxGeometry relative="1" as="geometry" />
        </mxCell>
        <mxCell id="oGBta0RcwHTypOkyzDNI-169" value="&lt;b&gt;&lt;i&gt;&lt;font style=&quot;font-size: 16px;&quot;&gt;evlsock_socket_t&lt;/font&gt;&lt;/i&gt;&lt;/b&gt;" style="shape=table;startSize=50;container=1;collapsible=0;childLayout=tableLayout;rounded=1;shadow=0;dashed=0;labelBackgroundColor=none;sketch=1;fillStyle=zigzag;strokeColor=#6c8ebf;fontFamily=Helvetica;fontSize=14;fillColor=#dae8fc;gradientColor=#7ea6e0;html=1;align=left;swimlaneFillColor=#FF99CC;" parent="1" vertex="1">
          <mxGeometry x="-1180" y="1370" width="210" height="340" as="geometry" />
        </mxCell>
        <mxCell id="oGBta0RcwHTypOkyzDNI-170" value="" style="shape=tableRow;horizontal=0;startSize=0;swimlaneHead=0;swimlaneBody=0;top=0;left=0;bottom=0;right=0;collapsible=0;dropTarget=0;fillColor=none;points=[[0,0.5],[1,0.5]];portConstraint=eastwest;rounded=1;shadow=0;dashed=0;labelBackgroundColor=none;sketch=0;fillStyle=cross-hatch;strokeColor=#ffffff;fontFamily=Helvetica;fontSize=14;fontColor=#000000;html=1;" parent="oGBta0RcwHTypOkyzDNI-169" vertex="1">
          <mxGeometry y="50" width="210" height="29" as="geometry" />
        </mxCell>
        <mxCell id="oGBta0RcwHTypOkyzDNI-171" value="void &lt;span style=&quot;white-space: pre;&quot;&gt; &lt;/span&gt;&lt;b&gt;&lt;i&gt;(*close)&lt;/i&gt;&lt;/b&gt;" style="shape=partialRectangle;html=1;whiteSpace=wrap;connectable=0;overflow=hidden;fillColor=none;top=0;left=0;bottom=0;right=0;pointerEvents=1;rounded=1;shadow=0;dashed=0;labelBackgroundColor=none;sketch=0;fillStyle=cross-hatch;strokeColor=#ffffff;fontFamily=Helvetica;fontSize=14;fontColor=#000000;align=left;" parent="oGBta0RcwHTypOkyzDNI-170" vertex="1">
          <mxGeometry width="210" height="29" as="geometry">
            <mxRectangle width="210" height="29" as="alternateBounds" />
          </mxGeometry>
        </mxCell>
        <mxCell id="oGBta0RcwHTypOkyzDNI-172" value="" style="shape=tableRow;horizontal=0;startSize=0;swimlaneHead=0;swimlaneBody=0;top=0;left=0;bottom=0;right=0;collapsible=0;dropTarget=0;fillColor=none;points=[[0,0.5],[1,0.5]];portConstraint=eastwest;rounded=1;shadow=0;dashed=0;labelBackgroundColor=none;sketch=0;fillStyle=cross-hatch;strokeColor=#ffffff;fontFamily=Helvetica;fontSize=14;fontColor=#000000;html=1;" parent="oGBta0RcwHTypOkyzDNI-169" vertex="1">
          <mxGeometry y="79" width="210" height="29" as="geometry" />
        </mxCell>
        <mxCell id="oGBta0RcwHTypOkyzDNI-173" value="bool &lt;span style=&quot;white-space: pre;&quot;&gt; &lt;/span&gt;&lt;b&gt;&lt;i&gt;(*is_closed)&lt;/i&gt;&lt;/b&gt;" style="shape=partialRectangle;html=1;whiteSpace=wrap;connectable=0;overflow=hidden;fillColor=none;top=0;left=0;bottom=0;right=0;pointerEvents=1;rounded=1;shadow=0;dashed=0;labelBackgroundColor=none;sketch=0;fillStyle=cross-hatch;strokeColor=#ffffff;fontFamily=Helvetica;fontSize=14;fontColor=#000000;align=left;" parent="oGBta0RcwHTypOkyzDNI-172" vertex="1">
          <mxGeometry width="210" height="29" as="geometry">
            <mxRectangle width="210" height="29" as="alternateBounds" />
          </mxGeometry>
        </mxCell>
        <mxCell id="oGBta0RcwHTypOkyzDNI-174" value="" style="shape=tableRow;horizontal=0;startSize=0;swimlaneHead=0;swimlaneBody=0;top=0;left=0;bottom=0;right=0;collapsible=0;dropTarget=0;fillColor=none;points=[[0,0.5],[1,0.5]];portConstraint=eastwest;rounded=1;shadow=0;dashed=0;labelBackgroundColor=none;sketch=0;fillStyle=cross-hatch;strokeColor=#ffffff;fontFamily=Helvetica;fontSize=14;fontColor=#000000;html=1;" parent="oGBta0RcwHTypOkyzDNI-169" vertex="1">
          <mxGeometry y="108" width="210" height="29" as="geometry" />
        </mxCell>
        <mxCell id="oGBta0RcwHTypOkyzDNI-175" value="bool &lt;span style=&quot;white-space: pre;&quot;&gt; &lt;/span&gt;&lt;b&gt;&lt;i&gt;(*is_api_close)&lt;/i&gt;&lt;/b&gt;" style="shape=partialRectangle;html=1;whiteSpace=wrap;connectable=0;overflow=hidden;fillColor=none;top=0;left=0;bottom=0;right=0;pointerEvents=1;rounded=1;shadow=0;dashed=0;labelBackgroundColor=none;sketch=0;fillStyle=cross-hatch;strokeColor=#ffffff;fontFamily=Helvetica;fontSize=14;fontColor=#000000;align=left;" parent="oGBta0RcwHTypOkyzDNI-174" vertex="1">
          <mxGeometry width="210" height="29" as="geometry">
            <mxRectangle width="210" height="29" as="alternateBounds" />
          </mxGeometry>
        </mxCell>
        <mxCell id="oGBta0RcwHTypOkyzDNI-176" value="" style="shape=tableRow;horizontal=0;startSize=0;swimlaneHead=0;swimlaneBody=0;top=0;left=0;bottom=0;right=0;collapsible=0;dropTarget=0;fillColor=none;points=[[0,0.5],[1,0.5]];portConstraint=eastwest;rounded=1;shadow=0;dashed=0;labelBackgroundColor=none;sketch=0;fillStyle=cross-hatch;strokeColor=#ffffff;fontFamily=Helvetica;fontSize=14;fontColor=#000000;html=1;" parent="oGBta0RcwHTypOkyzDNI-169" vertex="1">
          <mxGeometry y="137" width="210" height="29" as="geometry" />
        </mxCell>
        <mxCell id="oGBta0RcwHTypOkyzDNI-177" value="bool &lt;span style=&quot;white-space: pre;&quot;&gt; &lt;/span&gt;&lt;b&gt;&lt;i&gt;(*get_read_buf_size)&lt;/i&gt;&lt;/b&gt;" style="shape=partialRectangle;html=1;whiteSpace=wrap;connectable=0;overflow=hidden;fillColor=none;top=0;left=0;bottom=0;right=0;pointerEvents=1;rounded=1;shadow=0;dashed=0;labelBackgroundColor=none;sketch=0;fillStyle=cross-hatch;strokeColor=#ffffff;fontFamily=Helvetica;fontSize=14;fontColor=#000000;align=left;" parent="oGBta0RcwHTypOkyzDNI-176" vertex="1">
          <mxGeometry width="210" height="29" as="geometry">
            <mxRectangle width="210" height="29" as="alternateBounds" />
          </mxGeometry>
        </mxCell>
        <mxCell id="oGBta0RcwHTypOkyzDNI-178" value="" style="shape=tableRow;horizontal=0;startSize=0;swimlaneHead=0;swimlaneBody=0;top=0;left=0;bottom=0;right=0;collapsible=0;dropTarget=0;fillColor=none;points=[[0,0.5],[1,0.5]];portConstraint=eastwest;rounded=1;shadow=0;dashed=0;labelBackgroundColor=none;sketch=0;fillStyle=cross-hatch;strokeColor=#ffffff;fontFamily=Helvetica;fontSize=14;fontColor=#000000;html=1;" parent="oGBta0RcwHTypOkyzDNI-169" vertex="1">
          <mxGeometry y="166" width="210" height="29" as="geometry" />
        </mxCell>
        <mxCell id="oGBta0RcwHTypOkyzDNI-179" value="bool &lt;span style=&quot;white-space: pre;&quot;&gt; &lt;/span&gt;&lt;b&gt;&lt;i&gt;(*get_write_buf_size)&lt;/i&gt;&lt;/b&gt;" style="shape=partialRectangle;html=1;whiteSpace=wrap;connectable=0;overflow=hidden;fillColor=none;top=0;left=0;bottom=0;right=0;pointerEvents=1;rounded=1;shadow=0;dashed=0;labelBackgroundColor=none;sketch=0;fillStyle=cross-hatch;strokeColor=#ffffff;fontFamily=Helvetica;fontSize=14;fontColor=#000000;align=left;" parent="oGBta0RcwHTypOkyzDNI-178" vertex="1">
          <mxGeometry width="210" height="29" as="geometry">
            <mxRectangle width="210" height="29" as="alternateBounds" />
          </mxGeometry>
        </mxCell>
        <mxCell id="oGBta0RcwHTypOkyzDNI-180" value="" style="shape=tableRow;horizontal=0;startSize=0;swimlaneHead=0;swimlaneBody=0;top=0;left=0;bottom=0;right=0;collapsible=0;dropTarget=0;fillColor=none;points=[[0,0.5],[1,0.5]];portConstraint=eastwest;rounded=1;shadow=0;dashed=0;labelBackgroundColor=none;sketch=0;fillStyle=cross-hatch;strokeColor=#ffffff;fontFamily=Helvetica;fontSize=14;fontColor=#000000;html=1;" parent="oGBta0RcwHTypOkyzDNI-169" vertex="1">
          <mxGeometry y="195" width="210" height="29" as="geometry" />
        </mxCell>
        <mxCell id="oGBta0RcwHTypOkyzDNI-181" value="bool &lt;span style=&quot;white-space: pre;&quot;&gt; &lt;/span&gt;&lt;b&gt;&lt;i&gt;(*have_error_string)&lt;/i&gt;&lt;/b&gt;" style="shape=partialRectangle;html=1;whiteSpace=wrap;connectable=0;overflow=hidden;fillColor=none;top=0;left=0;bottom=0;right=0;pointerEvents=1;rounded=1;shadow=0;dashed=0;labelBackgroundColor=none;sketch=0;fillStyle=cross-hatch;strokeColor=#ffffff;fontFamily=Helvetica;fontSize=14;fontColor=#000000;align=left;" parent="oGBta0RcwHTypOkyzDNI-180" vertex="1">
          <mxGeometry width="210" height="29" as="geometry">
            <mxRectangle width="210" height="29" as="alternateBounds" />
          </mxGeometry>
        </mxCell>
        <mxCell id="oGBta0RcwHTypOkyzDNI-182" value="" style="shape=tableRow;horizontal=0;startSize=0;swimlaneHead=0;swimlaneBody=0;top=0;left=0;bottom=0;right=0;collapsible=0;dropTarget=0;fillColor=none;points=[[0,0.5],[1,0.5]];portConstraint=eastwest;rounded=1;shadow=0;dashed=0;labelBackgroundColor=none;sketch=0;fillStyle=cross-hatch;strokeColor=#ffffff;fontFamily=Helvetica;fontSize=14;fontColor=#000000;html=1;" parent="oGBta0RcwHTypOkyzDNI-169" vertex="1">
          <mxGeometry y="224" width="210" height="29" as="geometry" />
        </mxCell>
        <mxCell id="oGBta0RcwHTypOkyzDNI-183" value="const char* &lt;b&gt;&lt;i&gt;(*get_error_string)&lt;/i&gt;&lt;/b&gt;" style="shape=partialRectangle;html=1;whiteSpace=wrap;connectable=0;overflow=hidden;fillColor=none;top=0;left=0;bottom=0;right=0;pointerEvents=1;rounded=1;shadow=0;dashed=0;labelBackgroundColor=none;sketch=0;fillStyle=cross-hatch;strokeColor=#ffffff;fontFamily=Helvetica;fontSize=14;fontColor=#000000;align=left;" parent="oGBta0RcwHTypOkyzDNI-182" vertex="1">
          <mxGeometry width="210" height="29" as="geometry">
            <mxRectangle width="210" height="29" as="alternateBounds" />
          </mxGeometry>
        </mxCell>
        <mxCell id="oGBta0RcwHTypOkyzDNI-184" value="" style="shape=tableRow;horizontal=0;startSize=0;swimlaneHead=0;swimlaneBody=0;top=0;left=0;bottom=0;right=0;collapsible=0;dropTarget=0;fillColor=none;points=[[0,0.5],[1,0.5]];portConstraint=eastwest;rounded=1;shadow=0;dashed=0;labelBackgroundColor=none;sketch=0;fillStyle=cross-hatch;strokeColor=#ffffff;fontFamily=Helvetica;fontSize=14;fontColor=#000000;html=1;" parent="oGBta0RcwHTypOkyzDNI-169" vertex="1">
          <mxGeometry y="253" width="210" height="29" as="geometry" />
        </mxCell>
        <mxCell id="oGBta0RcwHTypOkyzDNI-185" value="bool &lt;span style=&quot;white-space: pre;&quot;&gt; &lt;/span&gt;&lt;b&gt;&lt;i&gt;(*set_read_buf_size)&lt;/i&gt;&lt;/b&gt;" style="shape=partialRectangle;html=1;whiteSpace=wrap;connectable=0;overflow=hidden;fillColor=none;top=0;left=0;bottom=0;right=0;pointerEvents=1;rounded=1;shadow=0;dashed=0;labelBackgroundColor=none;sketch=0;fillStyle=cross-hatch;strokeColor=#ffffff;fontFamily=Helvetica;fontSize=14;fontColor=#000000;align=left;" parent="oGBta0RcwHTypOkyzDNI-184" vertex="1">
          <mxGeometry width="210" height="29" as="geometry">
            <mxRectangle width="210" height="29" as="alternateBounds" />
          </mxGeometry>
        </mxCell>
        <mxCell id="oGBta0RcwHTypOkyzDNI-186" value="" style="shape=tableRow;horizontal=0;startSize=0;swimlaneHead=0;swimlaneBody=0;top=0;left=0;bottom=0;right=0;collapsible=0;dropTarget=0;fillColor=none;points=[[0,0.5],[1,0.5]];portConstraint=eastwest;rounded=1;shadow=0;dashed=0;labelBackgroundColor=none;sketch=0;fillStyle=cross-hatch;strokeColor=#ffffff;fontFamily=Helvetica;fontSize=14;fontColor=#000000;html=1;" parent="oGBta0RcwHTypOkyzDNI-169" vertex="1">
          <mxGeometry y="282" width="210" height="29" as="geometry" />
        </mxCell>
        <mxCell id="oGBta0RcwHTypOkyzDNI-187" value="bool &lt;span style=&quot;white-space: pre;&quot;&gt; &lt;/span&gt;&lt;b&gt;&lt;i&gt;(*set_write_buf_size)&lt;/i&gt;&lt;/b&gt;" style="shape=partialRectangle;html=1;whiteSpace=wrap;connectable=0;overflow=hidden;fillColor=none;top=0;left=0;bottom=0;right=0;pointerEvents=1;rounded=1;shadow=0;dashed=0;labelBackgroundColor=none;sketch=0;fillStyle=cross-hatch;strokeColor=#ffffff;fontFamily=Helvetica;fontSize=14;fontColor=#000000;align=left;" parent="oGBta0RcwHTypOkyzDNI-186" vertex="1">
          <mxGeometry width="210" height="29" as="geometry">
            <mxRectangle width="210" height="29" as="alternateBounds" />
          </mxGeometry>
        </mxCell>
        <mxCell id="oGBta0RcwHTypOkyzDNI-188" value="" style="shape=tableRow;horizontal=0;startSize=0;swimlaneHead=0;swimlaneBody=0;top=0;left=0;bottom=0;right=0;collapsible=0;dropTarget=0;fillColor=none;points=[[0,0.5],[1,0.5]];portConstraint=eastwest;rounded=1;shadow=0;dashed=0;labelBackgroundColor=none;sketch=0;fillStyle=cross-hatch;strokeColor=#ffffff;fontFamily=Helvetica;fontSize=14;fontColor=#000000;html=1;" parent="oGBta0RcwHTypOkyzDNI-169" vertex="1">
          <mxGeometry y="311" width="210" height="29" as="geometry" />
        </mxCell>
        <mxCell id="oGBta0RcwHTypOkyzDNI-189" value="void &lt;span style=&quot;white-space: pre;&quot;&gt; &lt;/span&gt;&lt;b&gt;&lt;i&gt;(*clear_error_string)&lt;/i&gt;&lt;/b&gt;" style="shape=partialRectangle;html=1;whiteSpace=wrap;connectable=0;overflow=hidden;fillColor=none;top=0;left=0;bottom=0;right=0;pointerEvents=1;rounded=1;shadow=0;dashed=0;labelBackgroundColor=none;sketch=0;fillStyle=cross-hatch;strokeColor=#ffffff;fontFamily=Helvetica;fontSize=14;fontColor=#000000;align=left;" parent="oGBta0RcwHTypOkyzDNI-188" vertex="1">
          <mxGeometry width="210" height="29" as="geometry">
            <mxRectangle width="210" height="29" as="alternateBounds" />
          </mxGeometry>
        </mxCell>
        <mxCell id="oGBta0RcwHTypOkyzDNI-190" style="edgeStyle=none;curved=1;sketch=1;orthogonalLoop=1;jettySize=auto;html=1;exitX=0;exitY=0.5;exitDx=0;exitDy=0;entryX=0;entryY=0;entryDx=0;entryDy=0;shadow=1;dashed=1;strokeColor=#000000;strokeWidth=1;fontFamily=Helvetica;fontSize=16;fontColor=#000000;startArrow=oval;startFill=1;endArrow=halfCircle;endFill=0;elbow=vertical;" parent="1" source="oGBta0RcwHTypOkyzDNI-71" target="oGBta0RcwHTypOkyzDNI-169" edge="1">
          <mxGeometry relative="1" as="geometry">
            <Array as="points">
              <mxPoint x="-1230" y="1290" />
            </Array>
          </mxGeometry>
        </mxCell>
        <mxCell id="oGBta0RcwHTypOkyzDNI-191" style="edgeStyle=none;curved=1;sketch=1;orthogonalLoop=1;jettySize=auto;html=1;exitX=0;exitY=0.5;exitDx=0;exitDy=0;entryX=1;entryY=0;entryDx=0;entryDy=0;shadow=1;dashed=1;strokeColor=#000000;strokeWidth=1;fontFamily=Helvetica;fontSize=14;fontColor=#000000;startArrow=halfCircle;startFill=0;endArrow=classic;endFill=1;elbow=vertical;" parent="1" source="oGBta0RcwHTypOkyzDNI-61" target="oGBta0RcwHTypOkyzDNI-70" edge="1">
          <mxGeometry relative="1" as="geometry" />
        </mxCell>
        <mxCell id="oGBta0RcwHTypOkyzDNI-192" style="edgeStyle=none;curved=1;sketch=1;orthogonalLoop=1;jettySize=auto;html=1;exitX=0;exitY=0.5;exitDx=0;exitDy=0;entryX=1.019;entryY=0.039;entryDx=0;entryDy=0;entryPerimeter=0;shadow=1;dashed=1;strokeColor=#000000;strokeWidth=1;fontFamily=Helvetica;fontSize=14;fontColor=#000000;startArrow=halfCircle;startFill=0;endArrow=classic;endFill=1;elbow=vertical;" parent="1" source="oGBta0RcwHTypOkyzDNI-93" target="oGBta0RcwHTypOkyzDNI-70" edge="1">
          <mxGeometry relative="1" as="geometry">
            <Array as="points">
              <mxPoint x="-890" y="1190" />
            </Array>
          </mxGeometry>
        </mxCell>
        <mxCell id="oGBta0RcwHTypOkyzDNI-193" value="&lt;b&gt;&lt;i&gt;&lt;font style=&quot;font-size: 16px;&quot;&gt;evlsock_tcp_socket_t&lt;/font&gt;&lt;/i&gt;&lt;/b&gt;" style="shape=table;startSize=40;container=1;collapsible=0;childLayout=tableLayout;rounded=1;shadow=0;dashed=0;labelBackgroundColor=none;sketch=1;fillStyle=auto;strokeColor=#36393d;fontFamily=Helvetica;fontSize=14;fillColor=#cce5ff;html=1;align=left;swimlaneFillColor=#FFFFCC;" parent="1" vertex="1">
          <mxGeometry x="-1520" y="1007.25" width="280" height="371.25" as="geometry" />
        </mxCell>
        <mxCell id="oGBta0RcwHTypOkyzDNI-194" value="" style="shape=tableRow;horizontal=0;startSize=0;swimlaneHead=0;swimlaneBody=0;top=0;left=0;bottom=0;right=0;collapsible=0;dropTarget=0;fillColor=none;points=[[0,0.5],[1,0.5]];portConstraint=eastwest;rounded=1;shadow=0;dashed=0;labelBackgroundColor=none;sketch=0;fillStyle=cross-hatch;strokeColor=#ffffff;fontFamily=Helvetica;fontSize=14;fontColor=#000000;html=1;" parent="oGBta0RcwHTypOkyzDNI-193" vertex="1">
          <mxGeometry y="40" width="280" height="27" as="geometry" />
        </mxCell>
        <mxCell id="oGBta0RcwHTypOkyzDNI-195" value="evlsock_stream_socket_t&amp;nbsp; &amp;nbsp; &lt;span style=&quot;white-space: pre;&quot;&gt; &lt;/span&gt;&lt;b&gt;&lt;i&gt;stream&lt;/i&gt;&lt;/b&gt;" style="shape=partialRectangle;html=1;whiteSpace=wrap;connectable=0;overflow=hidden;fillColor=none;top=0;left=0;bottom=0;right=0;pointerEvents=1;rounded=1;shadow=0;dashed=0;labelBackgroundColor=none;sketch=0;fillStyle=cross-hatch;strokeColor=#ffffff;fontFamily=Helvetica;fontSize=14;fontColor=#000000;align=left;" parent="oGBta0RcwHTypOkyzDNI-194" vertex="1">
          <mxGeometry width="280" height="27" as="geometry">
            <mxRectangle width="280" height="27" as="alternateBounds" />
          </mxGeometry>
        </mxCell>
        <mxCell id="oGBta0RcwHTypOkyzDNI-196" value="" style="shape=tableRow;horizontal=0;startSize=0;swimlaneHead=0;swimlaneBody=0;top=0;left=0;bottom=0;right=0;collapsible=0;dropTarget=0;fillColor=none;points=[[0,0.5],[1,0.5]];portConstraint=eastwest;rounded=1;shadow=0;dashed=0;labelBackgroundColor=none;sketch=0;fillStyle=cross-hatch;strokeColor=#ffffff;fontFamily=Helvetica;fontSize=14;fontColor=#000000;html=1;" parent="oGBta0RcwHTypOkyzDNI-193" vertex="1">
          <mxGeometry y="67" width="280" height="23" as="geometry" />
        </mxCell>
        <mxCell id="oGBta0RcwHTypOkyzDNI-197" value="evl_t*&amp;nbsp; &amp;nbsp; &amp;nbsp; &amp;nbsp; &amp;nbsp; &amp;nbsp; &amp;nbsp;&lt;b&gt;&lt;i&gt; &lt;span style=&quot;white-space: pre;&quot;&gt; &lt;/span&gt;&lt;span style=&quot;white-space: pre;&quot;&gt; &lt;/span&gt;&lt;span style=&quot;white-space: pre;&quot;&gt; &lt;/span&gt;&lt;span style=&quot;white-space: pre;&quot;&gt; &lt;/span&gt;evl&lt;/i&gt;&lt;/b&gt;" style="shape=partialRectangle;html=1;whiteSpace=wrap;connectable=0;overflow=hidden;fillColor=none;top=0;left=0;bottom=0;right=0;pointerEvents=1;rounded=1;shadow=0;dashed=0;labelBackgroundColor=none;sketch=0;fillStyle=cross-hatch;strokeColor=#ffffff;fontFamily=Helvetica;fontSize=14;fontColor=#000000;align=left;" parent="oGBta0RcwHTypOkyzDNI-196" vertex="1">
          <mxGeometry width="280" height="23" as="geometry">
            <mxRectangle width="280" height="23" as="alternateBounds" />
          </mxGeometry>
        </mxCell>
        <mxCell id="oGBta0RcwHTypOkyzDNI-198" value="" style="shape=tableRow;horizontal=0;startSize=0;swimlaneHead=0;swimlaneBody=0;top=0;left=0;bottom=0;right=0;collapsible=0;dropTarget=0;fillColor=none;points=[[0,0.5],[1,0.5]];portConstraint=eastwest;rounded=1;shadow=0;dashed=0;labelBackgroundColor=none;sketch=0;fillStyle=cross-hatch;strokeColor=#ffffff;fontFamily=Helvetica;fontSize=14;fontColor=#000000;html=1;" parent="oGBta0RcwHTypOkyzDNI-193" vertex="1">
          <mxGeometry y="90" width="280" height="27" as="geometry" />
        </mxCell>
        <mxCell id="oGBta0RcwHTypOkyzDNI-199" value="inet_addr_version_t &lt;span style=&quot;white-space: pre;&quot;&gt; &lt;/span&gt;&lt;span style=&quot;white-space: pre;&quot;&gt; &lt;/span&gt;&lt;b&gt;&lt;i&gt;version&lt;/i&gt;&lt;/b&gt;" style="shape=partialRectangle;html=1;whiteSpace=wrap;connectable=0;overflow=hidden;fillColor=none;top=0;left=0;bottom=0;right=0;pointerEvents=1;rounded=1;shadow=0;dashed=0;labelBackgroundColor=none;sketch=0;fillStyle=cross-hatch;strokeColor=#ffffff;fontFamily=Helvetica;fontSize=14;fontColor=#000000;align=left;" parent="oGBta0RcwHTypOkyzDNI-198" vertex="1">
          <mxGeometry width="280" height="27" as="geometry">
            <mxRectangle width="280" height="27" as="alternateBounds" />
          </mxGeometry>
        </mxCell>
        <mxCell id="oGBta0RcwHTypOkyzDNI-200" value="" style="shape=tableRow;horizontal=0;startSize=0;swimlaneHead=0;swimlaneBody=0;top=0;left=0;bottom=0;right=0;collapsible=0;dropTarget=0;fillColor=none;points=[[0,0.5],[1,0.5]];portConstraint=eastwest;rounded=1;shadow=0;dashed=0;labelBackgroundColor=none;sketch=0;fillStyle=cross-hatch;strokeColor=#ffffff;fontFamily=Helvetica;fontSize=14;fontColor=#000000;html=1;" parent="oGBta0RcwHTypOkyzDNI-193" vertex="1">
          <mxGeometry y="117" width="280" height="25" as="geometry" />
        </mxCell>
        <mxCell id="oGBta0RcwHTypOkyzDNI-201" value="int &lt;span style=&quot;white-space: pre;&quot;&gt; &lt;/span&gt;&lt;span style=&quot;white-space: pre;&quot;&gt; &lt;/span&gt;&lt;span style=&quot;white-space: pre;&quot;&gt; &lt;/span&gt;&lt;span style=&quot;white-space: pre;&quot;&gt; &lt;/span&gt;&lt;span style=&quot;white-space: pre;&quot;&gt; &lt;/span&gt;&lt;span style=&quot;white-space: pre;&quot;&gt; &lt;/span&gt;&lt;b&gt;&lt;i&gt;fd&lt;/i&gt;&lt;/b&gt;" style="shape=partialRectangle;html=1;whiteSpace=wrap;connectable=0;overflow=hidden;fillColor=none;top=0;left=0;bottom=0;right=0;pointerEvents=1;rounded=1;shadow=0;dashed=0;labelBackgroundColor=none;sketch=0;fillStyle=cross-hatch;strokeColor=#ffffff;fontFamily=Helvetica;fontSize=14;fontColor=#000000;align=left;" parent="oGBta0RcwHTypOkyzDNI-200" vertex="1">
          <mxGeometry width="280" height="25" as="geometry">
            <mxRectangle width="280" height="25" as="alternateBounds" />
          </mxGeometry>
        </mxCell>
        <mxCell id="oGBta0RcwHTypOkyzDNI-202" value="" style="shape=tableRow;horizontal=0;startSize=0;swimlaneHead=0;swimlaneBody=0;top=0;left=0;bottom=0;right=0;collapsible=0;dropTarget=0;fillColor=none;points=[[0,0.5],[1,0.5]];portConstraint=eastwest;rounded=1;shadow=0;dashed=0;labelBackgroundColor=none;sketch=0;fillStyle=cross-hatch;strokeColor=#ffffff;fontFamily=Helvetica;fontSize=14;fontColor=#000000;html=1;" parent="oGBta0RcwHTypOkyzDNI-193" vertex="1">
          <mxGeometry y="142" width="280" height="25" as="geometry" />
        </mxCell>
        <mxCell id="oGBta0RcwHTypOkyzDNI-203" value="int&amp;nbsp; &amp;nbsp; &amp;nbsp; &amp;nbsp; &amp;nbsp; &amp;nbsp;&lt;span style=&quot;white-space: pre;&quot;&gt; &lt;/span&gt;&lt;span style=&quot;white-space: pre;&quot;&gt; &lt;/span&gt;&lt;span style=&quot;white-space: pre;&quot;&gt; &lt;/span&gt;&lt;span style=&quot;white-space: pre;&quot;&gt; &lt;/span&gt;&lt;span style=&quot;white-space: pre;&quot;&gt; &lt;/span&gt;&lt;b&gt;&lt;i&gt;ref_cnt&lt;/i&gt;&lt;/b&gt;" style="shape=partialRectangle;html=1;whiteSpace=wrap;connectable=0;overflow=hidden;fillColor=none;top=0;left=0;bottom=0;right=0;pointerEvents=1;rounded=1;shadow=0;dashed=0;labelBackgroundColor=none;sketch=0;fillStyle=cross-hatch;strokeColor=#ffffff;fontFamily=Helvetica;fontSize=14;fontColor=#000000;align=left;" parent="oGBta0RcwHTypOkyzDNI-202" vertex="1">
          <mxGeometry width="280" height="25" as="geometry">
            <mxRectangle width="280" height="25" as="alternateBounds" />
          </mxGeometry>
        </mxCell>
        <mxCell id="oGBta0RcwHTypOkyzDNI-204" value="" style="shape=tableRow;horizontal=0;startSize=0;swimlaneHead=0;swimlaneBody=0;top=0;left=0;bottom=0;right=0;collapsible=0;dropTarget=0;fillColor=none;points=[[0,0.5],[1,0.5]];portConstraint=eastwest;rounded=1;shadow=0;dashed=0;labelBackgroundColor=none;sketch=0;fillStyle=cross-hatch;strokeColor=#ffffff;fontFamily=Helvetica;fontSize=14;fontColor=#000000;html=1;" parent="oGBta0RcwHTypOkyzDNI-193" vertex="1">
          <mxGeometry y="167" width="280" height="25" as="geometry" />
        </mxCell>
        <mxCell id="oGBta0RcwHTypOkyzDNI-205" value="State_t&amp;nbsp; &amp;nbsp; &amp;nbsp; &amp;nbsp;&lt;span style=&quot;white-space: pre;&quot;&gt; &lt;/span&gt;&lt;span style=&quot;white-space: pre;&quot;&gt; &lt;/span&gt;&lt;span style=&quot;white-space: pre;&quot;&gt; &lt;/span&gt;&lt;span style=&quot;white-space: pre;&quot;&gt; &lt;/span&gt;&lt;b&gt;&lt;i&gt;state&lt;/i&gt;&lt;/b&gt;" style="shape=partialRectangle;html=1;whiteSpace=wrap;connectable=0;overflow=hidden;fillColor=none;top=0;left=0;bottom=0;right=0;pointerEvents=1;rounded=1;shadow=0;dashed=0;labelBackgroundColor=none;sketch=0;fillStyle=cross-hatch;strokeColor=#ffffff;fontFamily=Helvetica;fontSize=14;fontColor=#000000;align=left;" parent="oGBta0RcwHTypOkyzDNI-204" vertex="1">
          <mxGeometry width="280" height="25" as="geometry">
            <mxRectangle width="280" height="25" as="alternateBounds" />
          </mxGeometry>
        </mxCell>
        <mxCell id="oGBta0RcwHTypOkyzDNI-206" value="" style="shape=tableRow;horizontal=0;startSize=0;swimlaneHead=0;swimlaneBody=0;top=0;left=0;bottom=0;right=0;collapsible=0;dropTarget=0;fillColor=none;points=[[0,0.5],[1,0.5]];portConstraint=eastwest;rounded=1;shadow=0;dashed=0;labelBackgroundColor=none;sketch=0;fillStyle=cross-hatch;strokeColor=#ffffff;fontFamily=Helvetica;fontSize=14;fontColor=#000000;html=1;" parent="oGBta0RcwHTypOkyzDNI-193" vertex="1">
          <mxGeometry y="192" width="280" height="26" as="geometry" />
        </mxCell>
        <mxCell id="oGBta0RcwHTypOkyzDNI-207" value="socket_addr_t&lt;b&gt;&lt;i&gt; &lt;span style=&quot;white-space: pre;&quot;&gt; &lt;/span&gt;&lt;span style=&quot;white-space: pre;&quot;&gt; &lt;/span&gt;&lt;span style=&quot;white-space: pre;&quot;&gt; &lt;/span&gt;local_addr&lt;/i&gt;&lt;/b&gt;" style="shape=partialRectangle;html=1;whiteSpace=wrap;connectable=0;overflow=hidden;fillColor=none;top=0;left=0;bottom=0;right=0;pointerEvents=1;rounded=1;shadow=0;dashed=0;labelBackgroundColor=none;sketch=0;fillStyle=cross-hatch;strokeColor=#ffffff;fontFamily=Helvetica;fontSize=14;fontColor=#000000;align=left;" parent="oGBta0RcwHTypOkyzDNI-206" vertex="1">
          <mxGeometry width="280" height="26" as="geometry">
            <mxRectangle width="280" height="26" as="alternateBounds" />
          </mxGeometry>
        </mxCell>
        <mxCell id="oGBta0RcwHTypOkyzDNI-208" value="" style="shape=tableRow;horizontal=0;startSize=0;swimlaneHead=0;swimlaneBody=0;top=0;left=0;bottom=0;right=0;collapsible=0;dropTarget=0;fillColor=none;points=[[0,0.5],[1,0.5]];portConstraint=eastwest;rounded=1;shadow=0;dashed=0;labelBackgroundColor=none;sketch=0;fillStyle=cross-hatch;strokeColor=#ffffff;fontFamily=Helvetica;fontSize=14;fontColor=#000000;html=1;" parent="oGBta0RcwHTypOkyzDNI-193" vertex="1">
          <mxGeometry y="218" width="280" height="25" as="geometry" />
        </mxCell>
        <mxCell id="oGBta0RcwHTypOkyzDNI-209" value="socket_addr_t &lt;span style=&quot;white-space: pre;&quot;&gt; &lt;/span&gt;&lt;span style=&quot;white-space: pre;&quot;&gt; &lt;/span&gt;&lt;span style=&quot;white-space: pre;&quot;&gt; &lt;/span&gt;&lt;b&gt;&lt;i&gt;remote_addr&lt;/i&gt;&lt;/b&gt;" style="shape=partialRectangle;html=1;whiteSpace=wrap;connectable=0;overflow=hidden;fillColor=none;top=0;left=0;bottom=0;right=0;pointerEvents=1;rounded=1;shadow=0;dashed=0;labelBackgroundColor=none;sketch=0;fillStyle=cross-hatch;strokeColor=#ffffff;fontFamily=Helvetica;fontSize=14;fontColor=#000000;align=left;" parent="oGBta0RcwHTypOkyzDNI-208" vertex="1">
          <mxGeometry width="280" height="25" as="geometry">
            <mxRectangle width="280" height="25" as="alternateBounds" />
          </mxGeometry>
        </mxCell>
        <mxCell id="oGBta0RcwHTypOkyzDNI-210" value="" style="shape=tableRow;horizontal=0;startSize=0;swimlaneHead=0;swimlaneBody=0;top=0;left=0;bottom=0;right=0;collapsible=0;dropTarget=0;fillColor=none;points=[[0,0.5],[1,0.5]];portConstraint=eastwest;rounded=1;shadow=0;dashed=0;labelBackgroundColor=none;sketch=0;fillStyle=cross-hatch;strokeColor=#ffffff;fontFamily=Helvetica;fontSize=14;fontColor=#000000;html=1;" parent="oGBta0RcwHTypOkyzDNI-193" vertex="1">
          <mxGeometry y="243" width="280" height="26" as="geometry" />
        </mxCell>
        <mxCell id="oGBta0RcwHTypOkyzDNI-211" value="bool&amp;nbsp; &amp;nbsp; &amp;nbsp; &amp;nbsp; &amp;nbsp;&lt;b&gt;&lt;i&gt; &lt;span style=&quot;white-space: pre;&quot;&gt; &lt;/span&gt;&lt;span style=&quot;white-space: pre;&quot;&gt; &lt;/span&gt;&lt;span style=&quot;white-space: pre;&quot;&gt; &lt;/span&gt;&lt;span style=&quot;white-space: pre;&quot;&gt; &lt;/span&gt;api_close&lt;/i&gt;&lt;/b&gt;" style="shape=partialRectangle;html=1;whiteSpace=wrap;connectable=0;overflow=hidden;fillColor=none;top=0;left=0;bottom=0;right=0;pointerEvents=1;rounded=1;shadow=0;dashed=0;labelBackgroundColor=none;sketch=0;fillStyle=cross-hatch;strokeColor=#ffffff;fontFamily=Helvetica;fontSize=14;fontColor=#000000;align=left;" parent="oGBta0RcwHTypOkyzDNI-210" vertex="1">
          <mxGeometry width="280" height="26" as="geometry">
            <mxRectangle width="280" height="26" as="alternateBounds" />
          </mxGeometry>
        </mxCell>
        <mxCell id="oGBta0RcwHTypOkyzDNI-212" value="" style="shape=tableRow;horizontal=0;startSize=0;swimlaneHead=0;swimlaneBody=0;top=0;left=0;bottom=0;right=0;collapsible=0;dropTarget=0;fillColor=none;points=[[0,0.5],[1,0.5]];portConstraint=eastwest;rounded=1;shadow=0;dashed=0;labelBackgroundColor=none;sketch=0;fillStyle=cross-hatch;strokeColor=#ffffff;fontFamily=Helvetica;fontSize=14;fontColor=#000000;html=1;" parent="oGBta0RcwHTypOkyzDNI-193" vertex="1">
          <mxGeometry y="269" width="280" height="26" as="geometry" />
        </mxCell>
        <mxCell id="oGBta0RcwHTypOkyzDNI-213" value="evl_defer_t &lt;span style=&quot;white-space: pre;&quot;&gt; &lt;/span&gt;&lt;span style=&quot;white-space: pre;&quot;&gt; &lt;/span&gt;&lt;span style=&quot;white-space: pre;&quot;&gt; &lt;/span&gt;&lt;span style=&quot;white-space: pre;&quot;&gt; &lt;/span&gt;&lt;b&gt;&lt;i&gt;notify_check&lt;/i&gt;&lt;/b&gt;" style="shape=partialRectangle;html=1;whiteSpace=wrap;connectable=0;overflow=hidden;fillColor=none;top=0;left=0;bottom=0;right=0;pointerEvents=1;rounded=1;shadow=0;dashed=0;labelBackgroundColor=none;sketch=0;fillStyle=cross-hatch;strokeColor=#ffffff;fontFamily=Helvetica;fontSize=14;fontColor=#000000;align=left;" parent="oGBta0RcwHTypOkyzDNI-212" vertex="1">
          <mxGeometry width="280" height="26" as="geometry">
            <mxRectangle width="280" height="26" as="alternateBounds" />
          </mxGeometry>
        </mxCell>
        <mxCell id="oGBta0RcwHTypOkyzDNI-214" value="" style="shape=tableRow;horizontal=0;startSize=0;swimlaneHead=0;swimlaneBody=0;top=0;left=0;bottom=0;right=0;collapsible=0;dropTarget=0;fillColor=none;points=[[0,0.5],[1,0.5]];portConstraint=eastwest;rounded=1;shadow=0;dashed=0;labelBackgroundColor=none;sketch=0;fillStyle=cross-hatch;strokeColor=#ffffff;fontFamily=Helvetica;fontSize=14;fontColor=#000000;html=1;" parent="oGBta0RcwHTypOkyzDNI-193" vertex="1">
          <mxGeometry y="295" width="280" height="24" as="geometry" />
        </mxCell>
        <mxCell id="oGBta0RcwHTypOkyzDNI-215" value="NotifCb_t&amp;nbsp; &lt;span style=&quot;white-space: pre;&quot;&gt; &lt;/span&gt;&lt;span style=&quot;white-space: pre;&quot;&gt; &lt;/span&gt;&lt;span style=&quot;white-space: pre;&quot;&gt; &lt;/span&gt;&lt;span style=&quot;white-space: pre;&quot;&gt; &lt;/span&gt;&lt;b&gt;&lt;i&gt;on_notify[5]&lt;/i&gt;&lt;/b&gt;" style="shape=partialRectangle;html=1;whiteSpace=wrap;connectable=0;overflow=hidden;fillColor=none;top=0;left=0;bottom=0;right=0;pointerEvents=1;rounded=1;shadow=0;dashed=0;labelBackgroundColor=none;sketch=0;fillStyle=cross-hatch;strokeColor=#ffffff;fontFamily=Helvetica;fontSize=14;fontColor=#000000;align=left;" parent="oGBta0RcwHTypOkyzDNI-214" vertex="1">
          <mxGeometry width="280" height="24" as="geometry">
            <mxRectangle width="280" height="24" as="alternateBounds" />
          </mxGeometry>
        </mxCell>
        <mxCell id="oGBta0RcwHTypOkyzDNI-216" value="" style="shape=tableRow;horizontal=0;startSize=0;swimlaneHead=0;swimlaneBody=0;top=0;left=0;bottom=0;right=0;collapsible=0;dropTarget=0;fillColor=none;points=[[0,0.5],[1,0.5]];portConstraint=eastwest;rounded=1;shadow=0;dashed=0;labelBackgroundColor=none;sketch=0;fillStyle=cross-hatch;strokeColor=#ffffff;fontFamily=Helvetica;fontSize=14;fontColor=#000000;html=1;" parent="oGBta0RcwHTypOkyzDNI-193" vertex="1">
          <mxGeometry y="319" width="280" height="27" as="geometry" />
        </mxCell>
        <mxCell id="oGBta0RcwHTypOkyzDNI-217" value="evlsock_tcp_socket_t* &lt;span style=&quot;white-space: pre;&quot;&gt; &lt;/span&gt;&lt;span style=&quot;white-space: pre;&quot;&gt; &lt;/span&gt;&lt;b&gt;&lt;i&gt;accepted&lt;/i&gt;&lt;/b&gt;" style="shape=partialRectangle;html=1;whiteSpace=wrap;connectable=0;overflow=hidden;fillColor=none;top=0;left=0;bottom=0;right=0;pointerEvents=1;rounded=1;shadow=0;dashed=0;labelBackgroundColor=none;sketch=0;fillStyle=cross-hatch;strokeColor=#ffffff;fontFamily=Helvetica;fontSize=14;fontColor=#000000;align=left;" parent="oGBta0RcwHTypOkyzDNI-216" vertex="1">
          <mxGeometry width="280" height="27" as="geometry">
            <mxRectangle width="280" height="27" as="alternateBounds" />
          </mxGeometry>
        </mxCell>
        <mxCell id="oGBta0RcwHTypOkyzDNI-218" value="" style="shape=tableRow;horizontal=0;startSize=0;swimlaneHead=0;swimlaneBody=0;top=0;left=0;bottom=0;right=0;collapsible=0;dropTarget=0;fillColor=none;points=[[0,0.5],[1,0.5]];portConstraint=eastwest;rounded=1;shadow=0;dashed=0;labelBackgroundColor=none;sketch=0;fillStyle=cross-hatch;strokeColor=#ffffff;fontFamily=Helvetica;fontSize=14;fontColor=#000000;html=1;" parent="oGBta0RcwHTypOkyzDNI-193" vertex="1">
          <mxGeometry y="346" width="280" height="25" as="geometry" />
        </mxCell>
        <mxCell id="oGBta0RcwHTypOkyzDNI-219" value="char&amp;nbsp; &amp;nbsp; &amp;nbsp; &amp;nbsp; &amp;nbsp; &amp;nbsp; &amp;nbsp; &amp;nbsp; &amp;nbsp; &lt;span style=&quot;white-space: pre;&quot;&gt; &lt;/span&gt;&lt;span style=&quot;white-space: pre;&quot;&gt; &lt;/span&gt;&lt;span style=&quot;white-space: pre;&quot;&gt; &lt;/span&gt;&lt;b&gt;&lt;i&gt;err_str[100]&lt;/i&gt;&lt;/b&gt;" style="shape=partialRectangle;html=1;whiteSpace=wrap;connectable=0;overflow=hidden;fillColor=none;top=0;left=0;bottom=0;right=0;pointerEvents=1;rounded=1;shadow=0;dashed=0;labelBackgroundColor=none;sketch=0;fillStyle=cross-hatch;strokeColor=#ffffff;fontFamily=Helvetica;fontSize=14;fontColor=#000000;align=left;" parent="oGBta0RcwHTypOkyzDNI-218" vertex="1">
          <mxGeometry width="280" height="25" as="geometry">
            <mxRectangle width="280" height="25" as="alternateBounds" />
          </mxGeometry>
        </mxCell>
        <mxCell id="oGBta0RcwHTypOkyzDNI-220" style="edgeStyle=none;curved=1;sketch=1;orthogonalLoop=1;jettySize=auto;html=1;exitX=1;exitY=0.5;exitDx=0;exitDy=0;entryX=-0.008;entryY=0.042;entryDx=0;entryDy=0;shadow=1;dashed=1;strokeColor=#000000;strokeWidth=1;fontFamily=Helvetica;fontSize=16;fontColor=#000000;startArrow=oval;startFill=0;endArrow=halfCircle;endFill=0;elbow=vertical;entryPerimeter=0;" parent="1" source="oGBta0RcwHTypOkyzDNI-194" target="oGBta0RcwHTypOkyzDNI-70" edge="1">
          <mxGeometry relative="1" as="geometry" />
        </mxCell>
        <mxCell id="oGBta0RcwHTypOkyzDNI-221" style="edgeStyle=none;curved=1;sketch=1;orthogonalLoop=1;jettySize=auto;html=1;exitX=0;exitY=0.5;exitDx=0;exitDy=0;shadow=1;dashed=1;strokeColor=#000000;strokeWidth=1;fontFamily=Helvetica;fontSize=16;fontColor=#000000;startArrow=halfCircle;startFill=0;endArrow=classic;endFill=1;elbow=vertical;entryX=1;entryY=0.5;entryDx=0;entryDy=0;" parent="1" source="oGBta0RcwHTypOkyzDNI-140" target="oGBta0RcwHTypOkyzDNI-87" edge="1">
          <mxGeometry relative="1" as="geometry">
            <mxPoint x="-770" y="1500" as="targetPoint" />
          </mxGeometry>
        </mxCell>
        <mxCell id="oGBta0RcwHTypOkyzDNI-222" value="&lt;b&gt;&lt;i&gt;http_stream_t&lt;/i&gt;&lt;/b&gt;" style="shape=table;startSize=40;container=1;collapsible=0;childLayout=tableLayout;rounded=1;shadow=0;dashed=0;labelBackgroundColor=none;sketch=1;fillStyle=cross-hatch;strokeColor=#36393d;fontFamily=Helvetica;fontSize=16;fillColor=#cce5ff;html=1;swimlaneFillColor=default;align=left;" parent="1" vertex="1">
          <mxGeometry x="-755" y="1850" width="360" height="480" as="geometry" />
        </mxCell>
        <mxCell id="oGBta0RcwHTypOkyzDNI-223" value="" style="shape=tableRow;horizontal=0;startSize=0;swimlaneHead=0;swimlaneBody=0;top=0;left=0;bottom=0;right=0;collapsible=0;dropTarget=0;fillColor=none;points=[[0,0.5],[1,0.5]];portConstraint=eastwest;rounded=1;shadow=0;dashed=0;labelBackgroundColor=none;sketch=0;fillStyle=cross-hatch;strokeColor=#ffffff;fontFamily=Helvetica;fontSize=16;fontColor=#000000;html=1;" parent="oGBta0RcwHTypOkyzDNI-222" vertex="1">
          <mxGeometry y="40" width="360" height="23" as="geometry" />
        </mxCell>
        <mxCell id="oGBta0RcwHTypOkyzDNI-224" value="int&amp;nbsp; &amp;nbsp; &amp;nbsp; &amp;nbsp; &amp;nbsp; &amp;nbsp; &amp;nbsp; &amp;nbsp; &amp;nbsp; &amp;nbsp; &amp;nbsp; &amp;nbsp; &amp;nbsp;&lt;span style=&quot;white-space: pre;&quot;&gt; &lt;/span&gt;&lt;span style=&quot;white-space: pre;&quot;&gt; &lt;/span&gt;&amp;nbsp; &amp;nbsp; &amp;nbsp;&amp;nbsp;&lt;b&gt;&lt;i&gt;id&lt;/i&gt;&lt;/b&gt;" style="shape=partialRectangle;html=1;whiteSpace=wrap;connectable=0;overflow=hidden;fillColor=none;top=0;left=0;bottom=0;right=0;pointerEvents=1;rounded=1;shadow=0;dashed=0;labelBackgroundColor=none;sketch=0;fillStyle=cross-hatch;strokeColor=#ffffff;fontFamily=Helvetica;fontSize=16;fontColor=#000000;align=left;" parent="oGBta0RcwHTypOkyzDNI-223" vertex="1">
          <mxGeometry width="360" height="23" as="geometry">
            <mxRectangle width="360" height="23" as="alternateBounds" />
          </mxGeometry>
        </mxCell>
        <mxCell id="oGBta0RcwHTypOkyzDNI-225" value="" style="shape=tableRow;horizontal=0;startSize=0;swimlaneHead=0;swimlaneBody=0;top=0;left=0;bottom=0;right=0;collapsible=0;dropTarget=0;fillColor=none;points=[[0,0.5],[1,0.5]];portConstraint=eastwest;rounded=1;shadow=0;dashed=0;labelBackgroundColor=none;sketch=0;fillStyle=cross-hatch;strokeColor=#ffffff;fontFamily=Helvetica;fontSize=16;fontColor=#000000;html=1;" parent="oGBta0RcwHTypOkyzDNI-222" vertex="1">
          <mxGeometry y="63" width="360" height="23" as="geometry" />
        </mxCell>
        <mxCell id="oGBta0RcwHTypOkyzDNI-226" value="http_session_t*&lt;span style=&quot;white-space: pre;&quot;&gt; &lt;/span&gt;&lt;span style=&quot;white-space: pre;&quot;&gt; &lt;/span&gt;&amp;nbsp; &amp;nbsp;&amp;nbsp;&amp;nbsp;&lt;b&gt;&lt;i&gt;session&lt;/i&gt;&lt;/b&gt;" style="shape=partialRectangle;html=1;whiteSpace=wrap;connectable=0;overflow=hidden;fillColor=none;top=0;left=0;bottom=0;right=0;pointerEvents=1;rounded=1;shadow=0;dashed=0;labelBackgroundColor=none;sketch=0;fillStyle=cross-hatch;strokeColor=#ffffff;fontFamily=Helvetica;fontSize=16;fontColor=#000000;align=left;" parent="oGBta0RcwHTypOkyzDNI-225" vertex="1">
          <mxGeometry width="360" height="23" as="geometry">
            <mxRectangle width="360" height="23" as="alternateBounds" />
          </mxGeometry>
        </mxCell>
        <mxCell id="oGBta0RcwHTypOkyzDNI-227" value="" style="shape=tableRow;horizontal=0;startSize=0;swimlaneHead=0;swimlaneBody=0;top=0;left=0;bottom=0;right=0;collapsible=0;dropTarget=0;fillColor=none;points=[[0,0.5],[1,0.5]];portConstraint=eastwest;rounded=1;shadow=0;dashed=0;labelBackgroundColor=none;sketch=0;fillStyle=cross-hatch;strokeColor=#ffffff;fontFamily=Helvetica;fontSize=16;fontColor=#000000;html=1;" parent="oGBta0RcwHTypOkyzDNI-222" vertex="1">
          <mxGeometry y="86" width="360" height="23" as="geometry" />
        </mxCell>
        <mxCell id="oGBta0RcwHTypOkyzDNI-228" value="http_on_request_sent_t&amp;nbsp; &amp;nbsp; &amp;nbsp; &amp;nbsp;&lt;b&gt;&lt;i&gt;on_request_sent&lt;/i&gt;&lt;/b&gt;" style="shape=partialRectangle;html=1;whiteSpace=wrap;connectable=0;overflow=hidden;fillColor=none;top=0;left=0;bottom=0;right=0;pointerEvents=1;rounded=1;shadow=0;dashed=0;labelBackgroundColor=none;sketch=0;fillStyle=cross-hatch;strokeColor=#ffffff;fontFamily=Helvetica;fontSize=16;fontColor=#000000;align=left;" parent="oGBta0RcwHTypOkyzDNI-227" vertex="1">
          <mxGeometry width="360" height="23" as="geometry">
            <mxRectangle width="360" height="23" as="alternateBounds" />
          </mxGeometry>
        </mxCell>
        <mxCell id="oGBta0RcwHTypOkyzDNI-229" value="" style="shape=tableRow;horizontal=0;startSize=0;swimlaneHead=0;swimlaneBody=0;top=0;left=0;bottom=0;right=0;collapsible=0;dropTarget=0;fillColor=none;points=[[0,0.5],[1,0.5]];portConstraint=eastwest;rounded=1;shadow=0;dashed=0;labelBackgroundColor=none;sketch=0;fillStyle=cross-hatch;strokeColor=#ffffff;fontFamily=Helvetica;fontSize=16;fontColor=#000000;html=1;" parent="oGBta0RcwHTypOkyzDNI-222" vertex="1">
          <mxGeometry y="109" width="360" height="24" as="geometry" />
        </mxCell>
        <mxCell id="oGBta0RcwHTypOkyzDNI-230" value="http_on_request_timeout_t&amp;nbsp; &lt;b&gt;&lt;i&gt;on_request_timeout&lt;/i&gt;&lt;/b&gt;" style="shape=partialRectangle;html=1;whiteSpace=wrap;connectable=0;overflow=hidden;fillColor=none;top=0;left=0;bottom=0;right=0;pointerEvents=1;rounded=1;shadow=0;dashed=0;labelBackgroundColor=none;sketch=0;fillStyle=cross-hatch;strokeColor=#ffffff;fontFamily=Helvetica;fontSize=16;fontColor=#000000;align=left;" parent="oGBta0RcwHTypOkyzDNI-229" vertex="1">
          <mxGeometry width="360" height="24" as="geometry">
            <mxRectangle width="360" height="24" as="alternateBounds" />
          </mxGeometry>
        </mxCell>
        <mxCell id="oGBta0RcwHTypOkyzDNI-231" value="" style="shape=tableRow;horizontal=0;startSize=0;swimlaneHead=0;swimlaneBody=0;top=0;left=0;bottom=0;right=0;collapsible=0;dropTarget=0;fillColor=none;points=[[0,0.5],[1,0.5]];portConstraint=eastwest;rounded=1;shadow=0;dashed=0;labelBackgroundColor=none;sketch=0;fillStyle=cross-hatch;strokeColor=#ffffff;fontFamily=Helvetica;fontSize=16;fontColor=#000000;html=1;" parent="oGBta0RcwHTypOkyzDNI-222" vertex="1">
          <mxGeometry y="133" width="360" height="22" as="geometry" />
        </mxCell>
        <mxCell id="oGBta0RcwHTypOkyzDNI-232" value="http_on_response_t&amp;nbsp; &amp;nbsp; &amp;nbsp; &amp;nbsp;&lt;b&gt;&lt;i&gt;&amp;nbsp; &amp;nbsp; &amp;nbsp; on_response&lt;/i&gt;&lt;/b&gt;" style="shape=partialRectangle;html=1;whiteSpace=wrap;connectable=0;overflow=hidden;fillColor=none;top=0;left=0;bottom=0;right=0;pointerEvents=1;rounded=1;shadow=0;dashed=0;labelBackgroundColor=none;sketch=0;fillStyle=cross-hatch;strokeColor=#ffffff;fontFamily=Helvetica;fontSize=16;fontColor=#000000;align=left;" parent="oGBta0RcwHTypOkyzDNI-231" vertex="1">
          <mxGeometry width="360" height="22" as="geometry">
            <mxRectangle width="360" height="22" as="alternateBounds" />
          </mxGeometry>
        </mxCell>
        <mxCell id="oGBta0RcwHTypOkyzDNI-233" value="" style="shape=tableRow;horizontal=0;startSize=0;swimlaneHead=0;swimlaneBody=0;top=0;left=0;bottom=0;right=0;collapsible=0;dropTarget=0;fillColor=none;points=[[0,0.5],[1,0.5]];portConstraint=eastwest;rounded=1;shadow=0;dashed=0;labelBackgroundColor=none;sketch=0;fillStyle=cross-hatch;strokeColor=#ffffff;fontFamily=Helvetica;fontSize=16;fontColor=#000000;html=1;" parent="oGBta0RcwHTypOkyzDNI-222" vertex="1">
          <mxGeometry y="155" width="360" height="24" as="geometry" />
        </mxCell>
        <mxCell id="oGBta0RcwHTypOkyzDNI-234" value="http_stream_on_request_t&amp;nbsp;&lt;b&gt;&lt;i&gt;&amp;nbsp; on_request&lt;/i&gt;&lt;/b&gt;" style="shape=partialRectangle;html=1;whiteSpace=wrap;connectable=0;overflow=hidden;fillColor=none;top=0;left=0;bottom=0;right=0;pointerEvents=1;rounded=1;shadow=0;dashed=0;labelBackgroundColor=none;sketch=0;fillStyle=cross-hatch;strokeColor=#ffffff;fontFamily=Helvetica;fontSize=16;fontColor=#000000;align=left;" parent="oGBta0RcwHTypOkyzDNI-233" vertex="1">
          <mxGeometry width="360" height="24" as="geometry">
            <mxRectangle width="360" height="24" as="alternateBounds" />
          </mxGeometry>
        </mxCell>
        <mxCell id="oGBta0RcwHTypOkyzDNI-235" value="" style="shape=tableRow;horizontal=0;startSize=0;swimlaneHead=0;swimlaneBody=0;top=0;left=0;bottom=0;right=0;collapsible=0;dropTarget=0;fillColor=none;points=[[0,0.5],[1,0.5]];portConstraint=eastwest;rounded=1;shadow=0;dashed=0;labelBackgroundColor=none;sketch=0;fillStyle=cross-hatch;strokeColor=#ffffff;fontFamily=Helvetica;fontSize=16;fontColor=#000000;html=1;" parent="oGBta0RcwHTypOkyzDNI-222" vertex="1">
          <mxGeometry y="179" width="360" height="23" as="geometry" />
        </mxCell>
        <mxCell id="oGBta0RcwHTypOkyzDNI-236" value="void*&amp;nbsp; &amp;nbsp; &amp;nbsp; &amp;nbsp; &amp;nbsp; &amp;nbsp; &amp;nbsp; &amp;nbsp; &amp;nbsp; &amp;nbsp; &amp;nbsp;&lt;span style=&quot;white-space: pre;&quot;&gt; &lt;/span&gt;&lt;span style=&quot;white-space: pre;&quot;&gt; &lt;/span&gt;&amp;nbsp; &amp;nbsp; &amp;nbsp;&lt;b&gt;&lt;i&gt;arg&lt;/i&gt;&lt;/b&gt;" style="shape=partialRectangle;html=1;whiteSpace=wrap;connectable=0;overflow=hidden;fillColor=none;top=0;left=0;bottom=0;right=0;pointerEvents=1;rounded=1;shadow=0;dashed=0;labelBackgroundColor=none;sketch=0;fillStyle=cross-hatch;strokeColor=#ffffff;fontFamily=Helvetica;fontSize=16;fontColor=#000000;align=left;" parent="oGBta0RcwHTypOkyzDNI-235" vertex="1">
          <mxGeometry width="360" height="23" as="geometry">
            <mxRectangle width="360" height="23" as="alternateBounds" />
          </mxGeometry>
        </mxCell>
        <mxCell id="oGBta0RcwHTypOkyzDNI-237" value="" style="shape=tableRow;horizontal=0;startSize=0;swimlaneHead=0;swimlaneBody=0;top=0;left=0;bottom=0;right=0;collapsible=0;dropTarget=0;fillColor=none;points=[[0,0.5],[1,0.5]];portConstraint=eastwest;rounded=1;shadow=0;dashed=0;labelBackgroundColor=none;sketch=0;fillStyle=cross-hatch;strokeColor=#ffffff;fontFamily=Helvetica;fontSize=16;fontColor=#000000;html=1;" parent="oGBta0RcwHTypOkyzDNI-222" vertex="1">
          <mxGeometry y="202" width="360" height="23" as="geometry" />
        </mxCell>
        <mxCell id="oGBta0RcwHTypOkyzDNI-238" value="http_response_sender_t&amp;nbsp; &amp;nbsp; &amp;nbsp; &lt;b&gt;&lt;i&gt;response_sender&lt;/i&gt;&lt;/b&gt;" style="shape=partialRectangle;html=1;whiteSpace=wrap;connectable=0;overflow=hidden;fillColor=none;top=0;left=0;bottom=0;right=0;pointerEvents=1;rounded=1;shadow=0;dashed=0;labelBackgroundColor=none;sketch=0;fillStyle=cross-hatch;strokeColor=#ffffff;fontFamily=Helvetica;fontSize=16;fontColor=#000000;align=left;" parent="oGBta0RcwHTypOkyzDNI-237" vertex="1">
          <mxGeometry width="360" height="23" as="geometry">
            <mxRectangle width="360" height="23" as="alternateBounds" />
          </mxGeometry>
        </mxCell>
        <mxCell id="oGBta0RcwHTypOkyzDNI-239" value="" style="shape=tableRow;horizontal=0;startSize=0;swimlaneHead=0;swimlaneBody=0;top=0;left=0;bottom=0;right=0;collapsible=0;dropTarget=0;fillColor=none;points=[[0,0.5],[1,0.5]];portConstraint=eastwest;rounded=1;shadow=0;dashed=0;labelBackgroundColor=none;sketch=0;fillStyle=cross-hatch;strokeColor=#ffffff;fontFamily=Helvetica;fontSize=16;fontColor=#000000;html=1;" parent="oGBta0RcwHTypOkyzDNI-222" vertex="1">
          <mxGeometry y="225" width="360" height="23" as="geometry" />
        </mxCell>
        <mxCell id="oGBta0RcwHTypOkyzDNI-240" value="http_request_t*&amp;nbsp; &amp;nbsp; &amp;nbsp; &amp;nbsp; &amp;nbsp; &amp;nbsp;&lt;span style=&quot;white-space: pre;&quot;&gt; &lt;/span&gt;&amp;nbsp; &amp;nbsp; &amp;nbsp;&lt;b&gt;&lt;i&gt;request&lt;/i&gt;&lt;/b&gt;" style="shape=partialRectangle;html=1;whiteSpace=wrap;connectable=0;overflow=hidden;fillColor=none;top=0;left=0;bottom=0;right=0;pointerEvents=1;rounded=1;shadow=0;dashed=0;labelBackgroundColor=none;sketch=0;fillStyle=cross-hatch;strokeColor=#ffffff;fontFamily=Helvetica;fontSize=16;fontColor=#000000;align=left;" parent="oGBta0RcwHTypOkyzDNI-239" vertex="1">
          <mxGeometry width="360" height="23" as="geometry">
            <mxRectangle width="360" height="23" as="alternateBounds" />
          </mxGeometry>
        </mxCell>
        <mxCell id="oGBta0RcwHTypOkyzDNI-241" value="" style="shape=tableRow;horizontal=0;startSize=0;swimlaneHead=0;swimlaneBody=0;top=0;left=0;bottom=0;right=0;collapsible=0;dropTarget=0;fillColor=none;points=[[0,0.5],[1,0.5]];portConstraint=eastwest;rounded=1;shadow=0;dashed=0;labelBackgroundColor=none;sketch=0;fillStyle=cross-hatch;strokeColor=#ffffff;fontFamily=Helvetica;fontSize=16;fontColor=#000000;html=1;" parent="oGBta0RcwHTypOkyzDNI-222" vertex="1">
          <mxGeometry y="248" width="360" height="24" as="geometry" />
        </mxCell>
        <mxCell id="oGBta0RcwHTypOkyzDNI-242" value="http_response_t*&amp;nbsp; &amp;nbsp; &amp;nbsp; &amp;nbsp; &amp;nbsp;&lt;b&gt;&lt;i&gt; &lt;span style=&quot;white-space: pre;&quot;&gt; &lt;/span&gt;&amp;nbsp; &amp;nbsp; &amp;nbsp;response&lt;/i&gt;&lt;/b&gt;" style="shape=partialRectangle;html=1;whiteSpace=wrap;connectable=0;overflow=hidden;fillColor=none;top=0;left=0;bottom=0;right=0;pointerEvents=1;rounded=1;shadow=0;dashed=0;labelBackgroundColor=none;sketch=0;fillStyle=cross-hatch;strokeColor=#ffffff;fontFamily=Helvetica;fontSize=16;fontColor=#000000;align=left;" parent="oGBta0RcwHTypOkyzDNI-241" vertex="1">
          <mxGeometry width="360" height="24" as="geometry">
            <mxRectangle width="360" height="24" as="alternateBounds" />
          </mxGeometry>
        </mxCell>
        <mxCell id="oGBta0RcwHTypOkyzDNI-243" value="" style="shape=tableRow;horizontal=0;startSize=0;swimlaneHead=0;swimlaneBody=0;top=0;left=0;bottom=0;right=0;collapsible=0;dropTarget=0;fillColor=none;points=[[0,0.5],[1,0.5]];portConstraint=eastwest;rounded=1;shadow=0;dashed=0;labelBackgroundColor=none;sketch=0;fillStyle=cross-hatch;strokeColor=#ffffff;fontFamily=Helvetica;fontSize=16;fontColor=#000000;html=1;" parent="oGBta0RcwHTypOkyzDNI-222" vertex="1">
          <mxGeometry y="272" width="360" height="23" as="geometry" />
        </mxCell>
        <mxCell id="oGBta0RcwHTypOkyzDNI-244" value="char*&amp;nbsp; &amp;nbsp; &amp;nbsp; &amp;nbsp; &amp;nbsp; &amp;nbsp; &amp;nbsp; &amp;nbsp; &amp;nbsp; &amp;nbsp; &lt;b&gt;&lt;i&gt;error&lt;/i&gt;&lt;/b&gt;" style="shape=partialRectangle;html=1;whiteSpace=wrap;connectable=0;overflow=hidden;fillColor=none;top=0;left=0;bottom=0;right=0;pointerEvents=1;rounded=1;shadow=0;dashed=0;labelBackgroundColor=none;sketch=0;fillStyle=cross-hatch;strokeColor=#ffffff;fontFamily=Helvetica;fontSize=16;fontColor=#000000;align=left;" parent="oGBta0RcwHTypOkyzDNI-243" vertex="1">
          <mxGeometry width="360" height="23" as="geometry">
            <mxRectangle width="360" height="23" as="alternateBounds" />
          </mxGeometry>
        </mxCell>
        <mxCell id="oGBta0RcwHTypOkyzDNI-245" value="" style="shape=tableRow;horizontal=0;startSize=0;swimlaneHead=0;swimlaneBody=0;top=0;left=0;bottom=0;right=0;collapsible=0;dropTarget=0;fillColor=none;points=[[0,0.5],[1,0.5]];portConstraint=eastwest;rounded=1;shadow=0;dashed=0;labelBackgroundColor=none;sketch=0;fillStyle=cross-hatch;strokeColor=#ffffff;fontFamily=Helvetica;fontSize=16;fontColor=#000000;html=1;" parent="oGBta0RcwHTypOkyzDNI-222" vertex="1">
          <mxGeometry y="295" width="360" height="23" as="geometry" />
        </mxCell>
        <mxCell id="oGBta0RcwHTypOkyzDNI-246" value="evl_defer_t&amp;nbsp; &amp;nbsp; &amp;nbsp; &amp;nbsp; &amp;nbsp; &lt;b&gt;&lt;i&gt;defer_request_sent&lt;/i&gt;&lt;/b&gt;" style="shape=partialRectangle;html=1;whiteSpace=wrap;connectable=0;overflow=hidden;fillColor=none;top=0;left=0;bottom=0;right=0;pointerEvents=1;rounded=1;shadow=0;dashed=0;labelBackgroundColor=none;sketch=0;fillStyle=cross-hatch;strokeColor=#ffffff;fontFamily=Helvetica;fontSize=16;fontColor=#000000;align=left;" parent="oGBta0RcwHTypOkyzDNI-245" vertex="1">
          <mxGeometry width="360" height="23" as="geometry">
            <mxRectangle width="360" height="23" as="alternateBounds" />
          </mxGeometry>
        </mxCell>
        <mxCell id="oGBta0RcwHTypOkyzDNI-247" value="" style="shape=tableRow;horizontal=0;startSize=0;swimlaneHead=0;swimlaneBody=0;top=0;left=0;bottom=0;right=0;collapsible=0;dropTarget=0;fillColor=none;points=[[0,0.5],[1,0.5]];portConstraint=eastwest;rounded=1;shadow=0;dashed=0;labelBackgroundColor=none;sketch=0;fillStyle=cross-hatch;strokeColor=#ffffff;fontFamily=Helvetica;fontSize=16;fontColor=#000000;html=1;" parent="oGBta0RcwHTypOkyzDNI-222" vertex="1">
          <mxGeometry y="318" width="360" height="23" as="geometry" />
        </mxCell>
        <mxCell id="oGBta0RcwHTypOkyzDNI-248" value="evl_defer_t&amp;nbsp; &amp;nbsp; &amp;nbsp; &amp;nbsp; &amp;nbsp; &lt;b&gt;&lt;i&gt;defer_request&lt;/i&gt;&lt;/b&gt;" style="shape=partialRectangle;html=1;whiteSpace=wrap;connectable=0;overflow=hidden;fillColor=none;top=0;left=0;bottom=0;right=0;pointerEvents=1;rounded=1;shadow=0;dashed=0;labelBackgroundColor=none;sketch=0;fillStyle=cross-hatch;strokeColor=#ffffff;fontFamily=Helvetica;fontSize=16;fontColor=#000000;align=left;" parent="oGBta0RcwHTypOkyzDNI-247" vertex="1">
          <mxGeometry width="360" height="23" as="geometry">
            <mxRectangle width="360" height="23" as="alternateBounds" />
          </mxGeometry>
        </mxCell>
        <mxCell id="oGBta0RcwHTypOkyzDNI-249" value="" style="shape=tableRow;horizontal=0;startSize=0;swimlaneHead=0;swimlaneBody=0;top=0;left=0;bottom=0;right=0;collapsible=0;dropTarget=0;fillColor=none;points=[[0,0.5],[1,0.5]];portConstraint=eastwest;rounded=1;shadow=0;dashed=0;labelBackgroundColor=none;sketch=0;fillStyle=cross-hatch;strokeColor=#ffffff;fontFamily=Helvetica;fontSize=16;fontColor=#000000;html=1;" parent="oGBta0RcwHTypOkyzDNI-222" vertex="1">
          <mxGeometry y="341" width="360" height="24" as="geometry" />
        </mxCell>
        <mxCell id="oGBta0RcwHTypOkyzDNI-250" value="evl_defer_t&amp;nbsp; &amp;nbsp; &amp;nbsp; &amp;nbsp; &amp;nbsp; &lt;b&gt;&lt;i&gt;defer_response&lt;/i&gt;&lt;/b&gt;" style="shape=partialRectangle;html=1;whiteSpace=wrap;connectable=0;overflow=hidden;fillColor=none;top=0;left=0;bottom=0;right=0;pointerEvents=1;rounded=1;shadow=0;dashed=0;labelBackgroundColor=none;sketch=0;fillStyle=cross-hatch;strokeColor=#ffffff;fontFamily=Helvetica;fontSize=16;fontColor=#000000;align=left;" parent="oGBta0RcwHTypOkyzDNI-249" vertex="1">
          <mxGeometry width="360" height="24" as="geometry">
            <mxRectangle width="360" height="24" as="alternateBounds" />
          </mxGeometry>
        </mxCell>
        <mxCell id="oGBta0RcwHTypOkyzDNI-251" value="" style="shape=tableRow;horizontal=0;startSize=0;swimlaneHead=0;swimlaneBody=0;top=0;left=0;bottom=0;right=0;collapsible=0;dropTarget=0;fillColor=none;points=[[0,0.5],[1,0.5]];portConstraint=eastwest;rounded=1;shadow=0;dashed=0;labelBackgroundColor=none;sketch=0;fillStyle=cross-hatch;strokeColor=#ffffff;fontFamily=Helvetica;fontSize=16;fontColor=#000000;html=1;" parent="oGBta0RcwHTypOkyzDNI-222" vertex="1">
          <mxGeometry y="365" width="360" height="22" as="geometry" />
        </mxCell>
        <mxCell id="oGBta0RcwHTypOkyzDNI-252" value="evl_timer_t&amp;nbsp; &amp;nbsp; &amp;nbsp; &amp;nbsp; &amp;nbsp; &lt;b&gt;&lt;i&gt;timeout_timer&lt;/i&gt;&lt;/b&gt;" style="shape=partialRectangle;html=1;whiteSpace=wrap;connectable=0;overflow=hidden;fillColor=none;top=0;left=0;bottom=0;right=0;pointerEvents=1;rounded=1;shadow=0;dashed=0;labelBackgroundColor=none;sketch=0;fillStyle=cross-hatch;strokeColor=#ffffff;fontFamily=Helvetica;fontSize=16;fontColor=#000000;align=left;" parent="oGBta0RcwHTypOkyzDNI-251" vertex="1">
          <mxGeometry width="360" height="22" as="geometry">
            <mxRectangle width="360" height="22" as="alternateBounds" />
          </mxGeometry>
        </mxCell>
        <mxCell id="oGBta0RcwHTypOkyzDNI-253" value="" style="shape=tableRow;horizontal=0;startSize=0;swimlaneHead=0;swimlaneBody=0;top=0;left=0;bottom=0;right=0;collapsible=0;dropTarget=0;fillColor=none;points=[[0,0.5],[1,0.5]];portConstraint=eastwest;rounded=1;shadow=0;dashed=0;labelBackgroundColor=none;sketch=0;fillStyle=cross-hatch;strokeColor=#ffffff;fontFamily=Helvetica;fontSize=16;fontColor=#000000;html=1;" parent="oGBta0RcwHTypOkyzDNI-222" vertex="1">
          <mxGeometry y="387" width="360" height="24" as="geometry" />
        </mxCell>
        <mxCell id="oGBta0RcwHTypOkyzDNI-254" value="int&amp;nbsp; &amp;nbsp; &amp;nbsp; &amp;nbsp; &amp;nbsp; &amp;nbsp; &amp;nbsp; &amp;nbsp; &amp;nbsp; &amp;nbsp; &amp;nbsp; &amp;nbsp;&lt;b&gt;&lt;i&gt;ref_count&lt;/i&gt;&lt;/b&gt;" style="shape=partialRectangle;html=1;whiteSpace=wrap;connectable=0;overflow=hidden;fillColor=none;top=0;left=0;bottom=0;right=0;pointerEvents=1;rounded=1;shadow=0;dashed=0;labelBackgroundColor=none;sketch=0;fillStyle=cross-hatch;strokeColor=#ffffff;fontFamily=Helvetica;fontSize=16;fontColor=#000000;align=left;" parent="oGBta0RcwHTypOkyzDNI-253" vertex="1">
          <mxGeometry width="360" height="24" as="geometry">
            <mxRectangle width="360" height="24" as="alternateBounds" />
          </mxGeometry>
        </mxCell>
        <mxCell id="oGBta0RcwHTypOkyzDNI-255" value="" style="shape=tableRow;horizontal=0;startSize=0;swimlaneHead=0;swimlaneBody=0;top=0;left=0;bottom=0;right=0;collapsible=0;dropTarget=0;fillColor=none;points=[[0,0.5],[1,0.5]];portConstraint=eastwest;rounded=1;shadow=0;dashed=0;labelBackgroundColor=none;sketch=0;fillStyle=cross-hatch;strokeColor=#ffffff;fontFamily=Helvetica;fontSize=16;fontColor=#000000;html=1;" parent="oGBta0RcwHTypOkyzDNI-222" vertex="1">
          <mxGeometry y="411" width="360" height="23" as="geometry" />
        </mxCell>
        <mxCell id="oGBta0RcwHTypOkyzDNI-256" value="int&amp;nbsp; &amp;nbsp; &amp;nbsp; &amp;nbsp; &amp;nbsp; &amp;nbsp; &amp;nbsp; &amp;nbsp; &amp;nbsp; &amp;nbsp; &amp;nbsp; &amp;nbsp;&lt;b&gt;&lt;i&gt;response_sender_ref_count&lt;/i&gt;&lt;/b&gt;" style="shape=partialRectangle;html=1;whiteSpace=wrap;connectable=0;overflow=hidden;fillColor=none;top=0;left=0;bottom=0;right=0;pointerEvents=1;rounded=1;shadow=0;dashed=0;labelBackgroundColor=none;sketch=0;fillStyle=cross-hatch;strokeColor=#ffffff;fontFamily=Helvetica;fontSize=16;fontColor=#000000;align=left;" parent="oGBta0RcwHTypOkyzDNI-255" vertex="1">
          <mxGeometry width="360" height="23" as="geometry">
            <mxRectangle width="360" height="23" as="alternateBounds" />
          </mxGeometry>
        </mxCell>
        <mxCell id="oGBta0RcwHTypOkyzDNI-257" value="" style="shape=tableRow;horizontal=0;startSize=0;swimlaneHead=0;swimlaneBody=0;top=0;left=0;bottom=0;right=0;collapsible=0;dropTarget=0;fillColor=none;points=[[0,0.5],[1,0.5]];portConstraint=eastwest;rounded=1;shadow=0;dashed=0;labelBackgroundColor=none;sketch=0;fillStyle=cross-hatch;strokeColor=#ffffff;fontFamily=Helvetica;fontSize=16;fontColor=#000000;html=1;" parent="oGBta0RcwHTypOkyzDNI-222" vertex="1">
          <mxGeometry y="434" width="360" height="23" as="geometry" />
        </mxCell>
        <mxCell id="oGBta0RcwHTypOkyzDNI-258" value="void &lt;span style=&quot;white-space: pre;&quot;&gt; &lt;/span&gt;&lt;span style=&quot;white-space: pre;&quot;&gt; &lt;/span&gt;&amp;nbsp;&amp;nbsp;&lt;b&gt;&lt;i&gt;(*destroy)&lt;/i&gt;&lt;/b&gt;" style="shape=partialRectangle;html=1;whiteSpace=wrap;connectable=0;overflow=hidden;fillColor=none;top=0;left=0;bottom=0;right=0;pointerEvents=1;rounded=1;shadow=0;dashed=0;labelBackgroundColor=none;sketch=0;fillStyle=cross-hatch;strokeColor=#ffffff;fontFamily=Helvetica;fontSize=16;fontColor=#000000;align=left;" parent="oGBta0RcwHTypOkyzDNI-257" vertex="1">
          <mxGeometry width="360" height="23" as="geometry">
            <mxRectangle width="360" height="23" as="alternateBounds" />
          </mxGeometry>
        </mxCell>
        <mxCell id="oGBta0RcwHTypOkyzDNI-259" value="" style="shape=tableRow;horizontal=0;startSize=0;swimlaneHead=0;swimlaneBody=0;top=0;left=0;bottom=0;right=0;collapsible=0;dropTarget=0;fillColor=none;points=[[0,0.5],[1,0.5]];portConstraint=eastwest;rounded=1;shadow=0;dashed=0;labelBackgroundColor=none;sketch=0;fillStyle=cross-hatch;strokeColor=#ffffff;fontFamily=Helvetica;fontSize=16;fontColor=#000000;html=1;" parent="oGBta0RcwHTypOkyzDNI-222" vertex="1">
          <mxGeometry y="457" width="360" height="23" as="geometry" />
        </mxCell>
        <mxCell id="oGBta0RcwHTypOkyzDNI-260" value="void &lt;span style=&quot;white-space: pre;&quot;&gt; &lt;/span&gt;&lt;span style=&quot;white-space: pre;&quot;&gt; &lt;/span&gt;&amp;nbsp;&amp;nbsp;&lt;b&gt;&lt;i&gt;(*on_timeout)&lt;/i&gt;&lt;/b&gt;" style="shape=partialRectangle;html=1;whiteSpace=wrap;connectable=0;overflow=hidden;fillColor=none;top=0;left=0;bottom=0;right=0;pointerEvents=1;rounded=1;shadow=0;dashed=0;labelBackgroundColor=none;sketch=0;fillStyle=cross-hatch;strokeColor=#ffffff;fontFamily=Helvetica;fontSize=16;fontColor=#000000;align=left;" parent="oGBta0RcwHTypOkyzDNI-259" vertex="1">
          <mxGeometry width="360" height="23" as="geometry">
            <mxRectangle width="360" height="23" as="alternateBounds" />
          </mxGeometry>
        </mxCell>
        <mxCell id="oGBta0RcwHTypOkyzDNI-261" style="edgeStyle=none;curved=1;sketch=1;orthogonalLoop=1;jettySize=auto;html=1;exitX=0;exitY=1;exitDx=0;exitDy=0;entryX=1;entryY=0;entryDx=0;entryDy=0;shadow=1;dashed=1;strokeColor=#000000;strokeWidth=1;fontFamily=Helvetica;fontSize=16;fontColor=#000000;startArrow=halfCircle;startFill=0;endArrow=classic;endFill=1;elbow=vertical;" parent="1" source="oGBta0RcwHTypOkyzDNI-263" target="oGBta0RcwHTypOkyzDNI-266" edge="1">
          <mxGeometry relative="1" as="geometry" />
        </mxCell>
        <mxCell id="oGBta0RcwHTypOkyzDNI-262" style="edgeStyle=none;curved=1;sketch=1;orthogonalLoop=1;jettySize=auto;html=1;exitX=1;exitY=1;exitDx=0;exitDy=0;entryX=0;entryY=0;entryDx=0;entryDy=0;shadow=1;dashed=1;strokeColor=#000000;strokeWidth=1;fontFamily=Helvetica;fontSize=16;fontColor=#000000;startArrow=halfCircle;startFill=0;endArrow=classic;endFill=1;elbow=vertical;" parent="1" source="oGBta0RcwHTypOkyzDNI-263" target="oGBta0RcwHTypOkyzDNI-267" edge="1">
          <mxGeometry relative="1" as="geometry" />
        </mxCell>
        <mxCell id="oGBta0RcwHTypOkyzDNI-263" value="" style="ellipse;shape=doubleEllipse;whiteSpace=wrap;html=1;rounded=1;shadow=0;dashed=0;labelBackgroundColor=none;sketch=0;fillStyle=auto;strokeColor=#B20000;fontFamily=Helvetica;fontSize=16;fontColor=#ffffff;fillColor=#e51400;" parent="1" vertex="1">
          <mxGeometry x="-780" y="1670" width="25" height="25" as="geometry" />
        </mxCell>
        <mxCell id="oGBta0RcwHTypOkyzDNI-264" style="edgeStyle=none;curved=1;sketch=1;orthogonalLoop=1;jettySize=auto;html=1;exitX=1;exitY=1;exitDx=0;exitDy=0;entryX=0.5;entryY=0;entryDx=0;entryDy=0;shadow=1;dashed=1;strokeColor=#000000;strokeWidth=1;fontFamily=Helvetica;fontSize=16;fontColor=#000000;startArrow=halfCircle;startFill=0;endArrow=classic;endFill=1;elbow=vertical;" parent="1" source="oGBta0RcwHTypOkyzDNI-266" target="oGBta0RcwHTypOkyzDNI-268" edge="1">
          <mxGeometry relative="1" as="geometry" />
        </mxCell>
        <mxCell id="oGBta0RcwHTypOkyzDNI-265" style="edgeStyle=orthogonalEdgeStyle;curved=1;sketch=1;orthogonalLoop=1;jettySize=auto;html=1;exitX=0;exitY=1;exitDx=0;exitDy=0;entryX=0;entryY=0;entryDx=0;entryDy=0;shadow=1;dashed=1;strokeColor=#000000;strokeWidth=1;fontFamily=Helvetica;fontSize=16;fontColor=#000000;startArrow=oval;startFill=1;endArrow=halfCircle;endFill=0;elbow=vertical;" parent="1" source="oGBta0RcwHTypOkyzDNI-266" target="oGBta0RcwHTypOkyzDNI-222" edge="1">
          <mxGeometry relative="1" as="geometry">
            <Array as="points">
              <mxPoint x="-806" y="1850" />
            </Array>
          </mxGeometry>
        </mxCell>
        <mxCell id="oGBta0RcwHTypOkyzDNI-266" value="" style="ellipse;shape=doubleEllipse;whiteSpace=wrap;html=1;aspect=fixed;rounded=1;shadow=0;dashed=0;labelBackgroundColor=none;sketch=0;fillStyle=auto;strokeColor=#B20000;fontFamily=Helvetica;fontSize=16;fontColor=#ffffff;fillColor=#e51400;" parent="1" vertex="1">
          <mxGeometry x="-810" y="1720" width="25" height="25" as="geometry" />
        </mxCell>
        <mxCell id="oGBta0RcwHTypOkyzDNI-267" value="" style="ellipse;shape=doubleEllipse;whiteSpace=wrap;html=1;aspect=fixed;rounded=1;shadow=0;dashed=0;labelBackgroundColor=none;sketch=0;fillStyle=auto;strokeColor=#B20000;fontFamily=Helvetica;fontSize=16;fontColor=#ffffff;fillColor=#e51400;" parent="1" vertex="1">
          <mxGeometry x="-750" y="1720" width="25" height="25" as="geometry" />
        </mxCell>
        <mxCell id="oGBta0RcwHTypOkyzDNI-268" value="" style="ellipse;shape=doubleEllipse;whiteSpace=wrap;html=1;aspect=fixed;rounded=1;shadow=0;dashed=0;labelBackgroundColor=none;sketch=0;fillStyle=auto;strokeColor=#B20000;fontFamily=Helvetica;fontSize=16;fontColor=#ffffff;fillColor=#e51400;" parent="1" vertex="1">
          <mxGeometry x="-775" y="1770" width="25" height="25" as="geometry" />
        </mxCell>
        <mxCell id="oGBta0RcwHTypOkyzDNI-269" style="edgeStyle=none;curved=1;sketch=1;orthogonalLoop=1;jettySize=auto;html=1;exitX=0;exitY=0.5;exitDx=0;exitDy=0;entryX=0.4;entryY=-0.4;entryDx=0;entryDy=0;entryPerimeter=0;shadow=1;dashed=1;strokeColor=#000000;strokeWidth=1;fontFamily=Helvetica;fontSize=16;fontColor=#000000;startArrow=halfCircle;startFill=0;endArrow=classic;endFill=1;elbow=vertical;" parent="1" source="oGBta0RcwHTypOkyzDNI-156" target="oGBta0RcwHTypOkyzDNI-263" edge="1">
          <mxGeometry relative="1" as="geometry">
            <Array as="points">
              <mxPoint x="-730" y="1640" />
            </Array>
          </mxGeometry>
        </mxCell>
        <mxCell id="oGBta0RcwHTypOkyzDNI-270" value="&lt;b&gt;&lt;i&gt;Callback function for when a request has been sent.&lt;/i&gt;&lt;/b&gt;" style="text;whiteSpace=wrap;html=1;fontSize=12;fontFamily=Helvetica;align=left;fillColor=default;strokeColor=#36393d;sketch=1;glass=0;rounded=1;fillStyle=cross-hatch;" parent="1" vertex="1">
          <mxGeometry x="-345" y="1890" width="310" height="25" as="geometry" />
        </mxCell>
        <mxCell id="oGBta0RcwHTypOkyzDNI-271" value="&lt;b&gt;&lt;i&gt;Callback function for handling request timeouts.&lt;/i&gt;&lt;/b&gt;" style="text;whiteSpace=wrap;html=1;fontSize=12;fontFamily=Helvetica;align=left;fillColor=default;strokeColor=#36393d;sketch=1;glass=0;rounded=1;fillStyle=cross-hatch;" parent="1" vertex="1">
          <mxGeometry x="-345" y="1922.5" width="310" height="25" as="geometry" />
        </mxCell>
        <mxCell id="oGBta0RcwHTypOkyzDNI-272" value="&lt;b&gt;&lt;i&gt;Callback function for handling incoming HTTP responses.&lt;/i&gt;&lt;/b&gt;" style="text;whiteSpace=wrap;html=1;fontSize=12;fontFamily=Helvetica;align=left;fillColor=default;strokeColor=#36393d;sketch=1;glass=0;rounded=1;fillStyle=cross-hatch;" parent="1" vertex="1">
          <mxGeometry x="-345" y="1952" width="340" height="25" as="geometry" />
        </mxCell>
        <mxCell id="oGBta0RcwHTypOkyzDNI-273" value="&lt;b&gt;&lt;i&gt;Callback function for handling incoming HTTP requests.&lt;/i&gt;&lt;/b&gt;" style="text;whiteSpace=wrap;html=1;fontSize=12;fontFamily=Helvetica;align=left;fillColor=default;strokeColor=#36393d;sketch=1;glass=0;rounded=1;fillStyle=cross-hatch;" parent="1" vertex="1">
          <mxGeometry x="-345" y="1984" width="340" height="25" as="geometry" />
        </mxCell>
        <mxCell id="oGBta0RcwHTypOkyzDNI-274" style="edgeStyle=none;curved=1;sketch=1;orthogonalLoop=1;jettySize=auto;html=1;exitX=1;exitY=0.5;exitDx=0;exitDy=0;entryX=0;entryY=0.5;entryDx=0;entryDy=0;shadow=1;dashed=1;strokeColor=#000000;strokeWidth=1;fontFamily=Helvetica;fontSize=16;fontColor=#000000;startArrow=halfCircle;startFill=0;endArrow=classic;endFill=1;elbow=vertical;" parent="1" source="oGBta0RcwHTypOkyzDNI-227" target="oGBta0RcwHTypOkyzDNI-270" edge="1">
          <mxGeometry relative="1" as="geometry" />
        </mxCell>
        <mxCell id="oGBta0RcwHTypOkyzDNI-275" style="edgeStyle=none;curved=1;sketch=1;orthogonalLoop=1;jettySize=auto;html=1;exitX=1;exitY=0.5;exitDx=0;exitDy=0;entryX=0;entryY=0.5;entryDx=0;entryDy=0;shadow=1;dashed=1;strokeColor=#000000;strokeWidth=1;fontFamily=Helvetica;fontSize=16;fontColor=#000000;startArrow=halfCircle;startFill=0;endArrow=classic;endFill=1;elbow=vertical;" parent="1" source="oGBta0RcwHTypOkyzDNI-229" target="oGBta0RcwHTypOkyzDNI-271" edge="1">
          <mxGeometry relative="1" as="geometry" />
        </mxCell>
        <mxCell id="oGBta0RcwHTypOkyzDNI-276" style="edgeStyle=none;curved=1;sketch=1;orthogonalLoop=1;jettySize=auto;html=1;exitX=1;exitY=0.5;exitDx=0;exitDy=0;entryX=0;entryY=0.5;entryDx=0;entryDy=0;shadow=1;dashed=1;strokeColor=#000000;strokeWidth=1;fontFamily=Helvetica;fontSize=16;fontColor=#000000;startArrow=halfCircle;startFill=0;endArrow=classic;endFill=1;elbow=vertical;" parent="1" source="oGBta0RcwHTypOkyzDNI-231" target="oGBta0RcwHTypOkyzDNI-272" edge="1">
          <mxGeometry relative="1" as="geometry" />
        </mxCell>
        <mxCell id="oGBta0RcwHTypOkyzDNI-277" style="edgeStyle=none;curved=1;sketch=1;orthogonalLoop=1;jettySize=auto;html=1;exitX=1;exitY=0.5;exitDx=0;exitDy=0;entryX=0;entryY=0.5;entryDx=0;entryDy=0;shadow=1;dashed=1;strokeColor=#000000;strokeWidth=1;fontFamily=Helvetica;fontSize=16;fontColor=#000000;startArrow=halfCircle;startFill=0;endArrow=classic;endFill=1;elbow=vertical;" parent="1" source="oGBta0RcwHTypOkyzDNI-233" target="oGBta0RcwHTypOkyzDNI-273" edge="1">
          <mxGeometry relative="1" as="geometry" />
        </mxCell>
        <mxCell id="oGBta0RcwHTypOkyzDNI-278" style="edgeStyle=orthogonalEdgeStyle;curved=1;sketch=1;orthogonalLoop=1;jettySize=auto;html=1;exitX=1;exitY=0.5;exitDx=0;exitDy=0;entryX=1;entryY=0.5;entryDx=0;entryDy=0;shadow=1;dashed=1;strokeColor=#000000;strokeWidth=1;fontFamily=Helvetica;fontSize=16;fontColor=#000000;startArrow=halfCircle;startFill=0;endArrow=classic;endFill=1;elbow=vertical;" parent="1" source="oGBta0RcwHTypOkyzDNI-225" target="oGBta0RcwHTypOkyzDNI-166" edge="1">
          <mxGeometry relative="1" as="geometry" />
        </mxCell>
      </root>
    </mxGraphModel>
  </diagram>
</mxfile>
